<?xml version="1.0" standalone="no"?>
<!DOCTYPE svg PUBLIC "-//W3C//DTD SVG 1.1//EN" "http://www.w3.org/Graphics/SVG/1.1/DTD/svg11.dtd" >
<svg xmlns="http://www.w3.org/2000/svg">
<metadata></metadata>
<defs>
<font id="gistextralight" horiz-adv-x="1787" >
<font-face units-per-em="2048" ascent="1638" descent="-410" />
<missing-glyph horiz-adv-x="614" />
<glyph unicode="&#xfb01;" horiz-adv-x="1374" d="M-588 -283l33 -4q-7 -52 11.5 -106t57.5 -99.5t106.5 -74.5t150.5 -29q73 0 134 21.5t105.5 61.5t78.5 89.5t58.5 115t40.5 126.5t29 135l189 1061h692l-170 -953h-281l6 33h246l160 887h-627l-182 -1034q-16 -91 -37 -165.5t-59.5 -154t-88 -133t-125 -88.5t-169.5 -35 q-73 0 -135.5 21t-105 56.5t-72 80.5t-40.5 93t-6 95zM-526 -291l32 -4q-7 -53 20 -107t92 -93.5t153 -39.5q74 0 133.5 27.5t99 72t70.5 111.5t49 134.5t33 152.5l180 1018h-244l6 33h277l-187 -1057q-16 -89 -34.5 -158t-51.5 -140.5t-76 -118.5t-108.5 -77t-146.5 -30 q-76 0 -137.5 26t-97 67t-52 89t-10.5 94zM104 1042l7 33h241l13 66q12 71 27 132.5t38 128.5t50.5 120.5t67.5 103.5t87 83t109.5 53t134.5 20q96 0 173.5 -36t123 -92.5t67 -123.5t14.5 -133l-32 4q7 60 -12.5 120.5t-61 112t-113 83.5t-159.5 32q-94 0 -169.5 -35.5 t-125.5 -91.5t-88.5 -140t-60 -165t-38.5 -182l-16 -93h-277zM410 1042l16 88q17 100 37.5 178t57 158.5t83 133.5t117 86.5t158.5 33.5q79 0 144.5 -30t103.5 -77t56.5 -101.5t12.5 -106.5l-33 4q7 62 -21.5 125t-98 108.5t-164.5 45.5q-67 0 -123 -20.5t-98 -60.5t-74 -90 t-56 -116.5t-40 -131.5t-29 -145l-10 -49h720l-174 -981h248l-6 -33h-281l174 981h-720zM635 0l6 33h590l-6 -33h-590z" />
<glyph unicode="&#xfb02;" horiz-adv-x="1511" d="M-586 -283l33 -4q-7 -52 11.5 -106t57.5 -99.5t106.5 -74.5t150.5 -29q73 0 134 21.5t105.5 61.5t78.5 89.5t58.5 115t40.5 126.5t29 135l187 1061h407l-6 -33h-373l-182 -1034q-16 -91 -37 -165.5t-59.5 -154t-88 -133t-125 -88.5t-169.5 -35q-73 0 -135.5 21t-105 56.5 t-72 80.5t-40.5 93t-6 95zM-524 -291l32 -4q-7 -53 20 -107t92 -93.5t153 -39.5q74 0 133.5 27.5t99 72t70.5 111.5t49 134.5t33 152.5l178 1018h-242l6 33h277l-187 -1057q-16 -89 -34.5 -158t-51.5 -140.5t-76 -118.5t-108.5 -77t-146.5 -30q-76 0 -137.5 26t-97 67 t-52 89t-10.5 94zM106 1042l7 33h239l25 131q12 64 25 118t34.5 115t48 108.5t65 93t85 75.5t109.5 48t137 18q237 0 401 -189l-213 -1216q-14 -72 -7.5 -124t21.5 -86.5t40.5 -55t49 -29t46.5 -8.5q42 0 77 15t80 54l21 -26q-91 -76 -178 -76q-28 0 -56 9.5t-58.5 32.5 t-48.5 62t-27 98t7 140l209 1200q-150 166 -364 166q-69 0 -127.5 -16.5t-102 -44.5t-79.5 -70.5t-61 -87.5t-45 -103.5t-32.5 -111t-23.5 -115.5l-29 -158h-275zM412 1042l26 154q16 90 34.5 158t53 140.5t79.5 119t115.5 76.5t160.5 30q194 0 333 -145l-206 -1188 q-17 -87 -6.5 -151.5t32.5 -107.5t56.5 -68.5t66.5 -36.5t62 -11q99 0 196 82l23 -24q-109 -90 -219 -90q-27 0 -57 8t-63.5 27.5t-60 50.5t-47 77t-24.5 108t8 142l205 1170q-125 125 -299 125q-82 0 -146.5 -28t-106.5 -71.5t-74 -111.5t-50 -134.5t-33 -152.5l-20 -115 h374l-6 -33h-407z" />
<glyph unicode="&#xfb03;" horiz-adv-x="2144" d="M-586 -283l33 -4q-7 -52 11.5 -106t57.5 -99.5t106.5 -74.5t150.5 -29q73 0 134 21.5t105.5 61.5t78.5 89.5t58.5 115t40.5 126.5t29 135l187 1061h739l-187 -1057q-16 -89 -34.5 -158t-51.5 -140.5t-76 -118.5t-108.5 -77t-146.5 -30q-137 0 -224 84l23 24 q76 -76 201 -76q74 0 133.5 27.5t99 72t70.5 111.5t49 134.5t33 152.5l180 1018h-674l-180 -1034q-16 -91 -37 -165.5t-59.5 -154t-88 -133t-125 -88.5t-169.5 -35q-73 0 -135.5 21t-105 56.5t-72 80.5t-40.5 93t-6 95zM-524 -291l32 -4q-7 -53 20 -107t92 -93.5t153 -39.5 q74 0 133.5 27.5t99 72t70.5 111.5t49 134.5t33 152.5l178 1018h-244l6 33h277l-185 -1057q-16 -89 -34.5 -158t-51.5 -140.5t-76 -118.5t-108.5 -77t-146.5 -30q-76 0 -137.5 26t-97 67t-52 89t-10.5 94zM104 1042l7 33h241q14 73 30.5 135t41 129t54.5 120t71.5 102 t91 81.5t114.5 52t140 19.5q213 0 373 -160q137 228 381 228q96 0 174 -36t123.5 -92.5t67.5 -123.5t14 -133l-33 4q7 60 -12.5 120.5t-61 112t-113 83.5t-159.5 32q-248 0 -375 -248q-156 180 -379 180q-72 0 -134.5 -19t-109.5 -51t-86.5 -80.5t-67.5 -101.5t-51 -120 t-37.5 -130t-27.5 -137h-277zM274 -528l23 24q95 -92 244 -92q73 0 134 21.5t105.5 61.5t78.5 89.5t58.5 115t40.5 126.5t29 135l189 1061h692l-170 -953h-281l6 33h246l160 887h-627l-182 -1034q-16 -91 -37 -165.5t-59.5 -154t-88 -133t-125 -88.5t-169.5 -35 q-80 0 -149.5 28t-117.5 73zM410 1042q19 105 41 186t61 164t88.5 137.5t125 89t169.5 34.5q217 0 367 -180q-65 -138 -95 -338l-16 -93h-741zM451 1075h671l13 66q30 186 90 325q-139 154 -330 154q-83 0 -150.5 -29.5t-113.5 -77.5t-82 -121t-58 -148t-40 -169zM1180 1042 l16 88q17 100 37.5 178t57 158.5t83 133.5t117 86.5t158.5 33.5q79 0 144 -30t103 -77t56.5 -101.5t13.5 -106.5l-33 4q7 62 -21.5 125t-98 108.5t-164.5 45.5q-67 0 -123 -20.5t-98 -60.5t-74 -90t-56 -116.5t-40 -131.5t-29 -145l-10 -49h720l-174 -981h248l-6 -33h-281 l175 981h-721zM1405 0l6 33h590l-6 -33h-590z" />
<glyph unicode="&#xfb04;" horiz-adv-x="2281" d="M-586 -283l33 -4q-7 -52 11.5 -106t57.5 -99.5t106.5 -74.5t150.5 -29q73 0 134 21.5t105.5 61.5t78.5 89.5t58.5 115t40.5 126.5t29 135l187 1061h741l-189 -1057q-16 -89 -34.5 -158t-51.5 -140.5t-76 -118.5t-108.5 -77t-146.5 -30q-137 0 -224 84l23 24 q76 -76 201 -76q74 0 133.5 27.5t99 72t70.5 111.5t49 134.5t33 152.5l180 1018h-674l-180 -1034q-16 -91 -37 -165.5t-59.5 -154t-88 -133t-125 -88.5t-169.5 -35q-91 0 -165 32t-117 83t-63.5 111.5t-13.5 119.5zM-524 -291l32 -4q-7 -53 20 -107t92 -93.5t153 -39.5 q74 0 133.5 27.5t99 72t70.5 111.5t49 134.5t33 152.5l178 1018h-244l6 33h277l-185 -1057q-16 -89 -34.5 -158t-51.5 -140.5t-76 -118.5t-108.5 -77t-146.5 -30q-76 0 -137.5 26t-97 67t-52 89t-10.5 94zM104 1042l7 33h241q14 73 30.5 135t41 129t54.5 120t71.5 102 t91 81.5t114.5 52t140 19.5q207 0 367 -153q130 221 389 221q233 0 401 -189l-217 -1233q-12 -86 -4 -141.5t37 -87.5t59 -44.5t62 -12.5q41 0 76 15t81 54l21 -26q-51 -41 -91.5 -58.5t-86.5 -17.5q-29 0 -57.5 9t-59 31t-49 59t-27.5 93.5t6 133.5l213 1216 q-150 166 -364 166q-263 0 -381 -242q-154 174 -375 174q-72 0 -134.5 -19t-109.5 -51t-86.5 -80.5t-67.5 -101.5t-51 -120t-37.5 -130t-27.5 -137h-277zM274 -528l23 24q95 -92 244 -92q73 0 134 21.5t105.5 61.5t78.5 89.5t58.5 115t40.5 126.5t29 135l189 1061h405 l-6 -33h-371l-184 -1034q-16 -91 -37 -165.5t-59.5 -154t-88 -133t-125 -88.5t-169.5 -35q-80 0 -149.5 28t-117.5 73zM410 1042q19 105 41 186t61 164t88.5 137.5t125 89t169.5 34.5q213 0 360 -174q-47 -108 -75 -279l-29 -158h-741zM451 1075h671l25 131q29 164 72 267 q-138 147 -324 147q-83 0 -150.5 -29.5t-113.5 -77.5t-82 -121t-58 -148t-40 -169zM1180 1042l28 154q16 90 34.5 158t53 140.5t79.5 119t115.5 76.5t160.5 30q195 0 334 -145l-211 -1204q-16 -84 -5.5 -145.5t33 -102.5t57.5 -65.5t67 -35t63 -10.5q99 0 196 84l23 -26 q-112 -90 -219 -90q-33 0 -69.5 12t-76.5 39.5t-66.5 73t-39.5 113t4 159.5l209 1186q-125 125 -299 125q-82 0 -146.5 -28t-106.5 -71.5t-74 -111.5t-50 -134.5t-33 -152.5l-20 -115h372l-6 -33h-407z" />
<glyph horiz-adv-x="2048" />
<glyph horiz-adv-x="2048" />
<glyph unicode="&#xd;" horiz-adv-x="2048" />
<glyph unicode=" "  horiz-adv-x="614" />
<glyph unicode="&#x09;" horiz-adv-x="614" />
<glyph unicode="&#xa0;" horiz-adv-x="614" />
<glyph unicode="!" horiz-adv-x="573" d="M84 72q0 38 28 66t66 28t66 -28t28 -66t-28 -66.5t-66 -28.5t-66 28.5t-28 66.5zM115 72q0 -26 18.5 -45t44.5 -19t45 19t19 45t-19 44.5t-45 18.5t-44.5 -18.5t-18.5 -44.5zM143 72q0 14 10 24t25 10q14 0 24.5 -9.5t10.5 -24.5q0 -14 -10 -24.5t-25 -10.5 q-14 0 -24.5 10t-10.5 25zM188 399l213 1198h35l-213 -1198h-35zM252 399l213 1198h33l-211 -1198h-35z" />
<glyph unicode="&#x22;" horiz-adv-x="888" d="M229 965l113 632h35l-113 -632h-35zM293 965l113 632h34l-112 -632h-35zM664 965l112 632h35l-113 -632h-34zM727 965l113 632h34l-112 -632h-35z" />
<glyph unicode="#" horiz-adv-x="1466" d="M59 455l7 32h307l-170 -487h-35l158 455h-267zM72 516l6 33h280l170 483h-274l6 33h315l-192 -549h-311zM236 0l170 487h481l-170 -487h-35l158 455h-410l-160 -455h-34zM266 1094l6 32h289l166 471h35l-176 -503h-320zM416 516l192 549h482l-193 -549h-481zM463 549h409 l170 483h-411zM618 1094l177 503h34l-165 -471h411l166 471h35l-176 -503h-482zM750 0l170 487h319l-6 -32h-289l-160 -455h-34zM930 516l192 549h318l-6 -33h-289l-168 -483h274l-6 -33h-315zM1133 1094l176 503h34l-165 -471h274l-6 -32h-313z" />
<glyph unicode="$" horiz-adv-x="1222" d="M94 594l33 -6q-14 -79 0.5 -149t49.5 -121.5t87 -92t110.5 -66t123.5 -38.5l-39 -219h-35l35 196q-82 22 -152.5 62.5t-126 100.5t-80 146.5t-6.5 186.5zM156 582l32 -4q-14 -79 4 -146.5t61 -114.5t99 -79t123 -50l105 598q-58 28 -99.5 51.5t-88.5 59t-76 72.5 t-48.5 87.5t-19.5 108.5q0 152 113.5 254.5t306.5 102.5q27 0 41 -2l30 176h35l-37 -211q-50 4 -69 4q-177 0 -282 -94t-105 -230q0 -54 19.5 -102t48 -82t76.5 -68t90 -56t103 -50l-116 -657q-77 15 -144 49t-119.5 86t-75.5 129t-7 168zM309 1165q0 127 96 211t263 84 q23 0 63 -4l-108 -622q-60 28 -99 49t-84 52.5t-70.5 63t-43 74.5t-17.5 92zM342 1165q0 -94 63.5 -156t190.5 -124l96 540q-4 0 -12 1t-12 1q-151 0 -238.5 -75.5t-87.5 -186.5zM487 -98l37 215q44 -8 99 -8q188 0 297.5 94t109.5 237q0 34 -7.5 65.5t-19 57t-31.5 50.5 t-38 43.5t-46 38t-48 32.5t-51.5 29t-49 24t-48 22t-42.5 19l111 631q74 -11 135 -40.5t107 -78t64.5 -123.5t2.5 -168l-33 7q27 153 -44 244.5t-204 121.5l-102 -573q140 -64 201 -106q176 -121 176 -296q0 -157 -119.5 -260.5t-320.5 -103.5q-45 0 -70 4l-31 -178h-35z M530 143l113 652q10 -5 42 -19.5t47 -22t46.5 -23.5t48.5 -27.5t44 -30.5t42.5 -35.5t34.5 -40t29 -46.5t17 -51.5t7 -58.5q0 -131 -101 -217t-277 -86q-47 0 -93 6zM569 172q18 -2 54 -2q160 0 253 78t93 192q0 48 -19.5 91t-46.5 72t-72 58.5t-78 45.5t-83 38zM764 1481 l39 215h35l-33 -191q77 -18 141 -54.5t113 -93.5t69 -140.5t2 -184.5l-32 6q18 99 -2.5 179.5t-71 133t-116 85t-144.5 45.5z" />
<glyph unicode="%" horiz-adv-x="2056" d="M195 1255q0 155 106.5 262t261.5 107t262 -107t107 -262q0 -154 -107 -261t-262 -107t-261.5 107t-106.5 261zM227 1255q0 -137 99 -236t237 -99t237 99t99 236q0 138 -99 237t-237 99t-237 -99t-99 -237zM256 1255q0 129 89 218.5t218 89.5t218 -89.5t89 -218.5 q0 -128 -89 -217.5t-218 -89.5t-218 89.5t-89 217.5zM289 1255q0 -113 80.5 -193.5t193.5 -80.5t194 81t81 193q0 113 -81 194t-194 81q-114 0 -194 -81t-80 -194zM354 0l1274 1597h41l-1274 -1597h-41zM430 0l1274 1597h43l-1274 -1597h-43zM1174 348q0 155 106.5 262 t261.5 107t262 -107t107 -262t-107 -261.5t-262 -106.5t-261.5 106.5t-106.5 261.5zM1206 348q0 -138 99 -237t237 -99t237 99t99 237t-99 237t-237 99t-237 -99t-99 -237zM1235 348q0 129 89 218t218 89t218 -89t89 -218t-89 -218t-218 -89t-218 89t-89 218zM1268 348 q0 -114 80 -194t194 -80q113 0 194 80t81 194q0 112 -81.5 193.5t-193.5 81.5q-114 0 -194 -81t-80 -194z" />
<glyph unicode="&#x26;" horiz-adv-x="1679" d="M117 569q0 126 48.5 239.5t129.5 193t187.5 127t219.5 49.5q-40 70 -40 151q0 123 87 215t226 92q63 0 119 -22t96 -59.5t62.5 -88t23 -105t-26 -114.5t-80.5 -112l-22 24q57 55 79.5 119t10 120.5t-47 103.5t-91.5 74.5t-123 27.5q-121 0 -201 -84.5t-80 -190.5 q0 -108 72 -186q-116 12 -228 -27t-197.5 -115t-138 -190t-52.5 -242q0 -105 31 -197t85.5 -160t127 -117t157 -74t174.5 -25q133 0 247.5 59t181.5 160.5t67 220.5q0 72 -32.5 139t-90.5 117q69 109 133.5 164t150.5 55q95 0 147 -56.5t52 -127.5q0 -99 -90 -174l-21 27 q78 63 78 147q0 59 -43 105.5t-123 46.5q-68 0 -125.5 -46t-115.5 -135q112 -109 112 -262q0 -130 -71 -239t-192.5 -171.5t-264.5 -62.5q-120 0 -229.5 41.5t-194 117t-134.5 192t-50 255.5zM178 569q0 127 55 238.5t143 183.5t202 105t227 12q56 -40 125 -57l-8 -31 q-73 18 -125 55q-143 26 -278.5 -33t-221.5 -186.5t-86 -286.5q0 -117 42.5 -215t113.5 -162t163.5 -99.5t194.5 -35.5q178 0 306 112t128 267q0 100 -72 178q-40 -63 -71 -103.5t-74 -83.5t-92.5 -64t-106.5 -21q-104 0 -172.5 65.5t-68.5 165.5q0 104 85.5 178t233.5 74 q135 0 244 -67q69 101 145 158t172 57q81 0 142.5 -41.5t89.5 -96.5t28 -108q0 -63 -34 -124t-80 -97l-21 26q42 32 72.5 85.5t30.5 109.5q0 36 -14.5 72.5t-41.5 68.5t-72 52t-100 20q-92 0 -164.5 -59.5t-144.5 -169.5q-109 82 -252 82q-134 0 -210 -64t-76 -156 q0 -84 59.5 -141t148.5 -57q45 0 86 17t71.5 40.5t66.5 67.5t58 78t58 92q109 -95 109 -234q0 -171 -136.5 -291t-330.5 -120q-110 0 -208.5 37t-174 104.5t-120 172t-44.5 230.5zM563 573q0 79 68 135t190 56q133 0 238 -78q-42 -70 -71 -112t-69 -86t-83.5 -64.5 t-92.5 -20.5q-79 0 -129.5 48t-50.5 122zM596 573q0 -58 41.5 -97.5t105.5 -39.5q78 0 137 58.5t134 181.5q-86 55 -193 55q-106 0 -165.5 -47t-59.5 -111zM723 1329q0 99 70 172.5t182 73.5q75 0 134.5 -38t85.5 -94.5t10.5 -128.5t-79.5 -134l-22 24q45 42 63 91t9.5 92 t-34.5 78.5t-70.5 56t-96.5 20.5q-95 0 -157 -65t-62 -148q0 -76 47.5 -135t142.5 -84l-8 -31q-107 27 -161 94.5t-54 155.5z" />
<glyph unicode="'" horiz-adv-x="454" d="M229 965l113 632h35l-113 -632h-35zM293 965l113 632h34l-112 -632h-35z" />
<glyph unicode="(" horiz-adv-x="712" d="M82 395q0 191 41.5 375t111 333.5t164.5 284.5t196.5 235.5t211.5 178.5l18 -26q-109 -77 -208.5 -176t-192 -231t-160.5 -279t-108.5 -327t-40.5 -368q0 -286 88 -522.5t227 -366.5l-22 -24q-143 133 -234.5 377.5t-91.5 535.5zM143 395q0 185 40 362.5t106.5 321.5 t157.5 273t189 226t206 173l18 -27q-105 -75 -201 -170t-185.5 -222.5t-154.5 -268.5t-104 -314t-39 -354q0 -277 82 -499.5t215 -344.5l-22 -24q-137 127 -222.5 356.5t-85.5 511.5z" />
<glyph unicode=")" horiz-adv-x="710" d="M-156 -440q105 75 201 170t185.5 222.5t154.5 268.5t104 314t39 354q0 277 -82 499.5t-215 344.5l23 24q137 -127 222 -356t85 -512q0 -230 -59.5 -444.5t-161 -384t-221.5 -300.5t-256 -227zM-121 -492q109 77 208.5 176t192.5 231t161 279t108.5 327t40.5 368 q0 286 -88.5 522.5t-227.5 366.5l23 24q143 -133 234.5 -377.5t91.5 -535.5q0 -191 -41.5 -375t-111 -333.5t-164.5 -284.5t-196.5 -235.5t-211.5 -178.5z" />
<glyph unicode="*" horiz-adv-x="978" d="M252 1403l16 29l301 -164l-245 -236l-23 25l213 205zM281 1456l16 29l262 -142l49 293l33 -6l-57 -336zM344 1012l246 235l151 -305l-30 -14l-131 266l-213 -207zM610 1288l60 336l32 -4l-51 -293l297 43l4 -33zM614 1260l342 49l5 -33l-295 -43l131 -264l-31 -15z" />
<glyph unicode="+" horiz-adv-x="1124" d="M125 702l6 33h428l-76 -430h-34l69 397h-393zM137 764l6 33h392l69 395h35l-76 -428h-426zM512 305l76 430h428l-6 -33h-394l-69 -397h-35zM592 764l76 428h34l-69 -395h395l-6 -33h-430z" />
<glyph unicode="," horiz-adv-x="657" d="M0 -246q17 12 45 32.5t88 80t90 113.5q-33 5 -56.5 30.5t-23.5 61.5q0 38 27.5 65t65.5 27q39 0 67.5 -29.5t28.5 -75.5q0 -55 -29 -113.5t-70.5 -103.5t-83.5 -82t-71 -57l-29 -20l-16 24q11 7 29 19.5t64.5 52t82.5 79t65 95.5t29 106q0 34 -19 55t-48 21 q-26 0 -45 -18.5t-19 -44.5t19 -45t45 -19v29q-14 0 -24.5 10t-10.5 25q0 14 10 24t25 10q16 0 27 -13t11 -34q0 -45 -26.5 -96t-64.5 -90.5t-76 -73t-65 -51.5l-26 -18z" />
<glyph unicode="-" horiz-adv-x="821" d="M147 582l7 32h493l-6 -32h-494zM160 643l6 33h493l-6 -33h-493z" />
<glyph unicode="." horiz-adv-x="518" d="M59 72q0 38 28.5 66t66.5 28t66 -28t28 -66t-28 -66.5t-66 -28.5t-66.5 28.5t-28.5 66.5zM90 72q0 -26 19 -45t45 -19t44.5 19t18.5 45t-18.5 44.5t-44.5 18.5t-45 -18.5t-19 -44.5zM119 72q0 14 10 24t25 10q14 0 24 -9.5t10 -24.5q0 -14 -9.5 -24.5t-24.5 -10.5 q-14 0 -24.5 10t-10.5 25z" />
<glyph unicode="/" horiz-adv-x="1363" d="M-131 -457l1503 2194h39l-1503 -2194h-39zM-55 -457l1503 2194h39l-1503 -2194h-39z" />
<glyph unicode="0" horiz-adv-x="1464" d="M150 647q0 184 49.5 359.5t136 314t217.5 223t283 84.5q246 0 387 -180t141 -496q0 -184 -50 -360t-137 -314.5t-218 -223.5t-281 -85q-244 0 -386 181.5t-142 496.5zM182 647q0 -303 133.5 -474t362.5 -171q113 0 216 53t181.5 145.5t136.5 212.5t88.5 259t30.5 280 q0 303 -132 473t-363 170q-114 0 -217 -53t-181.5 -145t-137 -211.5t-88.5 -258.5t-30 -280zM211 647q0 174 46 340t126 294.5t198.5 207t254.5 78.5q219 0 343 -161.5t124 -453.5q0 -174 -46 -340t-126.5 -295t-199 -207.5t-253.5 -78.5q-217 0 -342 162t-125 454zM244 647 q0 -276 117.5 -430t316.5 -154q165 0 303 129t213.5 332t75.5 428q0 277 -116 429.5t-318 152.5q-126 0 -238 -75.5t-188.5 -199.5t-121 -284t-44.5 -328z" />
<glyph unicode="1" horiz-adv-x="786" d="M14 0l6 33h590l-6 -33h-590zM27 61l6 33h243l250 1419l-262 -90l-10 31l315 109l-264 -1502h-278zM236 1513l337 117l11 -31l-338 -116zM334 61l268 1522l33 -6l-262 -1483h250l-7 -33h-282z" />
<glyph unicode="2" horiz-adv-x="1304" d="M-6 4q21 116 68 216.5t103 171t134.5 135t145.5 105t155 85.5l85 42.5t82.5 41t75 39t72 41.5t62 42.5t55.5 47t43 51t34.5 58.5t19.5 65t8 76q0 135 -104 224t-265 89q-74 0 -144.5 -23t-129 -66t-95.5 -113t-41 -156l-32 2q4 94 45 170t104 122.5t138.5 71.5t154.5 25 q177 0 289 -96t112 -250q0 -43 -8.5 -82t-21 -71t-37 -63.5t-45.5 -55t-58 -50.5t-64.5 -44.5t-74 -43t-76.5 -40.5t-83.5 -41t-84.5 -42q-87 -44 -153 -84t-142 -102.5t-129.5 -130t-98.5 -164t-66 -209.5zM49 -14q109 92 236 92q74 0 204 -37q165 -49 256 -49 q181 0 271 116.5t63 284.5l33 6q19 -117 -17 -216.5t-127.5 -161.5t-222.5 -62q-95 0 -266 51q-119 35 -194 35q-112 0 -213 -86zM61 31q19 85 51.5 159t77 133.5t92 107.5t110 91.5t115.5 75t122 66.5q31 16 84.5 42.5t84.5 42t78.5 41t76.5 44t67 46.5t60.5 52.5t47.5 58 t38.5 67.5t22.5 75.5t9 87.5q0 163 -122 268.5t-308 105.5q-82 0 -162 -27t-148.5 -77.5t-112.5 -132t-48 -180.5l-33 2q5 106 53 193.5t121.5 141.5t159 83.5t170.5 29.5q201 0 332 -113.5t131 -293.5q0 -49 -9.5 -94t-24 -81.5t-41 -72t-50.5 -62t-63.5 -56t-69.5 -49 t-78.5 -46t-81 -42.5t-86 -42.5t-84.5 -42.5q-75 -38 -132.5 -72t-122.5 -83t-112.5 -101t-90.5 -123.5t-70 -153.5q82 39 170 39q84 0 221 -39q158 -47 239 -47q148 0 222 96t51 234l33 6q16 -99 -14.5 -182.5t-106.5 -135t-185 -51.5q-79 0 -247 50q-126 36 -213 36 q-119 0 -224 -75z" />
<glyph unicode="3" horiz-adv-x="1220" d="M-6 -66l16 29q218 -127 447 -127q145 0 268.5 62t199.5 178.5t76 261.5q0 176 -109 294t-284 156q229 37 360.5 167t131.5 286q0 62 -24 123t-69.5 113.5t-123 85t-174.5 32.5q-164 0 -281 -88.5t-156 -220.5l-30 8q41 140 167 237t300 97q103 0 187 -36t134 -94 t76.5 -124.5t26.5 -132.5q0 -147 -105 -273t-295 -184q138 -60 219.5 -174t81.5 -272q0 -118 -47 -219.5t-126 -170t-183.5 -107t-220.5 -38.5q-237 0 -463 131zM27 -12l16 28q201 -118 414 -118q130 0 240 54.5t176.5 156.5t66.5 229q0 184 -133 291.5t-344 113.5h-21l7 33 h20q220 -6 362 -122.5t142 -315.5q0 -140 -70.5 -249t-187.5 -166.5t-258 -57.5q-220 0 -430 123zM301 1278q36 125 144 207t264 82q74 0 135 -19.5t102.5 -51.5t70 -74.5t41.5 -88t13 -92.5q0 -80 -41.5 -157t-117 -140t-195 -101t-262.5 -38l6 33h22q129 3 236.5 39.5 t175.5 94t105.5 127.5t37.5 142q0 53 -19.5 103.5t-57.5 94t-103.5 69.5t-148.5 26q-144 0 -243.5 -75t-133.5 -189z" />
<glyph unicode="4" horiz-adv-x="1333" d="M-12 381l1026 1249l26 -22l-1026 -1250zM33 338q120 86 291 86q90 0 282 -36t264 -40l-77 -442h-281l6 33h246l65 378q-52 6 -235.5 40t-269.5 34q-160 0 -273 -80zM84 401l977 1190l26 -22l-901 -1098q57 14 138 14q94 0 284.5 -34t237.5 -39l78 440h34l-84 -477 q-65 5 -260.5 41.5t-289.5 36.5q-134 0 -240 -52zM500 -156l6 33h592l-6 -33h-592zM821 -94l78 440h19q110 0 177 34t119 95l25 -20q-53 -65 -126 -103t-187 -39l-66 -374h250l-6 -33h-283zM903 375l84 477h35l-80 -444q83 3 131 29t94 79l25 -22q-51 -59 -111 -89t-163 -30 h-15z" />
<glyph unicode="5" horiz-adv-x="1271" d="M-25 -80l19 29q184 -113 409 -113q125 -1 247.5 45.5t219 127.5t156 202t59.5 258q0 136 -62 238t-161 153t-217 51q-186 0 -354 -104l198 729h668l-53 -299h-35l49 266h-602l-174 -633q151 74 303 74q129 0 235 -54t172 -164t66 -257q0 -146 -62 -273.5t-163 -212.5 t-229 -133t-261 -47q-115 0 -227 31.5t-201 85.5zM8 -27l17 29q164 -104 378 -104q114 -1 225.5 41.5t199.5 116t142 182t54 231.5q0 118 -52.5 206t-137.5 131.5t-189 43.5q-185 0 -352 -115l-19 27q173 121 371 121q176 0 294 -110t118 -304q0 -131 -56.5 -246.5 t-148.5 -193t-209.5 -121.5t-239.5 -43q-222 0 -395 108zM221 786l221 811h787l-62 -360h-34l57 328h-721l-217 -787z" />
<glyph unicode="6" horiz-adv-x="1363" d="M137 602q0 123 23.5 256.5t68 267t115 253.5t157.5 212t203.5 146.5t245.5 54.5q128 0 234 -59t164 -168l-29 -17q-55 103 -151 157t-218 54q-124 0 -235.5 -52.5t-195 -141.5t-151 -205t-110.5 -245.5t-65.5 -260.5t-22.5 -252q0 -126 30 -228.5t79 -170t115.5 -113.5 t136.5 -66t145 -20q103 0 197.5 42t166 115t114 179.5t42.5 228.5q0 94 -27.5 174t-73 135t-105 94t-123.5 57t-128 18q-183 0 -339 -117.5t-201 -300.5q2 119 25 245t65.5 249.5t107.5 233t145 193t185.5 132.5t222.5 49q240 0 344 -195l-28 -16q-47 88 -128.5 133 t-187.5 45q-115 0 -219 -51t-182.5 -137.5t-141 -201t-101.5 -239t-58 -254.5q83 121 215.5 192.5t275.5 71.5q85 0 169.5 -32.5t157 -93.5t118 -161t45.5 -223q0 -130 -44.5 -243t-120.5 -190t-176.5 -121t-211.5 -44q-79 0 -154 21t-145.5 70t-123 120t-84.5 179.5 t-32 240.5zM217 418q-20 121 18.5 234.5t115.5 192t179.5 126t208.5 47.5q78 0 152 -28t137 -81t101 -141.5t38 -198.5q0 -157 -68 -280.5t-179.5 -189.5t-243.5 -66q-76 0 -146 21.5t-133 65.5t-110.5 120.5t-69.5 177.5zM250 424q21 -93 65.5 -164t103 -112.5t123.5 -61.5 t134 -20q122 0 226.5 62.5t168.5 179t64 261.5q0 102 -35.5 184.5t-93.5 131.5t-126.5 74.5t-140.5 25.5q-99 0 -196 -44.5t-168.5 -118t-107.5 -179.5t-17 -219z" />
<glyph unicode="7" horiz-adv-x="1138" d="M178 1237l66 360h987v-32h-961l-57 -328h-35zM242 1237l53 299h905l-430 -565q-461 -606 -461 -1045h-33q0 449 469 1065l392 512h-815l-46 -266h-34zM338 -74q0 427 457 1028l448 588l25 -20l-449 -588q-448 -591 -448 -1008h-33z" />
<glyph unicode="8" horiz-adv-x="1411" d="M76 385q0 65 17.5 123t45.5 103t72 85.5t88 70t103.5 57.5t108 47t110.5 40q-314 165 -314 426q0 132 76 237t202.5 161.5t276.5 56.5q217 0 350.5 -116t133.5 -287q0 -310 -469 -492q83 -39 145 -80t116 -95t82.5 -123t28.5 -150q0 -116 -51 -210t-138.5 -154.5 t-202 -93t-243.5 -32.5q-242 0 -390 118.5t-148 307.5zM109 385q0 -174 138 -283.5t367 -109.5q165 0 300.5 52.5t219 158t83.5 246.5q0 68 -23 127t-60 103.5t-95 86.5t-115 72t-133 63q77 26 141 53.5t138 72t124.5 93.5t84.5 119.5t34 149.5q0 155 -125 262.5t-326 107.5 q-140 0 -259 -53.5t-191 -151t-72 -217.5q0 -267 369 -432q-55 -18 -90.5 -29.5t-91 -32.5t-92.5 -38.5t-84.5 -44.5t-79 -53.5t-65 -62t-53 -73.5t-32 -86t-12.5 -100zM137 385q0 64 19 119.5t51.5 97.5t79 79t97 64.5t111 52.5t116 43.5t116.5 38.5q5 1 8 2t7 2.5t8 2.5 q81 -33 139.5 -62t118.5 -69.5t96.5 -83t60 -100t23.5 -123.5q0 -133 -78 -232t-207 -148t-289 -49q-217 0 -347 101.5t-130 263.5zM170 385q0 -144 121 -238t323 -94q152 0 273.5 46.5t194.5 137.5t73 212q0 58 -21 109t-55.5 90.5t-89.5 77t-110 66t-131 60.5 q-223 -70 -319 -119q-217 -108 -252 -276q-7 -34 -7 -72zM369 1337q0 112 66.5 203t179 141t247.5 50q191 0 306.5 -98.5t115.5 -243.5q0 -65 -23 -123t-66.5 -103.5t-92.5 -82t-115 -68t-119.5 -52.5t-119.5 -42q-59 25 -107 50.5t-101 64t-88.5 81t-59 100.5t-23.5 123z M401 1337q0 -71 30 -132.5t84.5 -108.5t110 -80t126.5 -64q76 26 137 51t132 65.5t118.5 84.5t79.5 105.5t32 130.5q0 129 -106.5 219t-282.5 90q-191 0 -326 -104.5t-135 -256.5z" />
<glyph unicode="9" horiz-adv-x="1363" d="M66 35l28 16q55 -103 151 -157t218 -54q124 0 235.5 52.5t195 141.5t151 205t110.5 245.5t65.5 260.5t22.5 252q0 126 -30 228.5t-79 170t-115.5 113.5t-136.5 66t-145 20q-103 0 -197.5 -42t-166 -115t-114 -179.5t-42.5 -228.5q0 -116 41.5 -210t109 -150.5 t146.5 -86.5t160 -30q183 0 339 117.5t201 300.5q-2 -119 -25 -245t-65.5 -249.5t-107.5 -233t-145 -193t-185.5 -132.5t-222.5 -49q-240 0 -344 194l28 17q47 -88 128.5 -133t187.5 -45q115 0 219 51t182.5 137t141 200.5t101.5 239t58 254.5q-83 -121 -215.5 -192.5 t-275.5 -71.5q-85 0 -169.5 32.5t-157 93.5t-118 161t-45.5 223q0 130 44.5 243t120.5 190t176.5 121t211.5 44q79 0 154 -21t145.5 -70t123 -120t84.5 -179.5t32 -240.5q0 -123 -23.5 -256.5t-68 -267t-115 -253.5t-157.5 -212t-203.5 -146.5t-245.5 -54.5 q-128 0 -233.5 59.5t-163.5 168.5zM246 1030q0 118 39.5 219.5t106.5 170.5t156.5 108t188.5 39q76 0 146 -21.5t133 -65.5t110.5 -120.5t69.5 -177.5q20 -121 -18.5 -234.5t-115.5 -192t-179.5 -126t-208.5 -47.5q-62 0 -122 16.5t-115.5 53t-97.5 88t-67.5 126.5 t-25.5 164zM279 1030q0 -83 23.5 -152.5t62 -117.5t90 -81.5t107 -49t112.5 -15.5q99 0 196 44.5t168.5 118.5t107.5 180t17 219q-21 93 -65.5 164t-103 112.5t-123.5 61.5t-134 20q-91 0 -174.5 -37t-146 -102t-100 -160.5t-37.5 -204.5z" />
<glyph unicode=":" horiz-adv-x="518" d="M61 72q0 38 28.5 66t66.5 28t66 -28t28 -66t-28 -66.5t-66 -28.5t-66.5 28.5t-28.5 66.5zM92 72q0 -26 19 -45t45 -19t44.5 19t18.5 45t-18.5 44.5t-44.5 18.5t-45 -18.5t-19 -44.5zM121 72q0 14 10 24t25 10q14 0 24 -9.5t10 -24.5q0 -14 -9.5 -24.5t-24.5 -10.5 q-14 0 -24.5 10t-10.5 25zM190 807q0 38 28.5 66t66.5 28t66 -28t28 -66t-28 -66t-66 -28t-66.5 28t-28.5 66zM221 807q0 -26 19 -45t45 -19t44.5 19t18.5 45t-18.5 44.5t-44.5 18.5t-45 -18.5t-19 -44.5zM250 807q0 14 10 24.5t25 10.5q14 0 24 -10t10 -25 q0 -14 -9.5 -24.5t-24.5 -10.5q-14 0 -24.5 10t-10.5 25z" />
<glyph unicode=";" horiz-adv-x="602" d="M-27 -244q17 12 45 32.5t88.5 80t90.5 113.5q-33 5 -56.5 30.5t-23.5 61.5q0 38 27 65t65 27q39 0 67.5 -29.5t28.5 -75.5q0 -55 -29 -113.5t-70.5 -103.5t-83 -82t-70.5 -57l-29 -20l-17 24q11 7 29 19.5t64.5 52t82.5 79t65 95.5t29 106q0 34 -19 55t-48 21 q-26 0 -45 -18.5t-19 -44.5t19 -45t45 -19v29q-14 0 -24.5 10t-10.5 25q0 14 10 24.5t25 10.5q16 0 27.5 -13.5t11.5 -34.5q0 -45 -26.5 -96t-64.5 -90.5t-76 -73t-65 -51.5l-26 -18zM246 807q0 38 28 66t66 28t66 -28t28 -66t-28 -66t-66 -28t-66 28t-28 66zM276 807 q0 -26 19 -45t45 -19t44.5 19t18.5 45t-18.5 44.5t-44.5 18.5t-45 -18.5t-19 -44.5zM305 807q0 14 10 24.5t25 10.5q14 0 24.5 -10t10.5 -25q0 -14 -10 -24.5t-25 -10.5q-14 0 -24.5 10t-10.5 25z" />
<glyph unicode="&#x3c;" horiz-adv-x="1173" d="M106 709l17 28l776 -448l-16 -29zM111 793l936 448l14 -31l-936 -448zM162 748l911 438l14 -31l-854 -410l699 -403l-19 -29z" />
<glyph unicode="=" horiz-adv-x="1239" d="M135 459l6 33h887l-6 -33h-887zM147 520l7 33h886l-6 -33h-887zM221 948l6 33h887l-6 -33h-887zM233 1010l7 32h886l-6 -32h-887z" />
<glyph unicode="&#x3e;" horiz-adv-x="1173" d="M117 344l854 410l-699 403l19 29l751 -434l-911 -439zM143 289l936 448l15 -30l-936 -449zM305 1210l17 29l776 -448l-17 -29z" />
<glyph unicode="?" horiz-adv-x="1015" d="M203 1212q10 118 77.5 214.5t169 149t212.5 52.5q165 0 266.5 -97t101.5 -241q0 -66 -22.5 -125.5t-54.5 -102t-85 -86t-94 -69.5t-102 -61q-150 -85 -196 -123q-99 -81 -83 -172l13 -62l-31 -6l-13 62q-10 52 5 96t64.5 86t86 66t118.5 70q4 2 6.5 3.5t6 3.5t6.5 4 q61 34 100.5 59.5t90 66.5t80 80t50.5 94t21 116q0 129 -93 217t-242 88q-106 0 -200 -48t-155.5 -137t-70.5 -200zM217 72q0 38 28 66t66 28t66.5 -28t28.5 -66t-28.5 -66.5t-66.5 -28.5t-66 28.5t-28 66.5zM248 72q0 -26 18.5 -45t44.5 -19t45 19t19 45t-19 44.5t-45 18.5 t-44.5 -18.5t-18.5 -44.5zM264 1208q13 159 127.5 259t270.5 100q140 0 223.5 -78.5t83.5 -198.5q0 -47 -12 -89.5t-37.5 -78.5t-52 -64.5t-69.5 -59t-75 -50.5t-82 -49q-144 -83 -190 -119q-128 -97 -121 -210q1 -14 4 -29l12 -64l-33 -6l-12 64q-9 39 -2.5 75t19 65.5 t37 58t51 52t61 46.5t67 42.5t68.5 40.5q16 9 23 13q60 34 96.5 57.5t82.5 59.5t71 69t43 79t18 97q0 104 -75.5 174t-198.5 70q-143 0 -248 -92t-117 -238zM276 72q0 14 10 24t25 10q14 0 24.5 -9.5t10.5 -24.5q0 -14 -10 -24.5t-25 -10.5q-14 0 -24.5 10t-10.5 25z" />
<glyph unicode="@" horiz-adv-x="2091" d="M86 422q0 139 41 274t112.5 248.5t172.5 210.5t217.5 165t250.5 106t269 38q173 0 323 -58.5t254 -159t163 -239t59 -294.5q0 -125 -34 -231.5t-90.5 -178t-130 -111.5t-153.5 -40q-89 0 -154 43.5t-90 117.5q-67 -75 -159.5 -118t-192.5 -43q-149 0 -244.5 99t-95.5 247 q0 119 65.5 222.5t172 163.5t225.5 60q103 0 184 -51.5t123 -138.5l49 176h33l-82 -293q-15 119 -100.5 196.5t-206.5 77.5q-108 0 -207.5 -56.5t-161 -152.5t-61.5 -204q0 -132 87.5 -223t219.5 -91q109 0 211 58.5t162 154.5q-1 -96 61.5 -154.5t161.5 -58.5 q73 0 140.5 37.5t120 104t83.5 167.5t31 220q0 199 -97 363t-273 260t-396 96q-156 0 -309.5 -52t-282 -147t-227.5 -219t-155 -278t-56 -314q0 -211 94 -384t264.5 -274.5t384.5 -101.5q238 0 451 109l14 -31q-220 -111 -465 -111q-169 0 -314.5 61.5t-246 168t-158 252.5 t-57.5 311zM147 422q0 130 38.5 257t106.5 234t163 198.5t205 155.5t236 100t253 36q160 0 298.5 -53.5t234 -146t150 -219.5t54.5 -271q0 -111 -29.5 -206.5t-78 -158.5t-111 -99t-127.5 -36q-105 0 -159.5 74t-22.5 184l129 459h33l-131 -467q-27 -96 17 -156.5t134 -60.5 q124 0 218.5 130t94.5 337q0 136 -52.5 257t-144 209t-223.5 139.5t-284 51.5q-183 0 -360 -77t-311 -205t-216 -304t-82 -362q0 -145 50.5 -273.5t139.5 -222t216.5 -148t275.5 -54.5q222 0 424 102l14 -31q-213 -104 -438 -104q-208 0 -372 96.5t-253.5 263t-89.5 371.5z M666 498q0 102 57 191.5t149.5 141.5t194.5 52q123 0 202 -82t79 -205q0 -102 -57.5 -191t-151 -140.5t-195.5 -51.5q-123 0 -200.5 81t-77.5 204zM698 498q0 -107 70 -179.5t176 -72.5q92 0 178 48t139.5 130t53.5 172q0 107 -71 180.5t-177 73.5q-141 0 -255 -107 t-114 -245z" />
<glyph unicode="A" d="M-152 0l7 33h591l-6 -33h-592zM-139 61l6 33h227l924 1528l29 -16l-932 -1545h-254zM147 61l285 471h879l119 -471h-304l7 33h256l-103 406h-835l-244 -406h252l-6 -33h-306zM451 561l602 998l252 -998h-854zM508 594h756l-224 881zM1073 1602l31 8l381 -1516h239l-6 -33 h-258zM1114 0l6 33h592l-6 -33h-592z" />
<glyph unicode="B" horiz-adv-x="1662" d="M-20 0l6 33h964q111 0 213 39.5t173.5 104t114 150t42.5 175.5q0 130 -81 227.5t-208 130.5q140 35 234 144.5t94 238.5q0 137 -92.5 229.5t-225.5 92.5h-960l6 32h954q149 0 250 -100t101 -254q0 -120 -72 -224.5t-190 -160.5q102 -51 162.5 -144t60.5 -212 q0 -131 -75 -246t-208.5 -185.5t-292.5 -70.5h-970zM-8 61l6 33h244l247 1409h-247l6 33h280l-258 -1475h-278zM299 61l139 785h656q157 0 263.5 -97t106.5 -247q0 -114 -66.5 -215t-186 -163.5t-261.5 -62.5h-651zM338 94h612q199 0 340.5 124.5t141.5 283.5 q0 129 -94 217.5t-230 93.5h-643zM442 874l117 662h655q124 0 206.5 -82.5t82.5 -210.5q0 -143 -115.5 -253t-277.5 -116h-668zM481 907h613q152 0 264 103t112 233q0 112 -74 186t-182 74h-628z" />
<glyph unicode="C" horiz-adv-x="1691" d="M123 741q0 179 73.5 343.5t195.5 283.5t288 189.5t344 70.5q174 0 322.5 -68.5t222.5 -189.5l41 227h35l-62 -340q-29 101 -113 179t-200.5 118.5t-245.5 40.5q-171 0 -330.5 -68.5t-277.5 -183.5t-189 -273t-71 -329q0 -152 56 -288.5t153 -235.5t233 -157t289 -58 q169 0 314.5 52.5t293.5 176.5l23 -24q-150 -128 -304 -183t-327 -55q-161 0 -303.5 60.5t-243 164t-159 246t-58.5 301.5zM184 741q0 166 68.5 319.5t182 264t268.5 176.5t321 66q143 0 265 -47.5t198.5 -139t81.5 -209.5l-45 -256h-35l45 263q-7 104 -79.5 186t-186 126 t-244.5 44q-127 0 -248.5 -40.5t-221.5 -115t-176.5 -172t-118.5 -218t-42 -247.5q0 -186 87.5 -341.5t241.5 -246t341 -90.5q162 0 295.5 48.5t273.5 167.5l21 -25q-142 -122 -282.5 -172.5t-307.5 -50.5q-148 0 -279 55.5t-224 150.5t-146.5 226t-53.5 278zM1552 915 l121 682h35l-123 -682h-33z" />
<glyph unicode="D" horiz-adv-x="1775" d="M-20 0l6 33h811q191 0 355.5 71.5t277.5 193t177 287.5t64 351q0 197 -88 341t-238.5 216t-345.5 72h-745l6 32h739q206 0 364 -75t249.5 -226t91.5 -360q0 -193 -66 -364.5t-183 -298t-288 -200t-370 -73.5h-817zM-8 61l6 33h244l247 1409h-247l6 33h280l-258 -1475 h-278zM299 61l260 1475h440q190 0 334 -67.5t226.5 -204.5t82.5 -328q0 -181 -61.5 -341.5t-170 -278.5t-268 -186.5t-345.5 -68.5h-498zM338 94h459q177 0 330 66.5t258 180t165 268t60 327.5q0 269 -168 418t-443 149h-413z" />
<glyph unicode="E" horiz-adv-x="1501" d="M-20 0l6 33h1271l58 327h35l-66 -360h-1304zM-8 61l6 33h244l247 1409h-247l6 33h280l-258 -1475h-278zM254 1565l6 32h1290l-61 -360h-35l57 328h-1257zM299 61l131 740h723l-6 -33h-690l-119 -674h868l45 266h35l-53 -299h-934zM434 829l125 707h920l-54 -299h-34 l47 266h-852l-113 -641h692l-6 -33h-725z" />
<glyph unicode="F" horiz-adv-x="1449" d="M-20 0l6 33h589l-6 -33h-589zM-8 61l6 33h244l247 1409h-247l6 33h280l-258 -1475h-278zM254 1565l6 32h1290l-61 -360h-35l57 328h-1257zM299 61l123 695h702l-6 -33h-669l-111 -629h250l-6 -33h-283zM426 784l133 752h920l-54 -299h-34l47 266h-852l-121 -686h672 l-7 -33h-704z" />
<glyph unicode="G" horiz-adv-x="1740" d="M123 741q0 179 73.5 343.5t195.5 283.5t288 189.5t344 70.5q175 0 323 -68.5t222 -189.5l41 227h35l-62 -342q-42 153 -200.5 246.5t-358.5 93.5q-171 0 -330.5 -68.5t-277.5 -183.5t-189 -273t-71 -329q0 -202 94.5 -372t258 -268.5t357.5 -98.5q373 0 607 283l-50 -285 h-34l30 180q-228 -211 -553 -211q-154 0 -292 60.5t-236.5 163.5t-156.5 246t-58 302zM184 741q0 166 68.5 319.5t182 264t268.5 176.5t321 66q143 0 265 -47.5t198.5 -139t81.5 -209.5l-31 -178h-35l33 183q-7 104 -80 186.5t-187 127t-245 44.5q-127 0 -248.5 -40.5 t-221.5 -115t-176.5 -172t-118.5 -218t-42 -247.5q0 -139 51 -264.5t138 -216t207 -144t253 -53.5q366 0 586 293l55 314h-585l6 32h618l-61 -354v-2q-229 -315 -619 -315q-188 0 -345 94t-247 257t-90 359zM934 731l6 33h678l-131 -764h-35l57 332l70 399h-645zM1567 993 l106 604h35l-106 -604h-35z" />
<glyph unicode="H" horiz-adv-x="1902" d="M-23 0l7 33h589l-6 -33h-590zM-10 61l6 33h246l247 1409h-249l6 33h282l-258 -1475h-280zM252 1565l6 32h592l-6 -32h-592zM299 61l131 740h1094l-129 -740h-281l6 33h246l119 674h-1028l-119 -674h248l-6 -33h-281zM434 829l125 707h279l-7 -33h-245l-113 -641h1028 l113 641h-248l6 33h281l-123 -707h-1096zM1102 0l6 33h592l-6 -33h-592zM1378 1565l6 32h592l-6 -32h-592zM1423 61l260 1475h281l-6 -33h-248l-248 -1409h250l-6 -33h-283z" />
<glyph unicode="I" horiz-adv-x="778" d="M-20 0l6 33h589l-6 -33h-589zM-8 61l6 33h244l245 1409h-247l6 33h280l-256 -1475h-278zM252 1565l6 32h592l-6 -32h-592zM299 61l258 1475h281l-7 -33h-247l-246 -1409h250l-6 -33h-283z" />
<glyph unicode="J" horiz-adv-x="1300" d="M19 156q1 69 24 133l31 -13q-21 -59 -22 -122v-5q0 -59 22 -115q23 -58 66.5 -104t118 -74t169.5 -28q79 0 148 21.5t120.5 57t95.5 86.5t73.5 104t53.5 115.5t38 116t24 109.5l197 1127h-639l6 32h672l-203 -1165q-11 -57 -25.5 -112t-40 -120t-57 -120.5t-78 -109.5 t-101 -91.5t-127.5 -60.5t-157 -23q-103 0 -183.5 31t-128 82t-72.5 116q-25 62 -25 127v5zM102 266l31 -10q-18 -49 -19 -100v-3q0 -49 19 -96q19 -48 55.5 -85.5t98.5 -60t141 -22.5q80 0 149 25t118.5 70t88 98.5t65.5 120t43.5 125t27.5 121.5l186 1054h-580l6 33h613 l-193 -1094q-15 -81 -36.5 -152.5t-63.5 -154t-96.5 -141.5t-139.5 -98t-188 -39q-87 0 -155.5 25.5t-109 67.5t-61.5 95q-21 52 -21 107q0 59 21 114z" />
<glyph unicode="K" horiz-adv-x="1675" d="M-20 0l6 33h589l-6 -33h-589zM-8 61l6 33h244l247 1409h-247l6 33h280l-258 -1475h-278zM254 1565l6 32h592l-6 -32h-592zM299 61l74 414l409 369l461 -811h299l-6 -33h-311l-451 793l-373 -334l-63 -365h250l-6 -33h-283zM381 520l178 1016h281l-6 -33h-248l-158 -895 l993 895h-213l6 33h291l-737 -666v-2zM803 862l747 674h256l-6 -33h-239l-717 -647l434 -762h276l-6 -33h-288zM1221 1565l6 32h592l-7 -32h-591z" />
<glyph unicode="L" horiz-adv-x="1396" d="M-23 0l7 33h1228l58 327h35l-66 -360h-1262zM-10 61l6 33h244l247 1409h-247l6 33h280l-258 -1475h-278zM252 1565l6 32h592l-6 -32h-592zM297 61l260 1475h281l-7 -33h-247l-248 -1409h825l45 266h35l-53 -299h-891z" />
<glyph unicode="M" horiz-adv-x="2222" d="M-20 0l6 33h587l-6 -33h-587zM-8 61l6 33h244l247 1409h-247l6 33h280l-258 -1475h-278zM254 1565l6 32h320l469 -1255l917 1255h328l-6 -32h-306l-942 -1291l-483 1291h-303zM299 61l252 1434l471 -1257l-31 -11l-428 1143l-225 -1276h248l-6 -33h-281zM1049 236 l915 1253l-250 -1428h-280l6 33h246l221 1262l-832 -1141zM1421 0l6 33h592l-6 -33h-592zM1743 61l260 1475h278l-6 -33h-245l-248 -1409h250l-7 -33h-282z" />
<glyph unicode="N" horiz-adv-x="1900" d="M-23 0l7 33h589l-6 -33h-590zM-10 61l6 33h244l247 1409h-247l6 33h280l-258 -1475h-278zM252 1565l6 32h313l826 -1460l239 1366h-247l6 33h280l-262 -1495l-860 1524h-301zM297 61l254 1446l858 -1513l-29 -17l-811 1436l-233 -1319h250l-6 -33h-283zM1401 1565l6 32 h592l-6 -32h-592zM1436 -2l270 1538h281l-7 -33h-247l-265 -1511z" />
<glyph unicode="O" horiz-adv-x="1861" d="M123 741q0 180 73.5 344.5t195.5 283t288 189t344 70.5q161 0 303 -60.5t243 -164t159.5 -246t58.5 -301.5q0 -179 -73.5 -344t-196 -283.5t-288.5 -189t-343 -70.5q-161 0 -303.5 60.5t-243 164t-159 246t-58.5 301.5zM156 741q0 -152 56 -288.5t153 -235.5t233 -157 t289 -58q170 0 329.5 68.5t277.5 183t189.5 273t71.5 329.5q0 151 -56.5 288t-153.5 236t-233 157t-288 58q-171 0 -330.5 -68.5t-277.5 -183t-189 -273t-71 -329.5zM184 741q0 167 68.5 320.5t182 264t268.5 176t321 65.5q197 0 358.5 -94.5t252.5 -257.5t91 -359 q0 -223 -115.5 -413.5t-309 -301t-414.5 -110.5q-148 0 -279 55.5t-224 150.5t-146.5 226t-53.5 278zM217 741q0 -186 87.5 -341.5t241.5 -246t341 -90.5q126 0 247.5 40.5t221.5 114.5t176.5 171.5t119 218.5t42.5 248q0 186 -87.5 341.5t-242 246t-340.5 90.5 q-127 0 -248.5 -40.5t-221.5 -114.5t-176.5 -171.5t-118.5 -218.5t-42 -248z" />
<glyph unicode="P" horiz-adv-x="1634" d="M-20 0l6 33h589l-6 -33h-589zM-8 61l6 33h244l247 1409h-247l6 33h280l-258 -1475h-278zM254 1565l6 32h916q130 0 238.5 -56.5t172.5 -159.5t64 -230q0 -109 -49 -211t-133 -177.5t-203 -121t-252 -45.5h-588l-88 -502h250l-6 -33h-283l100 568h615q125 0 238 43.5 t192.5 115.5t126.5 167t47 196q0 116 -60 211.5t-161 149t-221 53.5h-922zM403 657l156 879h617q174 0 293.5 -109t119.5 -276q0 -97 -44 -187t-119.5 -157.5t-183 -108.5t-228.5 -41h-611zM442 690h572q113 0 214.5 38.5t173 102.5t113 148t41.5 172q0 149 -111 250.5 t-269 101.5h-590z" />
<glyph unicode="Q" horiz-adv-x="1859" d="M123 741q0 180 73.5 344.5t195.5 283t288 189t344 70.5q161 0 303 -60.5t243 -164t159.5 -246t58.5 -301.5q0 -198 -88 -376t-238 -301.5t-336 -176.5q72 -31 248 -123q59 -29 100 -48t94.5 -38.5t94 -27t88.5 -9.5h11q41 0 77 11q40 12 82.5 38.5t81.5 67.5l25 -23 q-59 -62 -126 -92.5t-128 -35.5h-22q-52 0 -115 16q-77 20 -135 45t-142 67q-18 9 -86 44t-97.5 49.5t-79.5 35t-91 31.5q152 23 289.5 98.5t239 187t161 258t59.5 302.5q0 151 -56.5 288t-153.5 236t-233 157t-288 58q-171 0 -330.5 -68.5t-277.5 -183t-189 -273 t-71 -329.5q0 -152 56 -288.5t153 -235.5t233 -157t289 -58q29 -1 59.5 -6t67 -17t61.5 -21t69.5 -30t64.5 -31t71.5 -36.5t67.5 -34.5q69 -35 120 -57t117.5 -44.5t121.5 -26.5q17 -1 34 -1q39 0 81 6q60 8 117 40t109 87l25 -23q-48 -50 -102 -82.5t-104 -46.5 q-48 -15 -105 -15q-2 0 -4 1q-58 0 -107 9t-109 30.5t-105 41.5t-104 50q-17 9 -68 35.5t-70.5 36t-62.5 30t-67 29.5t-58.5 20.5t-63 16.5t-56.5 6q-161 0 -303.5 60.5t-243 164t-159 246t-58.5 301.5zM184 741q0 167 68.5 320.5t182 264t268.5 176t321 65.5 q197 0 358.5 -94.5t252.5 -257.5t91 -359q0 -223 -115.5 -413.5t-309 -301t-414.5 -110.5q-148 0 -279 55.5t-224 150.5t-146.5 226t-53.5 278zM217 741q0 -186 87.5 -341.5t241.5 -246t341 -90.5q126 0 247.5 40.5t221.5 114.5t176.5 171.5t119 218.5t42.5 248 q0 186 -87.5 341.5t-242 246t-340.5 90.5q-127 0 -248.5 -40.5t-221.5 -114.5t-176.5 -171.5t-118.5 -218.5t-42 -248z" />
<glyph unicode="R" horiz-adv-x="1714" d="M-20 0l6 33h589l-6 -33h-589zM-8 61l6 33h244l247 1409h-247l6 33h280l-258 -1475h-278zM254 1565l6 32h963q188 0 318 -119.5t130 -299.5q0 -138 -78 -258.5t-216.5 -193.5t-303.5 -73h-53l297 -559h258l-6 -33h-271l-333 625h108q116 0 221.5 41t180.5 108.5t119 157.5 t44 185q0 163 -121.5 275t-293.5 112h-969zM299 61l111 625h524l332 -625h-289l6 33h229l-299 559h-477l-98 -559h250l-6 -33h-283zM414 715l145 821h664q163 0 275 -102t112 -256q0 -90 -41.5 -175t-112 -148.5t-171 -101.5t-212.5 -38h-659zM453 748h620q104 0 198.5 36.5 t161 95.5t105.5 137.5t39 160.5q0 137 -103.5 231t-250.5 94h-637zM965 0l6 33h592l-7 -33h-591z" />
<glyph unicode="S" horiz-adv-x="1380" d="M25 0l110 625h35l-111 -625h-34zM88 0l51 295q78 -131 224.5 -212t332.5 -81q216 0 342.5 109t126.5 274q0 40 -9 77t-23 67t-38 59t-45.5 51t-54.5 45t-57.5 37.5t-61.5 33t-58 28t-56.5 25t-48.5 21.5q-72 33 -119 58t-102 62.5t-87 74.5t-53.5 88.5t-21.5 110.5 q0 147 112 245.5t306 98.5q187 0 329 -87.5t180 -203.5l-53 -303h-35l54 303q-39 102 -171.5 180t-303.5 78q-178 0 -282 -89.5t-104 -221.5q0 -44 12 -83t38.5 -72t55.5 -59t75 -54t85.5 -48t98.5 -47q16 -7 49 -22t57 -26t60 -29.5t63.5 -35t61 -40.5t57.5 -47.5t48.5 -55 t40 -64t25 -72.5t9.5 -83q0 -178 -136.5 -297t-365.5 -119q-165 0 -306 65.5t-230 174.5l-37 -209h-35zM147 338l52 287h34l-51 -281q65 -126 201 -203.5t313 -77.5q188 0 298 93t110 229q0 42 -12.5 80t-30 67t-50.5 58.5t-58 48t-69 42t-67.5 35t-69.5 31.5t-61 27 q-51 24 -87.5 42.5t-83.5 45.5t-79.5 52.5t-66.5 60.5t-54.5 71t-33.5 81.5t-13 95.5q0 172 130 288.5t350 116.5q151 0 284.5 -61.5t214.5 -155.5l33 186h35l-49 -270q-59 111 -201 189.5t-317 78.5q-204 0 -325.5 -107.5t-121.5 -264.5q0 -53 14.5 -100t44.5 -85.5 t63.5 -69.5t84 -62t91.5 -52t101 -49q17 -8 61 -28t71.5 -33t71 -37t72 -45t62 -52.5t53 -63t33 -73.5t13.5 -88q0 -153 -118 -253.5t-323 -100.5q-191 0 -336.5 85t-212.5 222zM1233 973l110 624h35l-110 -624h-35z" />
<glyph unicode="T" horiz-adv-x="1499" d="M152 1237l65 360h1401l-62 -360h-34l57 328h-1335l-58 -328h-34zM215 1237l53 299h623l-258 -1475h-281l6 33h246l248 1409h-557l-45 -266h-35zM340 0l6 33h592l-6 -33h-592zM662 61l260 1475h624l-53 -299h-35l49 266h-559l-248 -1409h250l-6 -33h-282z" />
<glyph unicode="U" horiz-adv-x="1853" d="M203 1503l6 33h278l-168 -946q-8 -49 -8 -95q0 -107 43 -202q62 -136 191 -213.5t293 -77.5q105 0 203.5 34t176 92t139 133t100 158.5t52.5 166.5l168 950h281l-6 -33h-248l-162 -923q-15 -86 -55 -173t-105 -165.5t-146 -139.5t-184.5 -97t-213.5 -36q-173 0 -309.5 83 t-202.5 228q-47 102 -47 217q0 48 8 99l162 907h-246zM215 1565l6 32h590l-6 -32h-590zM348 586l170 950h281l-6 -33h-248l-164 -923q-7 -43 -7 -84q0 -92 38 -176q54 -120 167.5 -188.5t258.5 -68.5q119 0 227.5 47t186 123.5t129 171t67.5 191.5l160 907h-248l6 33h281 l-166 -946q-18 -102 -72 -200.5t-135 -179t-195.5 -130t-240.5 -49.5q-115 0 -214.5 43.5t-166.5 117.5t-97 178q-19 64 -19 131q0 42 7 85zM1372 1565l6 32h592l-6 -32h-592z" />
<glyph unicode="V" horiz-adv-x="1779" d="M104 1503l7 33h256l389 -1540l-31 -8l-383 1515h-238zM117 1565l6 32h590l-6 -32h-590zM397 1536h303l-6 -33h-256l348 -1382l836 1382h-254l6 33h305l-903 -1499zM782 -6l932 1542h252l-6 -33h-227l-922 -1528zM1380 1565l6 32h592l-6 -32h-592z" />
<glyph unicode="W" horiz-adv-x="2508" d="M117 1503l6 33h252l237 -1538l-32 -6l-234 1511h-229zM129 1565l6 32h586l-6 -32h-586zM403 1536h306l-7 -33h-260l209 -1360l686 1258l29 -17l-731 -1341zM639 -6l731 1343l262 -1339l-33 -6l-243 1247l-688 -1262zM1393 1380l32 6l242 -1241l686 1358h-258l6 33h307 l-755 -1493zM1659 -6l780 1542h252l-6 -33h-227l-770 -1523zM2107 1565l7 32h589l-6 -32h-590z" />
<glyph unicode="X" horiz-adv-x="1570" d="M-115 0l6 33h590l-6 -33h-590zM-102 61l6 33h229l627 742l-328 667h-244l7 33h260l346 -707l-649 -768h-254zM188 61l627 742l365 -742h-301l6 33h241l-319 649l-547 -649h234l-7 -33h-299zM201 1565l6 32h592l-6 -32h-592zM485 1536h301l-6 -33h-241l288 -588l496 588 h-233l6 33h299l-574 -682zM834 827l598 709h256l-7 -33h-233l-576 -682l359 -727h246l-7 -33h-260zM866 0l6 33h592l-6 -33h-592zM1102 1565l6 32h592l-6 -32h-592z" />
<glyph unicode="Y" horiz-adv-x="1646" d="M115 1503l6 33h258l420 -920l-99 -555h-280l6 33h246l92 518l-408 891h-241zM127 1565l6 32h588l-6 -32h-588zM408 0l6 33h592l-7 -33h-591zM408 1536h301l-7 -33h-241l362 -796l645 796h-237l6 33h301l-721 -891zM729 61l98 553l744 922h258l-6 -33h-234l-731 -905 l-90 -504h250l-6 -33h-283zM1243 1565l6 32h592l-6 -32h-592z" />
<glyph unicode="Z" horiz-adv-x="1476" d="M-23 80l1434 1423h-1034l-45 -266h-35l53 299h1141l-1493 -1479zM10 0v33h1239l58 327h34l-65 -360h-1266zM43 61l1493 1479l23 -22l-1436 -1424h1075l45 266h35l-53 -299h-1182zM233 1237l66 360h1227v-32h-1200l-58 -328h-35z" />
<glyph unicode="[" horiz-adv-x="733" d="M23 -483l395 2246h450l-6 -32h-418l-383 -2182h414l-6 -32h-446zM94 -422l375 2124h387l-6 -33h-354l-363 -2058h354l-6 -33h-387z" />
<glyph unicode="\" horiz-adv-x="1357" d="M252 1749h33l749 -2218h-33zM317 1749h35l748 -2218h-33z" />
<glyph unicode="]" horiz-adv-x="735" d="M-143 -483l6 32h418l383 2182h-414l6 32h446l-395 -2246h-450zM-131 -422l6 33h354l363 2058h-354l6 33h387l-375 -2124h-387z" />
<glyph unicode="^" horiz-adv-x="1177" d="M152 889l567 737l24 -20l-567 -738zM201 852l551 715l301 -723l-29 -13l-281 674l-518 -674zM768 1604l31 12l311 -748l-31 -12z" />
<glyph unicode="_" horiz-adv-x="1423" d="M-2 -272l6 32h1096l-6 -32h-1096zM10 -211l6 33h1096l-6 -33h-1096z" />
<glyph unicode="`" horiz-adv-x="305" d="M-39 1575l21 24l413 -321l-20 -25zM-2 1622l20 27l414 -322l-20 -27z" />
<glyph unicode="a" horiz-adv-x="1265" d="M25 328q0 55 15.5 106.5t51.5 101.5t90.5 87t138.5 59.5t189 22.5q169 0 401 -66l17 82q8 39 8 73q0 36 -9 66q-17 58 -62 90t-103 46t-135 14q-105 0 -210.5 -23.5t-160.5 -50.5l-14 31q58 27 168 51t217 24q53 0 98.5 -6.5t89 -21t73.5 -39t52 -61.5q22 -36 26 -86 l2 -28q0 -39 -7 -85l-23 -119q-241 76 -428 76q-97 0 -175.5 -21t-129.5 -55t-85 -79.5t-48.5 -92.5t-14.5 -96q0 -57 20.5 -110.5t62 -100.5t115 -76t169.5 -29q231 0 438 148l-22 -127h307l-6 -33h-342l16 90q-190 -110 -391 -110q-83 0 -151.5 21.5t-113.5 57t-76 81.5 t-44.5 93.5t-13.5 94.5zM86 328q0 59 22.5 112t69 100t132.5 75t200 28q177 0 424 -76l-66 -366q-205 -160 -444 -160q-90 0 -158.5 25.5t-106 68t-55.5 91t-18 102.5zM119 328q0 -49 16 -92t50 -80.5t95.5 -59.5t143.5 -22q216 0 414 145l57 326q-213 65 -385 65 q-105 0 -184 -25.5t-122.5 -68t-64 -89.5t-20.5 -99zM215 1022q62 30 180.5 56t231.5 26q56 0 107 -8.5t102 -27.5t89 -49.5t66.5 -74.5t34.5 -104q2 -22 3 -46q0 -41 -7 -89l-111 -611h248l-6 -33h-281l117 650q8 41 8 77q1 16 -1 31q-6 48 -20.5 85.5t-42.5 65.5t-60.5 47 t-74 31t-83.5 17.5t-88 5.5q-111 0 -226 -25t-172 -55z" />
<glyph unicode="b" horiz-adv-x="1505" d="M-82 0l6 33h312l67 389q28 -177 161.5 -293.5t315.5 -116.5q150 0 282.5 76t212 206.5t79.5 280.5q0 203 -140.5 346.5t-343.5 143.5q-160 0 -298.5 -86t-211.5 -225l150 860h-309l6 33h344l-131 -750q87 94 203.5 147.5t246.5 53.5q145 0 263.5 -69.5t185.5 -189.5 t67 -264q0 -121 -49 -231.5t-131.5 -190t-194 -126.5t-231.5 -47q-157 0 -281.5 80.5t-187.5 215.5l-47 -276h-346zM-70 61l7 33h245l254 1458h-248l7 33h282l-266 -1524h-281zM326 502q0 145 74.5 268t200 194.5t269.5 71.5q194 0 324.5 -133.5t130.5 -327.5 q0 -144 -74.5 -267.5t-200 -195t-270.5 -71.5q-194 0 -324 133t-130 328zM358 502q0 -179 122 -303.5t300 -124.5q134 0 252 68t189 184t71 249q0 179 -122 304t-300 125q-134 0 -252 -68t-189 -184.5t-71 -249.5z" />
<glyph unicode="c" horiz-adv-x="1230" d="M76 500q0 163 83 301t222.5 217.5t300.5 79.5q103 0 199 -38t153 -106l23 121h35l-39 -217q-36 93 -142.5 150t-228.5 57q-112 0 -217.5 -45t-183.5 -121t-125 -181t-47 -218q0 -133 62.5 -244.5t176.5 -177.5t256 -66q101 0 214.5 36.5t221.5 115.5l21 -25 q-112 -83 -232 -121t-225 -38q-231 0 -379.5 150t-148.5 370zM137 500q0 145 74.5 269t200 195.5t270.5 71.5q141 0 248 -71t110 -181l-34 -196h-35l35 203q-7 90 -104 151.5t-220 61.5q-134 0 -252 -68t-189 -185t-71 -251q0 -180 122.5 -303t311.5 -123q212 0 400 139 l18 -27q-196 -145 -418 -145q-206 0 -336.5 132t-130.5 327zM1034 588l35 196l51 291h35l-86 -487h-35z" />
<glyph unicode="d" horiz-adv-x="1501" d="M76 502q0 162 83 299.5t222.5 217t300.5 79.5q159 0 284.5 -82.5t186.5 -220.5l133 757h-250l6 33h283l-166 -940q-25 180 -159 300t-318 120q-150 0 -282.5 -76t-211.5 -206.5t-79 -280.5q0 -133 63.5 -245.5t175 -178.5t244.5 -66q160 0 299.5 88t212.5 230l-51 -297 h307l-6 -33h-340l30 182q-86 -95 -204 -148.5t-248 -53.5q-145 0 -263.5 69.5t-185.5 189t-67 263.5zM137 502q0 144 74.5 267.5t200 195t270.5 71.5q194 0 324.5 -133.5t130.5 -327.5q0 -144 -74.5 -267.5t-200 -195t-270.5 -71.5q-194 0 -324.5 133.5t-130.5 327.5z M170 502q0 -179 122 -303.5t300 -124.5q134 0 252 68t189 184t71 249q0 179 -122 304t-300 125q-134 0 -252 -68t-189 -184.5t-71 -249.5zM1049 1614l6 33h342l-273 -1553h248l-6 -33h-281l273 1553h-309z" />
<glyph unicode="e" horiz-adv-x="1177" d="M76 500q0 164 84 302t226 217t308 79q169 0 269 -83t100 -216q0 -120 -84.5 -206t-218 -125.5t-299.5 -39.5q-141 0 -289 27q15 -165 134.5 -273t303.5 -108q192 0 359 125l18 -27q-172 -131 -377 -131q-212 0 -341.5 130t-131.5 325q172 -35 324 -35q156 0 283 37.5 t206.5 115.5t79.5 185q0 119 -89.5 192.5t-246.5 73.5q-116 0 -224 -45t-187 -120.5t-126.5 -180.5t-47.5 -219q0 -100 36.5 -189.5t101 -155.5t159 -104.5t204.5 -38.5q215 0 396 138l20 -25q-188 -145 -416 -145q-158 0 -281 70t-188 187.5t-65 262.5zM137 524 q7 141 83.5 259t202.5 185.5t271 67.5t226 -65t81 -172q0 -98 -73 -169t-193.5 -106t-273.5 -35q-156 0 -324 35zM172 551q163 -29 289 -29q219 0 363.5 75.5t144.5 201.5q0 90 -73 147.5t-202 57.5q-199 0 -349.5 -131.5t-172.5 -321.5z" />
<glyph unicode="f" horiz-adv-x="823" d="M-588 -283l33 -4q-2 -14 -2 -29q0 -38 13 -77q19 -54 58 -99.5t106.5 -74.5t150.5 -29q73 0 134 21.5t105.5 61.5t78.5 89.5t58.5 115t40.5 126.5t29 135l189 1061h405l-6 -33h-371l-184 -1034q-16 -91 -37 -165.5t-59.5 -154t-88 -133t-125 -88.5t-169.5 -35 q-91 0 -165 32t-117 83t-63 112q-16 45 -16 89q0 15 2 30zM-526 -291l32 -4q-1 -11 -1 -22q0 -42 21 -85q27 -54 92 -93.5t153 -39.5q74 0 133.5 27.5t99 72t70.5 111.5t49 134.5t33 152.5l180 1018h-242l6 33h275l-187 -1057q-16 -89 -34.5 -158t-51.5 -140.5t-76 -118.5 t-108.5 -77t-146.5 -30q-76 0 -137.5 26t-97 67t-52.5 89q-12 35 -12 69q0 13 2 25zM106 1042l7 33h239l21 111q16 91 37 165t59.5 153.5t88 133.5t125 88.5t169.5 34.5q90 0 164 -32.5t117 -83.5t63 -111q16 -46 16 -89q0 -15 -2 -30l-32 4q1 13 1 26q0 39 -13 80 q-19 54 -58 100t-106 75t-150 29q-73 0 -134 -21.5t-105.5 -61.5t-78.5 -89.5t-58.5 -115t-40.5 -126.5t-29 -135l-25 -138h-275zM410 1042l24 134q16 88 34.5 157.5t52 141t76.5 118.5t108.5 77t146.5 30q61 0 113 -17t87.5 -45.5t59.5 -64.5t33 -75q6 -24 6 -48 q0 -14 -2 -27l-33 4q1 9 1 19q0 29 -11 60q-15 42 -46.5 78t-86 59.5t-121.5 23.5q-74 0 -133.5 -27.5t-99 -72t-70.5 -111.5t-49 -134.5t-33 -152.5l-16 -94h372l-6 -33h-407z" />
<glyph unicode="g" horiz-adv-x="1495" d="M76 502q0 162 83 299.5t222.5 217t300.5 79.5q157 0 282.5 -82.5t186.5 -218.5l49 278h342l-6 -33h-309l-68 -387q-28 175 -162 292.5t-315 117.5q-150 0 -282.5 -76t-211.5 -206.5t-79 -280.5q0 -133 63.5 -245.5t175 -178.5t244.5 -66q159 0 297 85.5t211 224.5 l-76 -439q-12 -67 -29 -127.5t-45.5 -131t-69.5 -126.5t-94.5 -103.5t-128.5 -73.5t-163 -26q-74 0 -135 18.5t-101 49t-67.5 70t-39.5 81t-12 83.5q0 54 21 114l30 -12q-18 -45 -18 -102q0 -49 18 -94.5t55 -85.5t101.5 -64.5t147.5 -24.5q98 0 178 37t132 92.5t92 134 t60.5 148.5t34.5 149l51 291q-86 -94 -203 -147t-247 -53q-145 0 -263.5 69.5t-185.5 189t-67 263.5zM78 -403q0 76 26 139l29 -12q-22 -59 -22 -127q0 -56 22.5 -112t66.5 -106t120.5 -81t173.5 -31q80 0 150.5 21.5t122.5 57t96 86t74 104t54 116t38 116.5t24 111 l198 1135h279l-6 -33h-246l-193 -1108q-11 -58 -25.5 -113t-40 -120.5t-57 -121.5t-78 -109.5t-101.5 -91t-129.5 -60.5t-159.5 -23q-104 0 -187 35t-131 90t-73 116.5t-25 121.5zM137 502q0 144 74.5 267.5t200 195t270.5 71.5q194 0 324.5 -133.5t130.5 -327.5 q0 -144 -74.5 -267.5t-200 -195t-270.5 -71.5q-194 0 -324.5 133.5t-130.5 327.5zM170 502q0 -179 122 -303.5t300 -124.5q134 0 252 68t189 184t71 249q0 179 -122 304t-300 125q-134 0 -252 -68t-189 -184.5t-71 -249.5z" />
<glyph unicode="h" horiz-adv-x="1429" d="M-80 0l6 33h588l-6 -33h-588zM-68 61l7 33h243l260 1458h-249l6 33h282l-270 -1524h-279zM205 1614l6 33h342l-129 -725q208 176 416 176q59 0 113.5 -17t104 -53.5t81 -93.5t43.5 -137q5 -32 5 -67q0 -54 -11 -118l-93 -518h248l-6 -33h-281l99 557q9 64 9 117 q0 49 -8 90q-16 85 -65 138t-109.5 77.5t-129.5 24.5q-120 0 -241.5 -64.5t-223.5 -173.5l139 787h-309zM240 61l127 713q104 122 227 192t246 70q65 0 119.5 -22t99 -71t58.5 -127q6 -35 6 -79q0 -52 -9 -114l-102 -590h307l-6 -33h-340l108 629q9 57 9 105q0 36 -6 68 q-12 72 -51 116.5t-87.5 65t-105.5 20.5q-113 0 -230 -66.5t-215 -179.5l-116 -664h247l-6 -33h-280z" />
<glyph unicode="i" horiz-adv-x="692" d="M-45 0l6 33h588l-6 -33h-588zM-33 61l6 33h244l160 887h-250l6 33h283l-170 -953h-279zM139 1042l6 33h342l-174 -981h248l-6 -33h-281l175 981h-310zM391 1419q0 38 28 66t66 28t66.5 -28t28.5 -66t-28.5 -66t-66.5 -28t-66 28t-28 66zM422 1419q0 -26 18.5 -44.5 t44.5 -18.5t45 18.5t19 44.5t-19 45t-45 19t-44.5 -19t-18.5 -45zM451 1419q0 14 9.5 24.5t24.5 10.5q14 0 24.5 -10t10.5 -25q0 -14 -10 -24.5t-25 -10.5q-14 0 -24 10t-10 25z" />
<glyph unicode="j" horiz-adv-x="602" d="M-520 -332q0 72 26 135l29 -12q-22 -59 -22 -123q0 -47 16.5 -92.5t49 -84.5t88 -63t126.5 -24q85 0 155.5 38t115 93t80 133t53 142.5t30.5 136.5l193 1095h-309l6 33h342l-199 -1134q-10 -50 -21.5 -96.5t-32 -105.5t-45 -108.5t-61.5 -99t-80 -83.5t-101.5 -55.5 t-125.5 -21.5q-77 0 -139 28t-98.5 72.5t-56 95.5t-19.5 101zM-459 -332q0 51 21 111l30 -12q-18 -52 -18 -99q0 -84 54.5 -143.5t164.5 -59.5q71 0 130.5 33t98 82.5t69.5 119t47 129.5t28 128l182 1024h-250l6 33h283l-188 -1063q-9 -49 -19.5 -92.5t-29 -97.5t-40 -98.5 t-53.5 -88.5t-69 -74t-87.5 -48.5t-107.5 -18.5q-125 0 -188.5 70t-63.5 165zM315 1419q0 38 28.5 66t66.5 28t66 -28t28 -66t-28 -66t-66 -28t-66.5 28t-28.5 66zM346 1419q0 -26 19 -44.5t45 -18.5t44.5 18.5t18.5 44.5t-18.5 45t-44.5 19t-45 -19t-19 -45zM375 1419 q0 14 10 24.5t25 10.5q14 0 24 -10t10 -25q0 -14 -9.5 -24.5t-24.5 -10.5q-14 0 -24.5 10t-10.5 25z" />
<glyph unicode="k" horiz-adv-x="1318" d="M-80 0l6 33h559l-6 -33h-559zM-68 61l7 33h243l260 1458h-249l6 33h282l-270 -1524h-279zM205 1614l6 33h342l-131 -742q122 98 242 145.5t221 47.5q139 0 228 -80.5t89 -200.5q0 -137 -113 -250t-348 -182l160 -291h275l-7 -33h-288l-189 345q242 66 359.5 174 t117.5 237q0 103 -80 175.5t-204 72.5q-112 0 -244.5 -59.5t-267.5 -184.5l141 793h-309zM240 61l125 711q267 264 520 264q115 0 185.5 -62.5t70.5 -156.5q0 -122 -114.5 -224t-358.5 -163l-9 31q230 58 339.5 153t109.5 203q0 77 -62 132t-161 55q-236 0 -490 -246 l-116 -664h219l-6 -33h-252zM631 393l28 17l205 -377h299l-6 -33h-313z" />
<glyph unicode="l" horiz-adv-x="698" d="M119 1552l6 33h281l-216 -1214q-9 -50 -10 -92q0 -29 5 -53q11 -62 33 -103t57 -65.5t67.5 -35t63.5 -10.5q96 0 196 84l23 -26q-112 -90 -219 -90q-33 0 -69.5 12t-76.5 39.5t-66.5 73t-39.5 113.5q-6 29 -6 63q0 44 10 96l209 1175h-248zM129 1614l6 33h342l-225 -1287 q-7 -52 -7 -92q0 -28 3 -50q8 -56 37 -87.5t59 -44t62 -12.5q41 0 76 15t81 54l21 -26q-51 -41 -91.5 -58.5t-86.5 -17.5q-29 0 -57.5 9t-59 31t-49.5 59q-18 38 -27 94q-3 21 -3 45q0 40 9 88l219 1247h-309z" />
<glyph unicode="m" horiz-adv-x="2121" d="M-43 0l6 33h588l-6 -33h-588zM-31 61l6 33h244l156 887h-250l6 33h283l-39 -223l-127 -730h-279zM137 1042l6 33h342l-24 -143q180 166 354 166q59 0 119 -20.5t117.5 -72.5t83.5 -126q94 103 198.5 161t208.5 58q49 0 99 -14.5t100.5 -46.5t84.5 -83q34 -50 50 -124 q8 -35 7 -75q0 -45 -9 -96l-100 -565h247l-6 -33h-280l106 605q9 49 9 92q0 35 -6 65q-14 67 -43 113.5t-75 75t-91.5 41t-92.5 12.5q-109 0 -218 -68.5t-206 -189.5q-9 68 -41 120t-76.5 81t-91.5 43t-94 14q-103 0 -208 -62.5t-197 -168.5l36 208h-309zM276 61l125 717 q94 120 200 189t214 69q36 0 70.5 -7.5t70 -25t62.5 -45.5t48 -68q20 -42 24 -96q1 -14 0 -29q0 -43 -7 -95l-110 -637h307l-6 -33h-340l117 676q8 45 8 84.5t-8 72.5q-16 67 -55 102.5t-84.5 52t-96.5 16.5q-95 0 -195 -65t-188 -175l-117 -670h248l-6 -33h-281zM1006 61 l106 605q8 47 8 96q204 274 422 274q44 0 86 -11t83.5 -37t67 -68t37.5 -104q5 -27 5 -57q0 -41 -9 -89l-110 -637h307l-6 -33h-340l117 676q9 45 9 83q0 25 -4 48q-10 56 -32 93.5t-58.5 60.5t-74 33t-78.5 10q-98 0 -198 -65.5t-191 -184.5q0 -51 -8 -95l-101 -565h248 l-6 -33h-280z" />
<glyph unicode="n" horiz-adv-x="1464" d="M-45 0l6 33h588l-6 -33h-588zM-33 61l6 33h244l160 887h-250l6 33h283l-170 -953h-279zM139 1042l6 33h342l-28 -153q208 176 415 176q59 0 113.5 -17t104 -53.5t81 -93.5t43.5 -137q5 -32 5 -67q0 -54 -11 -118l-92 -518h248l-6 -33h-281l99 557q11 60 11 112 q0 31 -4 59q-11 74 -39 126.5t-72.5 85.5t-94.5 48.5t-105 15.5q-119 0 -240.5 -64.5t-223.5 -173.5l39 215h-310zM274 61l127 713q104 122 227 192t246 70q65 0 119.5 -22t98.5 -71q46 -49 60 -127q7 -36 6 -80q0 -51 -9 -113l-102 -590h307l-6 -33h-340l108 629 q9 57 9 105q1 36 -5 68q-12 72 -51.5 116.5t-88.5 65t-106 20.5q-113 0 -229.5 -66.5t-214.5 -179.5l-117 -664h248l-6 -33h-281z" />
<glyph unicode="o" horiz-adv-x="1316" d="M76 502q0 162 83 299.5t222.5 217t300.5 79.5q145 0 263.5 -69.5t185.5 -189.5t67 -264q0 -121 -49 -231.5t-131.5 -190t-194 -126.5t-231.5 -47q-145 0 -263.5 69.5t-185.5 189t-67 263.5zM109 502q0 -133 63.5 -245.5t175 -178.5t244.5 -66q150 0 282.5 76t211.5 206.5 t79 280.5q0 133 -63.5 245.5t-175 178.5t-244.5 66q-150 0 -282.5 -76t-211.5 -206.5t-79 -280.5zM137 502q0 144 74.5 267.5t200 195t270.5 71.5q194 0 324.5 -133.5t130.5 -327.5q0 -144 -74.5 -267.5t-200 -195t-270.5 -71.5q-194 0 -324.5 133.5t-130.5 327.5zM170 502 q0 -179 122 -303.5t300 -124.5q134 0 252 68t189 184t71 249q0 179 -122 304t-300 125q-134 0 -252 -68t-189 -184.5t-71 -249.5z" />
<glyph unicode="p" horiz-adv-x="1499" d="M-188 -578l6 33h588l-7 -33h-587zM-176 -516l6 33h244l258 1464h-250l6 33h283l-269 -1530h-278zM94 1042l6 33h342l-32 -180q86 95 204.5 149t249.5 54q145 0 263.5 -69.5t185.5 -189.5t67 -264q0 -121 -49 -231.5t-131.5 -190t-194 -126.5t-231.5 -47q-159 0 -284.5 82 t-186.5 219l-133 -764h248l-6 -33h-281l164 942q27 -177 161 -295.5t318 -118.5q150 0 282.5 76t212 206.5t79.5 280.5q0 203 -140.5 346.5t-343.5 143.5q-161 0 -300 -87.5t-212 -229.5l51 294h-309zM319 502q0 144 74.5 267.5t200 195t270.5 71.5q194 0 324.5 -133.5 t130.5 -327.5q0 -144 -74.5 -267.5t-200 -195t-270.5 -71.5q-194 0 -324.5 133.5t-130.5 327.5zM352 502q0 -179 122 -303.5t300 -124.5q134 0 252 68t189 184t71 249q0 179 -122 304t-300 125q-134 0 -252 -68t-189 -184.5t-71 -249.5z" />
<glyph unicode="q" horiz-adv-x="1470" d="M76 502q0 162 83 299.5t222.5 217t300.5 79.5q159 0 284.5 -82.5t186.5 -220.5l49 280h342l-6 -33h-309l-70 -393q-27 179 -160.5 297.5t-316.5 118.5q-150 0 -282.5 -76t-211.5 -206.5t-79 -280.5q0 -133 63.5 -245.5t175 -178.5t244.5 -66q159 0 298 87t212 227 l-148 -842h-278l6 33h244l118 663q-86 -94 -204 -147t-248 -53q-145 0 -263.5 69.5t-185.5 189t-67 263.5zM137 502q0 144 74.5 267.5t200 195t270.5 71.5q194 0 324.5 -133.5t130.5 -327.5q0 -144 -74.5 -267.5t-200 -195t-270.5 -71.5q-194 0 -324.5 133.5t-130.5 327.5z M170 502q0 -179 122 -303.5t300 -124.5q134 0 252 68t189 184t71 249q0 179 -122 304t-300 125q-134 0 -252 -68t-189 -184.5t-71 -249.5zM664 -578l6 33h587l-6 -33h-587zM983 -516l270 1530h279l-6 -33h-246l-258 -1464h248l-6 -33h-281z" />
<glyph unicode="r" horiz-adv-x="1058" d="M-55 0l6 33h590l-6 -33h-590zM-43 61l6 33h246l160 887h-250l6 33h283l-170 -953h-281zM131 1042l6 33h342l-37 -211q45 51 94.5 92t112.5 76q63 36 127 52q50 13 107 12q17 0 35 -1q76 -5 151 -38l-59 -342h-35l57 323q-70 26 -140 27h-6q-66 1 -124 -19 q-61 -20 -116.5 -52.5t-104 -77t-85.5 -87t-69 -88.5l53 301h-309zM266 61l109 607q20 37 47 75t64 81t79 78.5t92.5 67t104 47t114.5 19.5h17q52 0 106 -18l-53 -303h-35l52 280q-41 7 -79 7q-23 0 -45 -2q-59 -6 -115.5 -34t-103.5 -63t-89 -80t-72.5 -86.5t-52.5 -81.5 l-101 -561h248l-6 -33h-281z" />
<glyph unicode="s" horiz-adv-x="1239" d="M-186 0l6 33h198l175 246q147 -136 267.5 -201.5t241.5 -65.5q135 0 232.5 96.5t97.5 231.5q0 88 -41.5 178.5t-91 151.5t-121.5 144.5t-104 129.5q-55 79 -55 142q-1 11 1 22q12 71 107 152l23 -27q-88 -71 -98 -129q-2 -9 -1 -18q0 -52 49 -123q28 -40 82 -101.5 t98.5 -115t89 -118t70 -138.5t25.5 -150q0 -152 -106 -256t-257 -104q-123 0 -243.5 61.5t-261.5 187.5l-162 -229h-221zM-174 61l6 33h154l608 860q-34 65 -34 127q0 119 128 226l21 -27q-95 -78 -113 -158q-4 -19 -4 -39q0 -62 41 -131l-631 -891h-176zM209 303l440 623 q30 -43 83 -104t96 -112t85.5 -111t66.5 -126t24 -133q0 -126 -88 -212.5t-214 -86.5q-118 0 -233 63t-260 199zM252 307q133 -122 238 -177.5t212 -55.5q110 0 189.5 78.5t79.5 187.5q0 58 -20 116t-57.5 113.5t-73.5 99.5t-88 103.5t-81 97.5z" />
<glyph unicode="t" horiz-adv-x="921" d="M70 981l6 33h278l-110 -635q-8 -51 -7 -95q0 -40 6 -74q14 -70 54 -114t87 -64t99 -20q51 0 101.5 19.5t98 61t76.5 117.5t29 177h33q0 -87 -22.5 -158.5t-58 -116.5t-81.5 -75.5t-90 -43.5t-86 -13q-45 0 -88.5 14t-84.5 44.5t-67 78t-37 114.5q-4 27 -4 58q0 45 9 96 l104 596h-245zM82 1042l6 33h244l65 377l37 14l-74 -424h-278zM270 220q-5 30 -5 66q0 41 7 89l113 639h422l-6 -33h-389l-107 -612q-8 -44 -8 -82q1 -87 41 -139q58 -74 145 -74q43 0 83.5 15.5t78 49.5t60 98t22.5 150h33q0 -95 -26 -165.5t-68.5 -108t-88.5 -55 t-94 -17.5q-47 0 -89 18t-77 57.5t-47 103.5zM389 1042l78 439l35 14l-74 -420h391l-6 -33h-424z" />
<glyph unicode="u" horiz-adv-x="1417" d="M51 981l6 33h281l-98 -557q-9 -63 -9 -117q-1 -50 7 -90q16 -86 65.5 -138.5t110 -77t129.5 -24.5q118 0 239.5 64t223.5 172l-37 -213h307l-6 -33h-340l26 154q-96 -84 -202.5 -130.5t-210.5 -46.5q-59 0 -113.5 17t-104 53.5t-81.5 93.5t-44 137q-5 32 -4 67 q0 54 11 118l92 518h-248zM63 1042l7 33h340l-109 -629q-9 -57 -9 -105q0 -37 6 -68q12 -71 51 -116t88 -65t106 -20q113 0 230 65.5t212 179.5l119 664h-250l6 33h283l-127 -715q-103 -121 -227 -190.5t-246 -69.5q-65 0 -119.5 22t-99 71.5t-58.5 127.5q-7 36 -7 80 q0 51 9 113l103 589h-308zM866 1042l6 33h342l-174 -981h248l-6 -33h-281l175 981h-310z" />
<glyph unicode="v" horiz-adv-x="1376" d="M39 981l6 33h244l264 -1018l-31 -8l-258 993h-225zM51 1042l6 33h568l-7 -33h-567zM319 1014h293l-6 -33h-246l224 -862l528 862h-240l7 33h292l-598 -977zM580 -6l626 1020h242l-6 -33h-217l-617 -1006zM885 1042l6 33h569l-6 -33h-569z" />
<glyph unicode="w" horiz-adv-x="1931" d="M41 981l6 33h244l172 -1016l-33 -6l-168 989h-221zM53 1042l6 33h568l-6 -33h-568zM319 1014h295l-6 -33h-250l144 -844l465 801l28 -16l-510 -881zM489 -8l512 882l199 -878l-31 -8l-180 800l-471 -813zM1022 918l31 8l178 -795l444 850h-248l7 33h297l-510 -977z M1227 -8l534 1022h242l-6 -33h-217l-525 -1006zM1440 1042l6 33h569l-6 -33h-569z" />
<glyph unicode="x" horiz-adv-x="1310" d="M-70 0l7 33h505l-6 -33h-506zM-57 61l6 33h201l428 465l-240 422h-217l6 33h227l264 -461l-452 -492h-223zM133 1042l6 33h508l-6 -33h-508zM205 61l428 465l264 -465h-246l6 33h185l-215 377l-346 -377h174l-6 -33h-244zM387 1014h248l-6 -33h-185l201 -350l322 350 h-176l6 33h245l-403 -441zM639 0l6 33h508l-6 -33h-508zM653 549l428 465h224l-7 -33h-202l-402 -438l256 -449h215l-6 -33h-229zM803 1042l6 33h508l-6 -33h-508z" />
<glyph unicode="y" horiz-adv-x="1388" d="M-350 -401l31 12q23 -53 59 -91.5t78 -58.5t83 -29.5t83 -9.5q141 0 272 103.5t268 327.5l709 1161h231l-6 -33h-207l-698 -1145q-140 -229 -279.5 -337.5t-289.5 -108.5q-44 0 -89 10.5t-92 33t-87.5 65t-65.5 100.5zM-295 -377l31 12q24 -55 67.5 -90.5t87.5 -48 t93 -12.5q124 0 241.5 94.5t245.5 306.5l55 92l-258 1004h-227l6 33h246l268 -1043l-61 -102q-133 -220 -257 -319t-259 -99q-87 0 -162.5 39.5t-116.5 132.5zM53 1042l6 33h570l-6 -33h-570zM324 1014h292l-6 -33h-245l229 -893l545 893h-250l6 33h303l-614 -1010z M901 1042l6 33h570l-7 -33h-569z" />
<glyph unicode="z" horiz-adv-x="1208" d="M-10 82l1026 899h-731l-43 -264h-35l51 297h844l-1092 -957zM20 0v33h928l58 325h34l-65 -358h-955zM57 61l1094 957l20 -25l-1028 -899h754l45 264h35l-53 -297h-867zM143 717l64 358h934v-33h-908l-55 -325h-35z" />
<glyph unicode="{" horiz-adv-x="665" d="M35 -209q0 54 20.5 116t41 102.5t59.5 107.5q8 13 40.5 67.5t41.5 71.5t27 54.5t24 63t6 50.5q0 63 -48.5 114t-135.5 54h-50l7 33h43q105 -4 161 -63.5t56 -137.5q0 -28 -7 -57.5t-24.5 -65.5t-30.5 -60t-41 -71.5t-41 -69.5q-38 -66 -58 -105t-39 -96.5t-19 -107.5 q0 -45 14.5 -86.5t43.5 -77t80 -57t118 -21.5h63l-6 -32h-57q-60 0 -109.5 17t-82 44t-55 63.5t-32.5 74t-10 75.5zM74 653l6 33h20q124 0 204.5 78.5t80.5 175.5q0 16 -2.5 36.5t-7.5 47.5t-9 46.5t-11.5 54.5t-10.5 51q-27 114 -27 194q0 52 12 104.5t40.5 105t69.5 93 t104.5 65.5t140.5 25h96l-6 -32h-90q-72 0 -130 -22.5t-95 -59t-62.5 -84.5t-36 -96.5t-10.5 -98.5q0 -67 25 -186q4 -21 14 -65t15 -69t9.5 -57t4.5 -53q0 -53 -22 -104t-62 -92t-101 -66t-133 -25h-26zM96 -209q0 66 28.5 133.5t84.5 161.5q7 11 40.5 68t43.5 76t30 61 t26.5 72.5t6.5 60.5q0 66 -41 126.5t-116 86.5q112 31 179.5 118t67.5 185q0 19 -2.5 41.5t-8 51.5t-9.5 49t-12 55.5t-11 50.5q-24 114 -24 182q0 61 16.5 117.5t50.5 106t95.5 79t142.5 29.5h84l-6 -33h-78q-73 0 -127.5 -26.5t-85 -71t-45 -95t-14.5 -106.5 q0 -53 22 -174q4 -19 14 -64.5t15.5 -71.5t10.5 -60.5t5 -59.5q0 -93 -53 -177.5t-145 -129.5q52 -38 80 -94.5t28 -114.5q0 -34 -8 -68t-26.5 -74.5t-32.5 -66.5t-43 -75t-41 -70q-55 -93 -82 -155.5t-27 -123.5q0 -78 47 -129t148 -51h75l-6 -33h-69q-118 0 -173 61.5 t-55 151.5z" />
<glyph unicode="|" horiz-adv-x="546" d="M14 -539l412 2358h35l-412 -2358h-35zM78 -539l411 2358h35l-411 -2358h-35z" />
<glyph unicode="}" horiz-adv-x="667" d="M-123 -483l6 32h90q72 0 130 22.5t95 59t62.5 84.5t36 96.5t10.5 98.5q0 72 -24 186q-4 21 -14 65t-15 69t-9.5 57t-4.5 53q0 53 22 103.5t61.5 92t100.5 66.5t133 25h27l-6 -33h-21q-124 0 -204.5 -78.5t-80.5 -175.5q0 -16 2.5 -36.5t7.5 -47.5t9 -46.5t11.5 -54.5 t10.5 -51q27 -114 27 -194q0 -52 -12 -104.5t-40.5 -105t-69.5 -93t-104.5 -65.5t-140.5 -25h-96zM-111 -422l7 33h77q73 0 128 26.5t85.5 71t45 95t14.5 106.5q0 48 -23 174q-4 19 -14 64.5t-15.5 71.5t-10.5 60.5t-5 59.5q0 93 53.5 177.5t145.5 129.5q-52 39 -80.5 95 t-28.5 114q0 41 17 92.5t30 78t55.5 98.5t49.5 85q54 92 81 155t27 124q0 79 -46.5 129.5t-147.5 50.5h-76l6 33h70q118 0 172.5 -61.5t54.5 -151.5q0 -66 -28.5 -134t-83.5 -161q-9 -15 -41 -68.5t-43 -75t-30.5 -62t-26.5 -71.5t-7 -61q0 -66 41.5 -126.5t116.5 -86.5 q-112 -31 -180 -118.5t-68 -184.5q0 -19 2.5 -41.5t8 -51.5t9.5 -49t12 -55.5t11 -50.5q25 -119 25 -182q0 -48 -10 -93.5t-33 -89.5t-57 -76.5t-87 -52.5t-119 -20h-84zM270 1731l6 32h58q60 0 109.5 -17t82 -44t55 -63.5t32.5 -74t10 -75.5q0 -54 -20.5 -116t-41 -102.5 t-59.5 -107.5q-10 -17 -40.5 -68t-41 -70.5t-28.5 -55.5t-24 -62t-6 -51q0 -63 48.5 -114t136.5 -54h49l-6 -33h-43q-105 4 -161 63.5t-56 137.5q0 28 7 57t24.5 66t30 60t41 72t40.5 69q39 67 58.5 105t39 96t19.5 108q0 45 -14.5 86.5t-43.5 77t-80 57t-118 21.5h-64z" />
<glyph unicode="~" horiz-adv-x="1081" d="M174 672q8 46 26.5 89.5t47.5 82t72.5 61.5t95.5 23q93 0 184 -117q63 -80 113 -80q59 0 95.5 49.5t49.5 128.5l33 -6q-15 -90 -58.5 -147.5t-119.5 -57.5q-38 0 -69.5 22t-68.5 71q-40 53 -77.5 78.5t-81.5 25.5q-87 0 -140.5 -67.5t-68.5 -161.5zM236 659 q15 89 59.5 148t120.5 59q38 0 68 -21.5t67 -70.5q80 -104 162 -104q87 0 139.5 66.5t67.5 160.5l32 -4q-18 -101 -79 -178.5t-160 -77.5t-187 117q-33 43 -58 61.5t-52 18.5q-59 0 -97 -50.5t-51 -128.5z" />
<glyph unicode="&#xa1;" horiz-adv-x="577" d="M125 0l213 1198h35l-213 -1198h-35zM188 0l213 1198h35l-213 -1198h-35zM352 1526q0 38 28 66t66 28t66.5 -28t28.5 -66t-28.5 -66t-66.5 -28t-66 28t-28 66zM383 1526q0 -26 18.5 -45t44.5 -19t45 19t19 45t-19 44.5t-45 18.5t-44.5 -18.5t-18.5 -44.5zM412 1526 q0 14 9.5 24.5t24.5 10.5q14 0 24.5 -10t10.5 -25q0 -14 -10 -24.5t-25 -10.5q-14 0 -24 10t-10 25z" />
<glyph unicode="&#xa2;" horiz-adv-x="1247" d="M117 588q0 161 82.5 298t221.5 217t300 81l35 198h35l-41 -231h-27q-150 0 -282.5 -76t-211.5 -206.5t-79 -280.5q0 -186 117.5 -323.5t297.5 -162.5l-41 -235h-35l37 209q-180 35 -294.5 177.5t-114.5 334.5zM178 588q0 144 74.5 267.5t200 195t270.5 71.5h20l-174 -991 q-171 22 -281 150.5t-110 306.5zM211 588q0 -155 93.5 -272t238.5 -148l162 922q-131 -5 -245 -74t-181.5 -183.5t-67.5 -244.5zM553 -133l41 231h39q213 0 407 152l21 -25q-196 -159 -428 -159h-10l-35 -199h-35zM598 127l174 993q102 -12 181 -61t114 -130t-6 -188l-29 13 q48 125 -24 214.5t-207 112.5l-162 -921q191 0 365 139l20 -27q-183 -145 -391 -145h-35zM778 1147l41 235h35l-37 -206q82 -15 151 -52.5t117 -96t58 -135.5t-25 -171l-31 10q46 120 8.5 209.5t-122.5 142t-195 64.5z" />
<glyph unicode="&#xa3;" horiz-adv-x="1318" d="M-20 72q72 28 111.5 45.5t101 51.5t95.5 72t70.5 92.5t53 129t16.5 166.5h-227l6 33h254v-29q0 -117 -30 -209.5t-68.5 -148t-112 -105t-121.5 -71.5t-137 -56zM2 14q115 45 160 68q73 13 169 0.5t170 -32.5t163.5 -39t150.5 -19q59 0 110 16.5t86.5 44t59 53.5t41.5 56 l29 -17q-19 -31 -45 -60t-65.5 -59.5t-95.5 -48.5t-120 -18t-155 19t-165 39t-167.5 32.5t-161.5 -0.5q-62 -29 -154 -63zM213 690l6 33h205q-3 34 -18 177.5t-15 205.5q0 96 28 185t81.5 162.5t142 118t199.5 44.5q91 0 163 -29.5t116 -79t66.5 -111.5t22.5 -130h-32 q0 85 -34.5 155t-112.5 116t-189 46q-104 0 -186 -40.5t-131.5 -108.5t-75 -152t-25.5 -176q0 -61 16 -206t19 -210h-246zM225 117q123 74 193.5 196t70.5 320v29h463l-6 -33h-424q-3 -320 -203 -484q87 -9 257 -50.5t239 -41.5q156 0 244 142l28 -19q-94 -156 -272 -156 q-65 0 -170 25.5t-218 50t-202 21.5zM453 1106q0 89 23.5 168t69.5 142.5t122 100.5t174 37q153 0 230 -81t77 -207h-33q0 111 -69.5 183.5t-204.5 72.5q-89 0 -159 -34t-112.5 -92.5t-64 -132t-21.5 -157.5q0 -54 15 -189t18 -194h447l-7 -33h-471q-3 67 -18.5 212.5 t-15.5 203.5z" />
<glyph unicode="&#xa5;" horiz-adv-x="1878" d="M225 1503l6 33h258l320 -700h-324l7 32h264l-289 635h-242zM238 1565l6 32h587l-6 -32h-587zM412 403l6 33h459l-66 -375h-281l7 33h245l56 309h-426zM424 465l6 33h424l20 114l-75 162h-326l6 33h342l88 -191l-28 -151h-457zM518 0l6 33h592l-6 -33h-592zM518 1536h301 l-6 -33h-242l363 -796l645 796h-238l7 33h301l-721 -891zM840 61l65 375h461l-6 -33h-426l-55 -309h249l-6 -33h-282zM911 465l27 149l154 193h338l-7 -33h-313l-141 -176l-19 -100h428l-6 -33h-461zM1116 836l565 700h258l-6 -33h-233l-514 -635h256l-6 -32h-320z M1354 1565l6 32h592l-6 -32h-592z" />
<glyph unicode="&#xa6;" horiz-adv-x="557" d="M18 -539l183 1037h35l-183 -1037h-35zM82 -539l182 1037h35l-182 -1037h-35zM250 782l182 1037h35l-182 -1037h-35zM313 782l183 1037h34l-182 -1037h-35z" />
<glyph unicode="&#xa7;" horiz-adv-x="1075" d="M109 332l32 -6q-16 -92 8.5 -164t78.5 -114t120.5 -63.5t140.5 -21.5q140 0 225 76t85 184q0 90 -58 151t-161 113q154 12 248 90t94 185q0 27 -6.5 53t-16 46.5t-26.5 41t-32 35t-38 30.5t-40 26t-43 23t-40 19t-39 16.5t-33 14.5q-64 30 -102.5 51.5t-79.5 54.5 t-60.5 73t-19.5 89q0 99 75.5 165.5t207.5 66.5q70 0 131 -19t109.5 -57t70 -103.5t6.5 -150.5l-33 6q13 75 -5.5 132.5t-61 91t-97.5 50.5t-120 17q-115 0 -182.5 -58t-67.5 -141q0 -34 13 -63.5t31.5 -51t53.5 -44.5t65 -38.5t81 -39.5q11 -5 42 -19t51.5 -23.5t53.5 -28 t56 -35.5t49 -42.5t42 -52t26.5 -61.5t10.5 -74q0 -104 -73.5 -182.5t-202.5 -110.5q153 -101 153 -246q0 -124 -93 -208.5t-249 -84.5q-61 0 -120 14.5t-113 46.5t-91.5 77.5t-53.5 114t-2 149.5zM164 797q0 103 73 181t201 109q-153 101 -153 248q0 125 93 209t251 84 q77 0 149 -24t131.5 -70.5t88 -126.5t10.5 -180l-33 6q13 74 -1 135.5t-47.5 102.5t-82.5 70t-103 41.5t-112 12.5q-141 0 -226.5 -75.5t-85.5 -184.5q0 -91 57.5 -151.5t162.5 -112.5q-154 -13 -247 -90.5t-93 -183.5q0 -27 6.5 -53t15.5 -46.5t26.5 -41t31.5 -35t38 -31 t39 -26t43 -22.5t40 -18.5t39.5 -17t33.5 -14.5q63 -30 101 -52t79 -55t60.5 -73t19.5 -89q0 -99 -75 -165t-206 -66q-56 0 -106.5 11.5t-95 37t-75 62.5t-42.5 92.5t0 123.5l33 -4q-13 -75 5.5 -132.5t61 -91t98.5 -50t121 -16.5q114 0 181 57.5t67 140.5q0 42 -16.5 76 t-53.5 63t-72 49t-97 50q-9 4 -42.5 19t-53 24t-54 28t-56.5 35t-48.5 42t-42 52.5t-26.5 61.5t-11 74zM225 797q0 104 100.5 175.5t266.5 71.5l4 -2q12 -6 47.5 -21.5t56.5 -26.5t54.5 -29.5t54.5 -37.5t42 -44t31.5 -55.5t10.5 -65.5q0 -104 -101.5 -176t-265.5 -72l-4 2 q-12 6 -42 19.5t-48.5 22t-48.5 24.5t-49 30t-42 35t-36 42.5t-22 49t-9 58.5zM258 797q0 -21 5.5 -40.5t12.5 -35.5t22 -32.5t26 -27.5t33 -25t34 -21.5t38.5 -20t36.5 -17t37.5 -16t33.5 -14.5q149 3 236 65t87 150q0 26 -8.5 50.5t-19 42t-34 37.5t-37 30.5t-46 27.5 t-44 22.5t-48 21.5t-41.5 18q-150 -3 -237 -65t-87 -150z" />
<glyph unicode="&#xa8;" horiz-adv-x="542" d="M-90 1389q0 38 28 66t66 28t66 -28t28 -66t-28 -66.5t-66 -28.5t-66 28.5t-28 66.5zM-59 1389q0 -26 18.5 -45t44.5 -19t45 19t19 45t-19 44.5t-45 18.5t-44.5 -18.5t-18.5 -44.5zM-31 1389q0 14 10 24t25 10q14 0 24.5 -9.5t10.5 -24.5q0 -14 -10 -24.5t-25 -10.5 q-14 0 -24.5 10t-10.5 25zM319 1389q0 38 28.5 66t66.5 28t66 -28t28 -66t-28 -66.5t-66 -28.5t-66.5 28.5t-28.5 66.5zM350 1389q0 -26 19 -45t45 -19t44.5 19t18.5 45t-18.5 44.5t-44.5 18.5t-45 -18.5t-19 -44.5zM379 1389q0 14 10 24t25 10q14 0 24.5 -9.5t10.5 -24.5 q0 -14 -10 -24.5t-25 -10.5q-14 0 -24.5 10t-10.5 25z" />
<glyph unicode="&#xa9;" horiz-adv-x="1857" d="M152 743q0 173 70.5 331.5t188 272.5t276.5 182t331 68q207 0 376.5 -99t265 -269t95.5 -375q0 -173 -70.5 -331.5t-188.5 -272.5t-277.5 -182t-331.5 -68q-207 0 -376 99t-264 269t-95 375zM184 743q0 -116 34.5 -224.5t98.5 -195.5t150 -152.5t194 -101.5t226 -36 q164 0 317.5 65.5t267 176t182 262.5t68.5 317q0 194 -92 357t-254 258.5t-358 95.5q-164 0 -317.5 -66t-266.5 -176t-181.5 -262.5t-68.5 -317.5zM213 743q0 160 65.5 307t174.5 253.5t257.5 169.5t307.5 63q190 0 345.5 -90.5t243 -247t87.5 -344.5q0 -213 -111 -396.5 t-297 -290t-399 -106.5q-190 0 -345 90.5t-242 247t-87 344.5zM246 743q0 -178 83.5 -327t231 -235.5t326.5 -86.5q152 0 294.5 61t247.5 163t168.5 243t63.5 293q0 178 -84 327t-232 235.5t-327 86.5q-152 0 -294 -61t-247 -163t-168 -243t-63 -293zM555 770 q0 119 62.5 221.5t166.5 161.5t222 59q69 0 133 -24t106 -66l15 74h32l-26 -156q-30 64 -102.5 102t-157.5 38q-108 0 -204.5 -56t-155 -151t-58.5 -203q0 -147 102.5 -251.5t249.5 -104.5q152 0 291 108l20 -24q-149 -117 -311 -117q-163 0 -274 113.5t-111 275.5zM616 770 q0 156 117 268.5t273 112.5q101 0 172.5 -50t74.5 -130l-20 -115h-35l23 121q-7 60 -70 100.5t-145 40.5q-140 0 -248.5 -104.5t-108.5 -243.5q0 -122 85 -208.5t206 -86.5q71 0 129.5 21.5t124.5 74.5l20 -26q-131 -103 -274 -103q-137 0 -230.5 95.5t-93.5 232.5z M1262 856l59 340h35l-60 -340h-34z" />
<glyph unicode="&#xaa;" horiz-adv-x="1067" d="M225 1262q0 145 104.5 246.5t248.5 101.5q76 0 139 -33t104 -90l21 110h223l-6 -32h-189l-32 -187q-25 88 -95.5 143.5t-164.5 55.5q-128 0 -224 -93.5t-96 -221.5q0 -115 77.5 -194t192.5 -79q79 0 151 38t116 103l-23 -126h184l-6 -33h-217l10 57q-98 -72 -215 -72 q-131 0 -217 88t-86 218zM287 1262q0 119 86 202.5t205 83.5q105 0 173 -70t68 -175q0 -119 -86 -202t-205 -83q-105 0 -173 69.5t-68 174.5zM319 1262q0 -89 60 -150t149 -61q103 0 180.5 75t77.5 177q0 90 -59.5 151.5t-148.5 61.5q-103 0 -181 -76t-78 -178zM805 1032 l90 504h158l-6 -33h-123l-80 -438h125l-6 -33h-158z" />
<glyph unicode="&#xab;" horiz-adv-x="1179" d="M115 600l24 21l316 -412l-25 -21zM121 664l461 411l20 -24l-461 -412zM170 627l451 401l22 -22l-428 -383l289 -377l-27 -21zM586 600l24 21l316 -412l-25 -21zM592 664l461 411l20 -24l-461 -412zM641 627l451 401l22 -22l-428 -383l289 -377l-27 -21z" />
<glyph unicode="&#xad;" horiz-adv-x="821" d="M147 582l7 32h493l-6 -32h-494zM160 643l6 33h493l-6 -33h-493z" />
<glyph unicode="&#xae;" horiz-adv-x="1261" d="M199 1087q0 146 76 271.5t202.5 197.5t272.5 72q200 0 334.5 -138t134.5 -337q0 -146 -76 -271.5t-202.5 -197.5t-272.5 -72q-200 0 -334.5 138t-134.5 337zM231 1087q0 -184 126.5 -313t310.5 -129q135 0 254.5 69t191.5 186.5t72 252.5q0 120 -57 221.5t-157.5 161 t-221.5 59.5q-101 0 -196.5 -41t-166 -109t-113.5 -162.5t-43 -195.5zM260 1087q0 129 67.5 240t180.5 175.5t242 64.5q174 0 290.5 -120t116.5 -294q0 -129 -67 -240t-180 -175t-242 -64q-174 0 -291 119.5t-117 293.5zM293 1087q0 -159 108.5 -269.5t266.5 -110.5 q119 0 224.5 60.5t168.5 164t63 221.5q0 159 -108 270t-266 111q-119 0 -224.5 -60.5t-169 -164.5t-63.5 -222zM444 881l7 32h211l-7 -32h-211zM457 942l6 33h55l55 313h-59l6 33h92l-65 -379h-90zM526 1350l6 32h281q67 0 111.5 -42t44.5 -107q0 -63 -45 -111.5t-115 -60.5 l35 -86h86l-6 -33h-103l-59 150h10q68 0 116 43t48 98q0 49 -36 83t-87 34h-287zM575 942l27 150h127l62 -150h-78l6 33h24l-34 84h-78l-17 -84h60l-6 -33h-93zM608 1120l35 201h170q42 0 68 -24.5t26 -63.5q0 -46 -38.5 -79.5t-96.5 -33.5h-164zM647 1153h125q42 0 72 25.5 t30 54.5q0 23 -17.5 39t-43.5 16h-143zM700 881l7 32h211l-7 -32h-211z" />
<glyph unicode="&#xaf;" horiz-adv-x="796" d="M70 1305l6 32h639l-6 -32h-639zM82 1366l6 33h639l-6 -33h-639z" />
<glyph unicode="&#xb0;" horiz-adv-x="899" d="M223 1255q0 136 94 231t230 95t230.5 -94.5t94.5 -231.5q0 -136 -94.5 -229.5t-230.5 -93.5q-137 0 -230.5 93.5t-93.5 229.5zM256 1255q0 -120 85.5 -205t205.5 -85t206.5 85t86.5 205t-86.5 206.5t-206.5 86.5t-205.5 -86.5t-85.5 -206.5zM285 1255q0 111 76 188 t186 77t187 -77.5t77 -187.5t-77 -186t-187 -76t-186 76t-76 186zM317 1255q0 -95 67.5 -162t162.5 -67t163 67.5t68 161.5t-68.5 163t-162.5 69t-162 -68.5t-68 -163.5z" />
<glyph unicode="&#xb1;" horiz-adv-x="1234" d="M74 51l6 33h887l-6 -33h-887zM86 113l6 32h887l-6 -32h-887zM190 702l7 33h428l-76 -430h-35l70 397h-394zM203 764l6 33h391l70 395h35l-76 -428h-426zM578 305l75 430h428l-6 -33h-393l-70 -397h-34zM657 764l76 428h35l-70 -395h396l-7 -33h-430z" />
<glyph unicode="&#xb2;" horiz-adv-x="843" d="M86 692q13 73 43 136.5t64.5 107t84.5 84t88 63.5t89 50q21 11 58.5 29.5t57.5 28.5t51 27.5t47.5 30t37 31t30.5 35.5t17.5 39.5t7.5 46.5q0 71 -56.5 117.5t-140.5 46.5q-47 0 -88.5 -13t-76.5 -40t-54 -74.5t-16 -110.5l-33 -2q-4 72 19 126.5t63.5 85t87.5 45.5 t98 15q100 0 165 -53.5t65 -142.5q0 -29 -8 -55t-19.5 -46t-34.5 -41t-41 -35t-51 -32.5t-53 -29t-59 -29.5t-58 -29q-65 -34 -111.5 -64.5t-100 -80.5t-89.5 -118.5t-51 -154.5zM143 674q62 59 154 59q49 0 121 -22q93 -29 139 -29q107 0 166 82.5t25 208.5l30 8 q39 -145 -28 -238.5t-193 -93.5q-49 0 -149 31q-62 20 -111 20q-47 0 -74.5 -12t-56.5 -39zM156 721q17 71 51 128.5t83 100.5t90.5 70t102.5 59q19 10 58.5 29.5t61 30t56 30.5t54 35t43.5 38.5t36.5 45.5t21.5 51.5t9 61.5q0 99 -75.5 162t-182.5 63q-54 0 -106 -17 t-97 -51.5t-71.5 -94.5t-22.5 -138l-32 -2q-3 69 16 126.5t53 95.5t79 64.5t90.5 38t90.5 11.5q124 0 207.5 -70.5t83.5 -187.5q0 -36 -10 -69t-23.5 -58t-39.5 -50.5t-47 -42.5t-57 -38t-58.5 -32t-62.5 -31l-58 -29q-52 -28 -87 -49.5t-77.5 -54.5t-73.5 -74t-51 -91 q41 13 86 13q54 0 139 -25q87 -27 121 -27q79 0 118.5 58t12.5 155l31 9q31 -112 -18.5 -183t-143.5 -71q-41 0 -131 28q-75 23 -129 23q-84 0 -141 -41z" />
<glyph unicode="&#xb3;" horiz-adv-x="823" d="M74 723l20 25q157 -115 320 -115q141 0 236 78t95 202q0 93 -58 160.5t-177 95.5q153 26 221 94t68 154q0 81 -66.5 145t-177.5 64t-185.5 -65t-86.5 -179l-33 4q13 123 99.5 198t205.5 75q128 0 202 -72t74 -170q0 -181 -206 -254q153 -79 153 -250 q0 -142 -103.5 -227.5t-260.5 -85.5q-78 0 -168 31t-172 92zM111 770l20 27q136 -103 283 -103q118 0 194 61t76 158q0 96 -80.5 153.5t-263.5 57.5l6 33h21q181 -4 265.5 -71.5t84.5 -172.5q0 -114 -84.5 -182.5t-218.5 -68.5q-159 0 -303 108zM311 1378q12 105 77 162 t167 57q101 0 158 -53.5t57 -126.5q0 -35 -12 -66t-42 -62t-76 -53.5t-120 -36t-168 -13.5l6 33h21q101 1 174 19t111.5 47.5t55.5 62t17 69.5q0 59 -49 103.5t-133 44.5q-90 0 -145.5 -49t-65.5 -142z" />
<glyph unicode="&#xb4;" horiz-adv-x="403" d="M-76 1335l525 322l16 -29l-522 -321zM-43 1282l522 322l19 -29l-525 -322z" />
<glyph unicode="&#xb5;" horiz-adv-x="1552" d="M111 -530l266 1511h-248l6 33h281l-271 -1544h-34zM141 1042l6 33h340l-110 -635q-15 -102 -3.5 -172t49.5 -114t84.5 -63t102.5 -19q120 0 248.5 108.5t235.5 306.5l88 494h-250l6 33h283l-97 -539q-115 -211 -248.5 -323.5t-265.5 -112.5q-63 0 -116 21.5t-96 69.5 t-56.5 125.5t2.5 190.5l105 596h-308zM174 -530l137 786q14 -83 61 -140t107.5 -81.5t130.5 -24.5q126 0 257 100.5t243 284.5l-63 -362h309l-6 -33h-342l45 252q-103 -131 -218 -203t-225 -72q-88 0 -164.5 38t-121.5 114l-115 -659h-35zM944 1042l6 33h342l-174 -981h250 l-6 -33h-283l72 404l102 577h-309z" />
<glyph unicode="&#xb6;" horiz-adv-x="1562" d="M160 1026q0 151 84 283.5t221.5 210t288.5 77.5h858l-6 -32h-852q-141 0 -271 -74t-210 -199.5t-80 -265.5q0 -170 113.5 -286.5t285.5 -116.5h131l-98 -562h-281l6 33h246l88 496h-92q-189 0 -310.5 125t-121.5 311zM221 1026q0 100 45 194.5t118.5 163.5t171 110.5 t198.5 41.5h129l-156 -885h-135q-163 0 -267 107t-104 268zM254 1026q0 -146 95.5 -244t242.5 -98h108l144 819h-90q-125 0 -241 -66t-187.5 -177t-71.5 -234zM332 0l6 33h999l-6 -33h-999zM653 61l260 1475h377l-258 -1475h-379zM692 94h312l247 1409h-311zM1061 61 l260 1475h278l-6 -33h-245l-248 -1409h250l-7 -33h-282z" />
<glyph unicode="&#xb7;" horiz-adv-x="518" d="M158 629q0 38 28 66t66 28t66 -28t28 -66t-28 -66t-66 -28t-66 28t-28 66zM188 629q0 -26 19 -45t45 -19t44.5 19t18.5 45t-18.5 44.5t-44.5 18.5t-45 -18.5t-19 -44.5zM217 629q0 14 10 24.5t25 10.5q14 0 24.5 -10t10.5 -25q0 -14 -10 -24.5t-25 -10.5q-14 0 -24.5 10 t-10.5 25z" />
<glyph unicode="&#xb8;" horiz-adv-x="587" d="M184 -547l13 29q14 -6 40 -15t101.5 -23.5t146.5 -14.5q116 0 185 61.5t69 157.5q0 87 -73 152t-203 85l26 144l33 -4l-20 -113q131 -29 200.5 -98.5t69.5 -165.5q0 -112 -77.5 -182t-209.5 -70q-75 0 -150 14t-113 28zM209 -492l12 31q13 -5 36.5 -13.5t93 -22 t134.5 -13.5q91 0 142 44t51 114q0 64 -61.5 114t-176.5 64l4 33q131 -18 199 -75t68 -136q0 -87 -59.5 -139t-166.5 -52q-69 0 -138 12.5t-103 25.5zM399 -119l29 160l33 -6l-29 -160z" />
<glyph unicode="&#xb9;" horiz-adv-x="552" d="M125 702l6 33h350l-6 -33h-350zM137 764l6 33h127l131 749l-127 -49l-10 31l180 67l-145 -831h-162zM246 1587l203 78l10 -31l-203 -78zM328 764l149 854l33 -6l-143 -815h127l-7 -33h-159z" />
<glyph unicode="&#xba;" horiz-adv-x="894" d="M225 1262q0 145 104.5 246.5t248.5 101.5q131 0 217 -88.5t86 -218.5q0 -145 -104.5 -246t-248.5 -101q-131 0 -217 88t-86 218zM258 1262q0 -115 77.5 -194t192.5 -79q128 0 224 93t96 221q0 115 -77.5 194.5t-192.5 79.5q-128 0 -224 -93.5t-96 -221.5zM287 1262 q0 119 86 202.5t205 83.5q105 0 173 -70t68 -175q0 -119 -86 -202t-205 -83q-105 0 -173 69.5t-68 174.5zM319 1262q0 -89 60 -150t149 -61q103 0 180.5 75t77.5 177q0 90 -59.5 151.5t-148.5 61.5q-103 0 -181 -76t-78 -178z" />
<glyph unicode="&#xbb;" horiz-adv-x="1181" d="M57 258l428 383l-288 377l26 20l307 -401l-450 -401zM98 213l461 412l21 -25l-461 -412zM246 1055l24 20l316 -411l-25 -21zM528 258l428 383l-288 377l26 20l307 -401l-450 -401zM569 213l461 412l21 -25l-461 -412zM717 1055l24 20l316 -411l-25 -21z" />
<glyph unicode="&#xbc;" horiz-adv-x="1908" d="M150 702l6 33h350l-6 -33h-350zM162 764l6 33h127l131 749l-127 -49l-10 31l180 67l-145 -831h-162zM174 0l1274 1597h41l-1274 -1597h-41zM250 0l1274 1597h43l-1274 -1597h-43zM270 1587l203 78l10 -31l-202 -78zM352 764l150 854l33 -6l-144 -815h127l-6 -33h-160z M942 324l653 759l23 -22l-651 -758zM985 281q88 63 199 63q60 0 162.5 -21t150.5 -24l-43 -238h-160l6 33h125l33 176q-30 4 -124.5 22.5t-149.5 18.5q-99 0 -180 -57zM1040 344l600 698l25 -20l-532 -621q40 5 51 5q65 0 167.5 -20.5t123.5 -23.5l53 297h35l-62 -331 q-43 3 -148 24t-169 21q-72 0 -144 -29zM1282 0l6 33h350l-6 -33h-350zM1483 61l43 236h24q120 0 201 78l23 -25q-89 -86 -220 -86l-30 -170h127l-6 -33h-162zM1530 326l61 333h35l-55 -301q43 1 72.5 15t64.5 47l23 -25q-40 -38 -80.5 -53.5t-100.5 -15.5h-20z" />
<glyph unicode="&#xbd;" horiz-adv-x="1863" d="M131 702l6 33h350l-6 -33h-350zM143 764l7 33h126l132 749l-127 -49l-11 31l181 67l-146 -831h-162zM166 0l1274 1597h41l-1274 -1597h-41zM242 0l1274 1597h43l-1274 -1597h-43zM252 1587l203 78l10 -31l-203 -78zM334 764l149 854l33 -6l-143 -815h127l-6 -33h-160z M979 8q13 73 43 136.5t64.5 107t84.5 84t88 63.5t89 50q21 11 58.5 29.5t57.5 28.5t51 27.5t47.5 30t37 31t30.5 35.5t17.5 39.5t7.5 46.5q0 71 -56.5 117.5t-140.5 46.5q-47 0 -88.5 -13t-76.5 -40t-54 -74.5t-16 -110.5l-33 -2q-4 72 19 126.5t63.5 85t87.5 45.5t98 15 q100 0 165 -53.5t65 -142.5q0 -29 -8 -55t-19.5 -46t-34.5 -41t-41 -35t-51 -32.5t-53 -29t-59 -29.5t-58 -29q-65 -34 -111.5 -64.5t-100 -80.5t-89.5 -118.5t-51 -154.5zM1036 -10q62 59 154 59q50 0 121 -22q93 -29 139 -29q107 0 165.5 82.5t24.5 208.5l31 8 q39 -145 -28 -238.5t-193 -93.5q-50 0 -150 31q-62 20 -110 20q-46 0 -74 -12t-57 -39zM1049 37q17 71 51 128.5t83 100.5t90.5 70t102.5 59q19 10 58.5 29.5t61 30t56 30.5t54 35t43.5 38.5t36.5 45.5t21.5 51.5t9 61.5q0 99 -75.5 162t-182.5 63q-54 0 -106 -17t-97 -51.5 t-71.5 -94.5t-22.5 -138l-33 -2q-3 69 16.5 126.5t53.5 95.5t79 64.5t90.5 38t90.5 11.5q124 0 207.5 -70.5t83.5 -187.5q0 -36 -10 -69t-23.5 -58t-39.5 -50.5t-47 -42.5t-57 -38t-58.5 -32t-62.5 -31l-58 -29q-52 -28 -87 -49.5t-77.5 -54.5t-73.5 -74t-51 -91 q41 13 86 13q54 0 139 -25q87 -27 121 -27q79 0 118.5 58t12.5 155l31 9q31 -112 -18.5 -183t-143.5 -71q-41 0 -131 28q-75 23 -129 23q-84 0 -141 -41z" />
<glyph unicode="&#xbe;" horiz-adv-x="2164" d="M119 723l20 25q157 -115 320 -115q141 0 236.5 78t95.5 202q0 92 -58 160t-178 96q153 26 221 94t68 154q0 81 -66.5 145t-177.5 64t-185.5 -65t-86.5 -179l-33 4q13 123 99.5 198t205.5 75q128 0 202.5 -72.5t74.5 -169.5q0 -81 -49 -148t-158 -106q153 -79 153 -250 q0 -142 -103.5 -227.5t-260.5 -85.5q-78 0 -168 31t-172 92zM156 770l20 27q136 -103 283 -103q118 0 194 61t76 158q0 96 -80.5 153.5t-263.5 57.5l6 33h21q181 -4 265.5 -71.5t84.5 -172.5q0 -114 -84.5 -182.5t-218.5 -68.5q-159 0 -303 108zM356 1378q12 105 77 162 t167 57q101 0 158 -53.5t57 -126.5q0 -35 -12 -66t-42 -62t-76 -53.5t-120 -36t-168 -13.5l6 33h21q101 1 174 19t111.5 47.5t55.5 62t17 69.5q0 59 -49 103.5t-133 44.5q-90 0 -145.5 -49t-65.5 -142zM430 0l1274 1597h41l-1274 -1597h-41zM506 0l1274 1597h43l-1274 -1597 h-43zM1198 324l653 759l23 -22l-651 -758zM1241 281q88 63 199 63q60 0 162.5 -21t150.5 -24l-43 -238h-160l6 33h125l33 176q-30 4 -124.5 22.5t-149.5 18.5q-99 0 -180 -57zM1296 344l600 698l25 -20l-532 -621q40 5 51 5q65 0 167.5 -20.5t123.5 -23.5l53 297h35 l-62 -331q-43 3 -148 24t-169 21q-72 0 -144 -29zM1538 0l6 33h350l-6 -33h-350zM1739 61l43 236h24q120 0 201 78l23 -25q-89 -86 -220 -86l-30 -170h127l-6 -33h-162zM1786 326l61 333h35l-55 -301q43 1 72.5 15t64.5 47l23 -25q-40 -38 -80.5 -53.5t-100.5 -15.5h-20z " />
<glyph unicode="&#xbf;" horiz-adv-x="1015" d="M35 307q0 66 22.5 125.5t54.5 102.5t84.5 86.5t94 70t102.5 60.5q150 85 196 123q99 81 83 172l-13 61l31 6l12 -61q10 -53 -4.5 -96.5t-66.5 -87.5t-86 -66t-120 -71l-15 -9q-61 -34 -100.5 -59.5t-90 -66.5t-80 -80t-50.5 -94t-21 -116q0 -129 93 -217t242 -88 q106 0 200 48t155.5 137t70.5 200l33 -2q-10 -118 -77.5 -214.5t-169 -149t-212.5 -52.5q-165 0 -266.5 97t-101.5 241zM96 307q0 47 12 89.5t37.5 78.5t52 64.5t69.5 59t75 50.5t82 49q144 84 192 120q128 100 118 215q-1 12 -3 24l-12 61l33 8l12 -63q9 -39 2.5 -75 t-19 -65.5t-37 -58t-51 -52t-61 -46.5t-67 -42.5t-68.5 -40.5q-16 -9 -23 -13q-60 -34 -97 -57.5t-82.5 -59.5t-70.5 -69.5t-43 -79.5t-18 -97q0 -104 75.5 -174t198.5 -70q143 0 248 92t117 238l33 -4q-13 -158 -128 -258t-270 -100q-140 0 -223.5 78t-83.5 198zM659 1526 q0 38 28.5 66t66.5 28t66 -28t28 -66t-28 -66t-66 -28t-66.5 28t-28.5 66zM690 1526q0 -26 19 -45t45 -19t44.5 19t18.5 45t-18.5 44.5t-44.5 18.5t-45 -18.5t-19 -44.5zM719 1526q0 14 10 24.5t25 10.5q14 0 24 -10t10 -25q0 -14 -9.5 -24.5t-24.5 -10.5q-14 0 -24.5 10 t-10.5 25z" />
<glyph unicode="&#xc0;" d="M-152 0l7 33h591l-6 -33h-592zM-139 61l6 33h227l924 1528l29 -16l-932 -1545h-254zM147 61l285 471h879l119 -471h-304l7 33h256l-103 406h-835l-244 -406h252l-6 -33h-306zM451 561l602 998l252 -998h-854zM508 594h756l-224 881zM874 2046l21 25l414 -322l-21 -25z M911 2093l21 27l414 -322l-21 -26zM1073 1602l31 8l381 -1516h239l-6 -33h-258zM1114 0l6 33h592l-6 -33h-592z" />
<glyph unicode="&#xc1;" d="M-152 0l7 33h591l-6 -33h-592zM-139 61l6 33h227l924 1528l29 -16l-932 -1545h-254zM147 61l285 471h879l119 -471h-304l7 33h256l-103 406h-835l-244 -406h252l-6 -33h-306zM451 561l602 998l252 -998h-854zM508 594h756l-224 881zM823 1806l525 322l16 -29l-522 -321z M856 1753l522 322l19 -29l-525 -322zM1073 1602l31 8l381 -1516h239l-6 -33h-258zM1114 0l6 33h592l-6 -33h-592z" />
<glyph unicode="&#xc2;" d="M-152 0l7 33h591l-6 -33h-592zM-139 61l6 33h227l924 1528l29 -16l-932 -1545h-254zM147 61l285 471h879l119 -471h-304l7 33h256l-103 406h-835l-244 -406h252l-6 -33h-306zM451 561l602 998l252 -998h-854zM508 594h756l-224 881zM750 1823l383 245l299 -247l-23 -27 l-279 236l-364 -234zM782 1772l344 221l267 -219l-23 -27l-246 207l-325 -209zM1073 1602l31 8l381 -1516h239l-6 -33h-258zM1114 0l6 33h592l-6 -33h-592z" />
<glyph unicode="&#xc3;" d="M-152 0l7 33h591l-6 -33h-592zM-139 61l6 33h227l924 1528l29 -16l-932 -1545h-254zM147 61l285 471h879l119 -471h-304l7 33h256l-103 406h-835l-244 -406h252l-6 -33h-306zM451 561l602 998l252 -998h-854zM508 594h756l-224 881zM717 1780q8 46 26 89.5t47 82 t72.5 61.5t95.5 23q94 0 185 -117q33 -42 59 -61t53 -19q59 0 96 50t50 128l33 -6q-15 -89 -59 -147t-120 -58q-38 0 -69 22t-68 70q-79 105 -160 105q-87 0 -140 -67.5t-68 -161.5zM778 1767q15 89 59.5 148t120.5 59q38 0 68.5 -21.5t67.5 -70.5q80 -104 161 -104 q87 0 139.5 66.5t67.5 160.5l33 -4q-8 -46 -26 -89t-46.5 -81.5t-72 -62t-95.5 -23.5q-98 0 -186 117q-60 80 -111 80q-59 0 -96.5 -50.5t-50.5 -128.5zM1073 1602l31 8l381 -1516h239l-6 -33h-258zM1114 0l6 33h592l-6 -33h-592z" />
<glyph unicode="&#xc4;" d="M-152 0l7 33h591l-6 -33h-592zM-139 61l6 33h227l924 1528l29 -16l-932 -1545h-254zM147 61l285 471h879l119 -471h-304l7 33h256l-103 406h-835l-244 -406h252l-6 -33h-306zM451 561l602 998l252 -998h-854zM508 594h756l-224 881zM803 1860q0 38 28 66t66 28t66 -28 t28 -66t-28 -66.5t-66 -28.5t-66 28.5t-28 66.5zM834 1860q0 -26 18.5 -45t44.5 -19t45 19t19 45t-19 44.5t-45 18.5t-44.5 -18.5t-18.5 -44.5zM862 1860q0 14 10 24t25 10q14 0 24.5 -9.5t10.5 -24.5q0 -14 -10 -24.5t-25 -10.5q-14 0 -24.5 10t-10.5 25zM1073 1602l31 8 l381 -1516h239l-6 -33h-258zM1114 0l6 33h592l-6 -33h-592zM1212 1860q0 38 28.5 66t66.5 28t66 -28t28 -66t-28 -66.5t-66 -28.5t-66.5 28.5t-28.5 66.5zM1243 1860q0 -26 19 -45t45 -19t44.5 19t18.5 45t-18.5 44.5t-44.5 18.5t-45 -18.5t-19 -44.5zM1272 1860q0 14 10 24 t25 10q14 0 24 -9.5t10 -24.5q0 -14 -9.5 -24.5t-24.5 -10.5q-14 0 -24.5 10t-10.5 25z" />
<glyph unicode="&#xc5;" d="M-152 0l7 33h591l-6 -33h-592zM-139 61l6 33h227l899 1487q-60 25 -96.5 81t-36.5 126q0 94 65 159.5t160 65.5t160.5 -65t65.5 -160q0 -87 -56 -149.5t-141 -73.5l371 -1471h239l-6 -33h-258l-387 1534h12q78 0 135.5 57.5t57.5 135.5t-57.5 135t-135.5 57t-135 -57 t-57 -135q0 -67 42.5 -120.5t106.5 -68.5l-927 -1538h-254zM147 61l285 471h879l119 -471h-304l7 33h256l-103 406h-835l-244 -406h252l-6 -33h-306zM451 561l602 998l252 -998h-854zM508 594h756l-224 881zM922 1788q0 69 47 116.5t116 47.5t116.5 -47.5t47.5 -116.5 t-47.5 -116.5t-116.5 -47.5t-116 47.5t-47 116.5zM954 1788q0 -54 38.5 -92.5t92.5 -38.5q53 0 92.5 38.5t39.5 92.5q0 52 -39.5 91.5t-92.5 39.5q-54 0 -92.5 -39t-38.5 -92zM1114 0l6 33h592l-6 -33h-592z" />
<glyph unicode="&#xc6;" horiz-adv-x="2482" d="M-158 0l6 33h590l-6 -33h-590zM-145 61l6 33h233l1245 1409h-172l7 33h237l-1302 -1475h-254zM145 61l428 484h760l-84 -484h-280l6 33h246l73 418h-706l-371 -418h234l-7 -33h-299zM598 573l852 963h57l-168 -963h-741zM670 606h641l157 897h-4zM956 0l7 33h1275l58 325 h35l-66 -358h-1309zM1180 1565l6 32h1343l-61 -360h-35l57 328h-1310zM1278 61l131 740h723l-6 -33h-690l-119 -674h870l45 264h35l-53 -297h-936zM1413 829l125 707h920l-54 -299h-34l47 266h-852l-113 -641h692l-6 -33h-725z" />
<glyph unicode="&#xc7;" horiz-adv-x="1691" d="M123 741q0 179 73.5 343.5t195.5 283.5t288 189.5t344 70.5q174 0 322.5 -68.5t222.5 -189.5l41 227h35l-62 -340q-29 101 -113 179t-200.5 118.5t-245.5 40.5q-171 0 -330.5 -68.5t-277.5 -183.5t-189 -273t-71 -329q0 -180 76 -335t211.5 -258t306.5 -134l-29 -157 l-33 6l23 127q-260 57 -424 265.5t-164 485.5zM184 741q0 166 68.5 319.5t182 264t268.5 176.5t321 66q143 0 265 -47.5t198.5 -139t81.5 -209.5l-45 -256h-35l45 263q-7 104 -79.5 186t-186 126t-244.5 44q-127 0 -248.5 -40.5t-221.5 -115t-176.5 -172t-118.5 -218 t-42 -247.5q0 -186 87.5 -341.5t241.5 -246t341 -90.5q162 0 295.5 48.5t273.5 167.5l21 -25q-142 -122 -282.5 -172.5t-307.5 -50.5q-148 0 -279 55.5t-224 150.5t-146.5 226t-53.5 278zM473 -565l12 28q14 -6 40 -15t102 -23.5t147 -14.5q116 0 185 61.5t69 157.5 q0 87 -73 152.5t-203 85.5l26 141q52 -6 109 -6q169 0 314.5 52.5t293.5 176.5l23 -24q-150 -128 -304 -183t-327 -55q-28 0 -82 4l-14 -79q130 -29 200 -98.5t70 -166.5q0 -112 -77.5 -182t-209.5 -70q-75 0 -150 14.5t-113 28.5zM498 -510l12 31q13 -5 36.5 -13.5t93 -22 t134.5 -13.5q91 0 142 43.5t51 113.5q0 64 -61.5 114t-176.5 64l4 33q131 -18 198.5 -75t67.5 -136q0 -86 -59 -138t-166 -52q-69 0 -138 12.5t-104 25.5zM1552 915l45 256l76 426h35l-123 -682h-33z" />
<glyph unicode="&#xc8;" horiz-adv-x="1501" d="M-20 0l6 33h1271l58 327h35l-66 -360h-1304zM-8 61l6 33h244l247 1409h-247l6 33h280l-258 -1475h-278zM254 1565l6 32h1290l-61 -360h-35l57 328h-1257zM299 61l131 740h723l-6 -33h-690l-119 -674h868l45 266h35l-53 -299h-934zM434 829l125 707h920l-54 -299h-34 l47 266h-852l-113 -641h692l-6 -33h-725zM772 2044l21 24l413 -321l-20 -25zM809 2091l20 27l414 -322l-20 -27z" />
<glyph unicode="&#xc9;" horiz-adv-x="1501" d="M-20 0l6 33h1271l58 327h35l-66 -360h-1304zM-8 61l6 33h244l247 1409h-247l6 33h280l-258 -1475h-278zM254 1565l6 32h1290l-61 -360h-35l57 328h-1257zM299 61l131 740h723l-6 -33h-690l-119 -674h868l45 266h35l-53 -299h-934zM434 829l125 707h920l-54 -299h-34 l47 266h-852l-113 -641h692l-6 -33h-725zM723 1806l524 322l17 -29l-523 -321zM756 1753l522 322l18 -29l-524 -322z" />
<glyph unicode="&#xca;" horiz-adv-x="1501" d="M-20 0l6 33h1271l58 327h35l-66 -360h-1304zM-8 61l6 33h244l247 1409h-247l6 33h280l-258 -1475h-278zM254 1565l6 32h1290l-61 -360h-35l57 328h-1257zM299 61l131 740h723l-6 -33h-690l-119 -674h868l45 266h35l-53 -299h-934zM434 829l125 707h920l-54 -299h-34 l47 266h-852l-113 -641h692l-6 -33h-725zM649 1823l383 245l299 -247l-22 -27l-279 236l-364 -234zM682 1772l344 221l266 -219l-22 -27l-246 207l-326 -209z" />
<glyph unicode="&#xcb;" horiz-adv-x="1501" d="M-20 0l6 33h1271l58 327h35l-66 -360h-1304zM-8 61l6 33h244l247 1409h-247l6 33h280l-258 -1475h-278zM254 1565l6 32h1290l-61 -360h-35l57 328h-1257zM299 61l131 740h723l-6 -33h-690l-119 -674h868l45 266h35l-53 -299h-934zM434 829l125 707h920l-54 -299h-34 l47 266h-852l-113 -641h692l-6 -33h-725zM700 1860q0 38 28.5 66t66.5 28t66 -28t28 -66t-28 -66.5t-66 -28.5t-66.5 28.5t-28.5 66.5zM731 1860q0 -26 19 -45t45 -19t44.5 19t18.5 45t-18.5 44.5t-44.5 18.5t-45 -18.5t-19 -44.5zM760 1860q0 14 10 24t25 10q14 0 24 -9.5 t10 -24.5q0 -14 -9.5 -24.5t-24.5 -10.5q-14 0 -24.5 10t-10.5 25zM1110 1860q0 38 28 66t66 28t66 -28t28 -66t-28 -66.5t-66 -28.5t-66 28.5t-28 66.5zM1141 1860q0 -26 18.5 -45t44.5 -19t45 19t19 45t-19 44.5t-45 18.5t-44.5 -18.5t-18.5 -44.5zM1169 1860q0 14 10 24 t25 10q14 0 24.5 -9.5t10.5 -24.5q0 -14 -10 -24.5t-25 -10.5q-14 0 -24.5 10t-10.5 25z" />
<glyph unicode="&#xcc;" horiz-adv-x="778" d="M-20 0l6 33h589l-6 -33h-589zM-8 61l6 33h244l245 1409h-247l6 33h280l-256 -1475h-278zM252 1565l6 32h592l-6 -32h-592zM299 61l258 1475h281l-7 -33h-247l-246 -1409h250l-6 -33h-283zM373 2046l20 25l414 -322l-21 -25zM410 2093l20 27l414 -322l-21 -26z" />
<glyph unicode="&#xcd;" horiz-adv-x="778" d="M-20 0l6 33h589l-6 -33h-589zM-8 61l6 33h244l245 1409h-247l6 33h280l-256 -1475h-278zM252 1565l6 32h592l-6 -32h-592zM299 61l258 1475h281l-7 -33h-247l-246 -1409h250l-6 -33h-283zM324 1806l524 322l16 -29l-522 -321zM356 1753l523 322l18 -29l-524 -322z" />
<glyph unicode="&#xce;" horiz-adv-x="778" d="M-20 0l6 33h589l-6 -33h-589zM-8 61l6 33h244l245 1409h-247l6 33h280l-256 -1475h-278zM248 1823l383 245l299 -247l-23 -27l-278 236l-365 -234zM252 1565l6 32h592l-6 -32h-592zM281 1772l344 221l266 -219l-23 -27l-245 207l-326 -209zM299 61l258 1475h281l-7 -33 h-247l-246 -1409h250l-6 -33h-283z" />
<glyph unicode="&#xcf;" horiz-adv-x="778" d="M-20 0l6 33h589l-6 -33h-589zM-8 61l6 33h244l245 1409h-247l6 33h280l-256 -1475h-278zM252 1565l6 32h592l-6 -32h-592zM299 61l258 1475h281l-7 -33h-247l-246 -1409h250l-6 -33h-283zM301 1860q0 38 28 66t66 28t66 -28t28 -66t-28 -66.5t-66 -28.5t-66 28.5 t-28 66.5zM332 1860q0 -26 18.5 -45t44.5 -19t45 19t19 45t-19 44.5t-45 18.5t-44.5 -18.5t-18.5 -44.5zM360 1860q0 14 10 24t25 10q14 0 24.5 -9.5t10.5 -24.5q0 -14 -10 -24.5t-25 -10.5q-14 0 -24.5 10t-10.5 25zM711 1860q0 38 28 66t66 28t66 -28t28 -66t-28 -66.5 t-66 -28.5t-66 28.5t-28 66.5zM741 1860q0 -26 19 -45t45 -19t44.5 19t18.5 45t-18.5 44.5t-44.5 18.5t-45 -18.5t-19 -44.5zM770 1860q0 14 10 24t25 10q14 0 24.5 -9.5t10.5 -24.5q0 -14 -10 -24.5t-25 -10.5q-14 0 -24.5 10t-10.5 25z" />
<glyph unicode="&#xd0;" horiz-adv-x="1775" d="M-20 0l6 33h811q191 0 355.5 71.5t277.5 193t177 287.5t64 351q0 197 -88 341t-238.5 216t-345.5 72h-745l6 32h739q206 0 364 -75t249.5 -226t91.5 -360q0 -193 -66 -364.5t-183 -298t-288 -200t-370 -73.5h-817zM-8 61l6 33h244l118 676h-221l6 33h254l-129 -742h-278z M152 831l6 33h219l112 639h-247l6 33h280l-122 -705h-254zM299 61l131 742h350l-6 -33h-317l-119 -676h459q177 0 330 66.5t258 180t165 268t60 327.5q0 269 -168 418t-443 149h-413l-113 -639h320l-7 -33h-352l125 705h440q190 0 334 -67.5t226.5 -204.5t82.5 -328 q0 -181 -61.5 -341.5t-170 -278.5t-268 -186.5t-345.5 -68.5h-498z" />
<glyph unicode="&#xd1;" horiz-adv-x="1900" d="M-23 0l7 33h589l-6 -33h-590zM-10 61l6 33h244l247 1409h-247l6 33h280l-258 -1475h-278zM252 1565l6 32h313l826 -1460l239 1366h-247l6 33h280l-262 -1495l-860 1524h-301zM297 61l254 1446l858 -1513l-29 -17l-811 1436l-233 -1319h250l-6 -33h-283zM791 1780 q8 46 26 89.5t47 82t72.5 61.5t95.5 23q94 0 185 -117q33 -42 59 -61t53 -19q59 0 96 50t50 128l32 -6q-15 -90 -58.5 -147.5t-119.5 -57.5q-38 0 -69 22t-68 70q-79 105 -160 105q-87 0 -140.5 -67.5t-68.5 -161.5zM852 1767q15 89 59.5 148t120.5 59q38 0 68 -21.5 t67 -70.5q80 -104 162 -104q87 0 139.5 66.5t67.5 160.5l33 -4q-8 -46 -26 -89t-46.5 -81.5t-72 -62t-95.5 -23.5q-98 0 -186 117q-60 80 -111 80q-59 0 -96.5 -50.5t-50.5 -128.5zM1401 1565l6 32h592l-6 -32h-592zM1436 -2l270 1538h281l-7 -33h-247l-265 -1511z" />
<glyph unicode="&#xd2;" horiz-adv-x="1861" d="M123 741q0 180 73.5 344.5t195.5 283t288 189t344 70.5q161 0 303 -60.5t243 -164t159.5 -246t58.5 -301.5q0 -179 -73.5 -344t-196 -283.5t-288.5 -189t-343 -70.5q-161 0 -303.5 60.5t-243 164t-159 246t-58.5 301.5zM156 741q0 -152 56 -288.5t153 -235.5t233 -157 t289 -58q170 0 329.5 68.5t277.5 183t189.5 273t71.5 329.5q0 151 -56.5 288t-153.5 236t-233 157t-288 58q-171 0 -330.5 -68.5t-277.5 -183t-189 -273t-71 -329.5zM184 741q0 167 68.5 320.5t182 264t268.5 176t321 65.5q197 0 358.5 -94.5t252.5 -257.5t91 -359 q0 -223 -115.5 -413.5t-309 -301t-414.5 -110.5q-148 0 -279 55.5t-224 150.5t-146.5 226t-53.5 278zM217 741q0 -186 87.5 -341.5t241.5 -246t341 -90.5q126 0 247.5 40.5t221.5 114.5t176.5 171.5t119 218.5t42.5 248q0 186 -87.5 341.5t-242 246t-340.5 90.5 q-127 0 -248.5 -40.5t-221.5 -114.5t-176.5 -171.5t-118.5 -218.5t-42 -248zM918 2046l20 25l414 -322l-21 -25zM954 2093l21 27l414 -322l-21 -26z" />
<glyph unicode="&#xd3;" horiz-adv-x="1861" d="M123 741q0 180 73.5 344.5t195.5 283t288 189t344 70.5q161 0 303 -60.5t243 -164t159.5 -246t58.5 -301.5q0 -179 -73.5 -344t-196 -283.5t-288.5 -189t-343 -70.5q-161 0 -303.5 60.5t-243 164t-159 246t-58.5 301.5zM156 741q0 -152 56 -288.5t153 -235.5t233 -157 t289 -58q170 0 329.5 68.5t277.5 183t189.5 273t71.5 329.5q0 151 -56.5 288t-153.5 236t-233 157t-288 58q-171 0 -330.5 -68.5t-277.5 -183t-189 -273t-71 -329.5zM184 741q0 167 68.5 320.5t182 264t268.5 176t321 65.5q197 0 358.5 -94.5t252.5 -257.5t91 -359 q0 -223 -115.5 -413.5t-309 -301t-414.5 -110.5q-148 0 -279 55.5t-224 150.5t-146.5 226t-53.5 278zM217 741q0 -186 87.5 -341.5t241.5 -246t341 -90.5q126 0 247.5 40.5t221.5 114.5t176.5 171.5t119 218.5t42.5 248q0 186 -87.5 341.5t-242 246t-340.5 90.5 q-127 0 -248.5 -40.5t-221.5 -114.5t-176.5 -171.5t-118.5 -218.5t-42 -248zM868 1806l525 322l16 -29l-522 -321zM901 1753l522 322l19 -29l-524 -322z" />
<glyph unicode="&#xd4;" horiz-adv-x="1861" d="M123 741q0 180 73.5 344.5t195.5 283t288 189t344 70.5q161 0 303 -60.5t243 -164t159.5 -246t58.5 -301.5q0 -179 -73.5 -344t-196 -283.5t-288.5 -189t-343 -70.5q-161 0 -303.5 60.5t-243 164t-159 246t-58.5 301.5zM156 741q0 -152 56 -288.5t153 -235.5t233 -157 t289 -58q170 0 329.5 68.5t277.5 183t189.5 273t71.5 329.5q0 151 -56.5 288t-153.5 236t-233 157t-288 58q-171 0 -330.5 -68.5t-277.5 -183t-189 -273t-71 -329.5zM184 741q0 167 68.5 320.5t182 264t268.5 176t321 65.5q197 0 358.5 -94.5t252.5 -257.5t91 -359 q0 -223 -115.5 -413.5t-309 -301t-414.5 -110.5q-148 0 -279 55.5t-224 150.5t-146.5 226t-53.5 278zM217 741q0 -186 87.5 -341.5t241.5 -246t341 -90.5q126 0 247.5 40.5t221.5 114.5t176.5 171.5t119 218.5t42.5 248q0 186 -87.5 341.5t-242 246t-340.5 90.5 q-127 0 -248.5 -40.5t-221.5 -114.5t-176.5 -171.5t-118.5 -218.5t-42 -248zM793 1823l383 245l299 -247l-23 -27l-278 236l-365 -234zM825 1772l344 221l267 -219l-23 -27l-246 207l-325 -209z" />
<glyph unicode="&#xd5;" horiz-adv-x="1861" d="M123 741q0 180 73.5 344.5t195.5 283t288 189t344 70.5q161 0 303 -60.5t243 -164t159.5 -246t58.5 -301.5q0 -179 -73.5 -344t-196 -283.5t-288.5 -189t-343 -70.5q-161 0 -303.5 60.5t-243 164t-159 246t-58.5 301.5zM156 741q0 -152 56 -288.5t153 -235.5t233 -157 t289 -58q170 0 329.5 68.5t277.5 183t189.5 273t71.5 329.5q0 151 -56.5 288t-153.5 236t-233 157t-288 58q-171 0 -330.5 -68.5t-277.5 -183t-189 -273t-71 -329.5zM184 741q0 167 68.5 320.5t182 264t268.5 176t321 65.5q197 0 358.5 -94.5t252.5 -257.5t91 -359 q0 -223 -115.5 -413.5t-309 -301t-414.5 -110.5q-148 0 -279 55.5t-224 150.5t-146.5 226t-53.5 278zM217 741q0 -186 87.5 -341.5t241.5 -246t341 -90.5q126 0 247.5 40.5t221.5 114.5t176.5 171.5t119 218.5t42.5 248q0 186 -87.5 341.5t-242 246t-340.5 90.5 q-127 0 -248.5 -40.5t-221.5 -114.5t-176.5 -171.5t-118.5 -218.5t-42 -248zM760 1786q8 46 26 89.5t47 82t72.5 61.5t95.5 23q94 0 185 -117q33 -42 59 -61t53 -19q59 0 96 50t50 128l33 -6q-15 -89 -59 -147t-120 -58q-38 0 -68.5 22t-68.5 71q-78 104 -160 104 q-87 0 -140 -67.5t-68 -161.5zM821 1774q15 89 59.5 147.5t120.5 58.5q38 0 68.5 -21.5t67.5 -70.5q80 -104 161 -104q87 0 139.5 66.5t67.5 160.5l33 -4q-8 -46 -26 -89t-46.5 -81.5t-72 -62t-95.5 -23.5q-98 0 -186 117q-60 80 -111 80q-59 0 -96.5 -50.5t-50.5 -128.5z " />
<glyph unicode="&#xd6;" horiz-adv-x="1861" d="M123 741q0 180 73.5 344.5t195.5 283t288 189t344 70.5q161 0 303 -60.5t243 -164t159.5 -246t58.5 -301.5q0 -179 -73.5 -344t-196 -283.5t-288.5 -189t-343 -70.5q-161 0 -303.5 60.5t-243 164t-159 246t-58.5 301.5zM156 741q0 -152 56 -288.5t153 -235.5t233 -157 t289 -58q170 0 329.5 68.5t277.5 183t189.5 273t71.5 329.5q0 151 -56.5 288t-153.5 236t-233 157t-288 58q-171 0 -330.5 -68.5t-277.5 -183t-189 -273t-71 -329.5zM184 741q0 167 68.5 320.5t182 264t268.5 176t321 65.5q197 0 358.5 -94.5t252.5 -257.5t91 -359 q0 -223 -115.5 -413.5t-309 -301t-414.5 -110.5q-148 0 -279 55.5t-224 150.5t-146.5 226t-53.5 278zM217 741q0 -186 87.5 -341.5t241.5 -246t341 -90.5q126 0 247.5 40.5t221.5 114.5t176.5 171.5t119 218.5t42.5 248q0 186 -87.5 341.5t-242 246t-340.5 90.5 q-127 0 -248.5 -40.5t-221.5 -114.5t-176.5 -171.5t-118.5 -218.5t-42 -248zM844 1860q0 38 28 66t66 28t66 -28t28 -66t-28 -66.5t-66 -28.5t-66 28.5t-28 66.5zM874 1860q0 -26 19 -45t45 -19t44.5 19t18.5 45t-18.5 44.5t-44.5 18.5t-45 -18.5t-19 -44.5zM903 1860 q0 14 10 24t25 10q14 0 24.5 -9.5t10.5 -24.5q0 -14 -10 -24.5t-25 -10.5q-14 0 -24.5 10t-10.5 25zM1253 1860q0 38 28.5 66t66.5 28t66 -28t28 -66t-28 -66.5t-66 -28.5t-66.5 28.5t-28.5 66.5zM1284 1860q0 -26 19 -45t45 -19t44.5 19t18.5 45t-18.5 44.5t-44.5 18.5 t-45 -18.5t-19 -44.5zM1313 1860q0 14 10 24t25 10q14 0 24 -9.5t10 -24.5q0 -14 -9.5 -24.5t-24.5 -10.5q-14 0 -24.5 10t-10.5 25z" />
<glyph unicode="&#xd7;" horiz-adv-x="1140" d="M98 399l418 355l-289 348l27 20l307 -372l-442 -375zM137 354l443 375l311 -375l-27 -20l-289 346l-415 -352zM274 1141l27 22l289 -348l416 352l20 -24l-444 -375zM600 745l444 377l23 -26l-418 -355l289 -346l-27 -22z" />
<glyph unicode="&#xd8;" horiz-adv-x="1861" d="M123 741q0 180 73.5 344.5t195.5 283t288 189t344 70.5q240 0 438 -135l88 104h45l-125 -153q-198 151 -446 151q-171 0 -330.5 -68.5t-277.5 -183t-189 -273t-71 -329.5t69.5 -319.5t192.5 -251.5l-139 -170h-46l136 166q-117 105 -181.5 255t-64.5 320zM184 741 q0 167 68.5 320.5t182 264t268.5 176t321 65.5q241 0 428 -144l-1018 -1233q-118 98 -184 241t-66 310zM217 741q0 -149 56 -278t157 -223l973 1179q-169 115 -379 115q-127 0 -248.5 -40.5t-221.5 -114.5t-176.5 -171.5t-118.5 -218.5t-42 -248zM313 0l125 152 q196 -150 449 -150q170 0 329.5 68.5t277.5 183t189.5 273t71.5 329.5q0 170 -69.5 319t-192.5 252l139 170h43l-137 -165q118 -107 184 -256.5t66 -319.5q0 -179 -73.5 -344t-196 -283.5t-288.5 -189t-343 -70.5q-250 0 -443 135l-86 -104h-45zM457 172l1018 1235 q118 -98 184.5 -241.5t66.5 -309.5q0 -223 -115.5 -413.5t-309 -301t-414.5 -110.5q-243 0 -430 141zM506 178q165 -115 381 -115q126 0 247.5 40.5t221.5 114.5t176.5 171.5t119 218.5t42.5 248q0 147 -57 277.5t-158 224.5z" />
<glyph unicode="&#xd9;" horiz-adv-x="1855" d="M203 1503l6 33h278l-168 -946q-27 -161 35 -297t191 -213.5t293 -77.5q105 0 203.5 34t176 92t139 133t100 158.5t52.5 166.5l168 950h281l-6 -33h-248l-162 -923q-15 -86 -55 -173t-105 -165.5t-146 -139.5t-184.5 -97t-213.5 -36q-173 0 -309.5 83t-203 228t-38.5 316 l162 907h-246zM215 1565l6 32h590l-6 -32h-590zM348 586l170 950h281l-6 -33h-248l-164 -923q-24 -141 30.5 -260.5t168 -188t258.5 -68.5q119 0 227.5 47t186 123.5t129 171t67.5 191.5l160 907h-248l6 33h281l-166 -946q-18 -102 -72 -200.5t-135 -179t-195.5 -130 t-240.5 -49.5q-115 0 -214.5 43.5t-166.5 117.5t-97.5 177.5t-11.5 216.5zM911 2046l21 25l414 -322l-21 -25zM948 2093l21 27l413 -322l-20 -26zM1372 1565l6 32h592l-6 -32h-592z" />
<glyph unicode="&#xda;" horiz-adv-x="1855" d="M203 1503l6 33h278l-168 -946q-27 -161 35 -297t191 -213.5t293 -77.5q105 0 203.5 34t176 92t139 133t100 158.5t52.5 166.5l168 950h281l-6 -33h-248l-162 -923q-15 -86 -55 -173t-105 -165.5t-146 -139.5t-184.5 -97t-213.5 -36q-173 0 -309.5 83t-203 228t-38.5 316 l162 907h-246zM215 1565l6 32h590l-6 -32h-590zM348 586l170 950h281l-6 -33h-248l-164 -923q-24 -141 30.5 -260.5t168 -188t258.5 -68.5q119 0 227.5 47t186 123.5t129 171t67.5 191.5l160 907h-248l6 33h281l-166 -946q-18 -102 -72 -200.5t-135 -179t-195.5 -130 t-240.5 -49.5q-115 0 -214.5 43.5t-166.5 117.5t-97.5 177.5t-11.5 216.5zM862 1806l524 322l17 -29l-522 -321zM895 1753l522 322l19 -29l-525 -322zM1372 1565l6 32h592l-6 -32h-592z" />
<glyph unicode="&#xdb;" horiz-adv-x="1855" d="M203 1503l6 33h278l-168 -946q-27 -161 35 -297t191 -213.5t293 -77.5q105 0 203.5 34t176 92t139 133t100 158.5t52.5 166.5l168 950h281l-6 -33h-248l-162 -923q-15 -86 -55 -173t-105 -165.5t-146 -139.5t-184.5 -97t-213.5 -36q-173 0 -309.5 83t-203 228t-38.5 316 l162 907h-246zM215 1565l6 32h590l-6 -32h-590zM348 586l170 950h281l-6 -33h-248l-164 -923q-24 -141 30.5 -260.5t168 -188t258.5 -68.5q119 0 227.5 47t186 123.5t129 171t67.5 191.5l160 907h-248l6 33h281l-166 -946q-18 -102 -72 -200.5t-135 -179t-195.5 -130 t-240.5 -49.5q-115 0 -214.5 43.5t-166.5 117.5t-97.5 177.5t-11.5 216.5zM786 1823l383 245l299 -247l-22 -27l-279 236l-364 -234zM819 1772l344 221l267 -219l-23 -27l-246 207l-325 -209zM1372 1565l6 32h592l-6 -32h-592z" />
<glyph unicode="&#xdc;" horiz-adv-x="1855" d="M203 1503l6 33h278l-168 -946q-27 -161 35 -297t191 -213.5t293 -77.5q105 0 203.5 34t176 92t139 133t100 158.5t52.5 166.5l168 950h281l-6 -33h-248l-162 -923q-15 -86 -55 -173t-105 -165.5t-146 -139.5t-184.5 -97t-213.5 -36q-173 0 -309.5 83t-203 228t-38.5 316 l162 907h-246zM215 1565l6 32h590l-6 -32h-590zM348 586l170 950h281l-6 -33h-248l-164 -923q-24 -141 30.5 -260.5t168 -188t258.5 -68.5q119 0 227.5 47t186 123.5t129 171t67.5 191.5l160 907h-248l6 33h281l-166 -946q-18 -102 -72 -200.5t-135 -179t-195.5 -130 t-240.5 -49.5q-115 0 -214.5 43.5t-166.5 117.5t-97.5 177.5t-11.5 216.5zM840 1860q0 38 28 66t66 28t66 -28t28 -66t-28 -66.5t-66 -28.5t-66 28.5t-28 66.5zM870 1860q0 -26 19 -45t45 -19t44.5 19t18.5 45t-18.5 44.5t-44.5 18.5t-45 -18.5t-19 -44.5zM899 1860 q0 14 10 24t25 10q14 0 24.5 -9.5t10.5 -24.5q0 -14 -10 -24.5t-25 -10.5q-14 0 -24.5 10t-10.5 25zM1249 1860q0 38 28 66t66 28t66.5 -28t28.5 -66t-28.5 -66.5t-66.5 -28.5t-66 28.5t-28 66.5zM1280 1860q0 -26 18.5 -45t44.5 -19t45 19t19 45t-19 44.5t-45 18.5 t-44.5 -18.5t-18.5 -44.5zM1309 1860q0 14 9.5 24t24.5 10q14 0 24.5 -9.5t10.5 -24.5q0 -14 -10 -24.5t-25 -10.5q-14 0 -24 10t-10 25zM1372 1565l6 32h592l-6 -32h-592z" />
<glyph unicode="&#xdd;" horiz-adv-x="1646" d="M115 1503l6 33h258l420 -920l-99 -555h-280l6 33h246l92 518l-408 891h-241zM127 1565l6 32h588l-6 -32h-588zM408 0l6 33h592l-7 -33h-591zM408 1536h301l-7 -33h-241l362 -796l645 796h-237l6 33h301l-721 -891zM729 61l98 553l744 922h258l-6 -33h-234l-731 -905 l-90 -504h250l-6 -33h-283zM756 1806l524 322l16 -29l-522 -321zM788 1753l523 322l18 -29l-524 -322zM1243 1565l6 32h592l-6 -32h-592z" />
<glyph unicode="&#xde;" horiz-adv-x="1640" d="M-20 0l6 33h589l-6 -33h-589zM-8 61l6 33h244l247 1409h-247l6 33h280l-258 -1475h-278zM254 1565l6 32h592l-6 -32h-592zM299 61l47 271h615q124 0 237 43.5t193 115.5t127 167t47 196q0 175 -130.5 293.5t-312.5 118.5h-610l47 270h281l-6 -33h-248l-35 -205h571 q198 0 336.5 -126t138.5 -318q0 -146 -83 -273.5t-230 -204.5t-323 -77h-586l-37 -205h250l-6 -33h-283zM352 360l154 877h616q173 0 293.5 -109t120.5 -274q0 -129 -74.5 -242.5t-207.5 -182.5t-293 -69h-609zM391 393h570q149 0 275 65.5t196.5 171.5t70.5 224 q0 148 -112 249t-269 101h-587z" />
<glyph unicode="&#xdf;" horiz-adv-x="1439" d="M-45 0l6 33h309l195 1097q15 83 42 156t69 137.5t96.5 111t127.5 73t158 26.5q71 0 127.5 -22t89.5 -57t50.5 -76t17.5 -82q0 -36 -11.5 -68t-26 -54t-44.5 -49.5t-49 -41.5t-59 -41q-42 -28 -64 -44t-56 -46t-51.5 -55.5t-31.5 -62.5t-14 -77q0 -60 31 -110t59 -72.5 t90 -62.5q2 -2 3 -2.5t3 -2t4 -2.5q47 -31 76 -54.5t62 -60t49 -81.5t16 -99q0 -133 -99.5 -218t-238.5 -85q-105 0 -200.5 50.5t-145.5 111.5l26 20q43 -54 134.5 -101.5t185.5 -47.5q123 0 214 77t91 193q0 49 -14 88.5t-43.5 72.5t-57 55t-73.5 53q-92 60 -127 94 q-78 78 -78 184q0 45 15.5 86.5t34.5 69.5t56 61t59.5 49t65.5 45q48 33 71 51t52 47.5t41 60.5t12 69q0 76 -66.5 140.5t-185.5 64.5q-98 0 -179 -37.5t-136 -104.5t-91.5 -151t-53.5 -185l-201 -1124h-342zM-33 61l6 33h246l156 883h-248l6 33h281l-168 -949h-279z M139 1038l6 33h246l12 70q16 88 46 167.5t78.5 151t109.5 123.5t144 82.5t177 30.5q85 0 154 -27.5t109.5 -72.5t62 -96t21.5 -103q0 -45 -14.5 -86t-32.5 -68.5t-53.5 -60t-55.5 -47t-62 -43.5q-41 -27 -61 -41.5t-49.5 -40t-43.5 -45.5t-25 -48t-11 -59q0 -44 24 -81 t45 -54t81 -56q9 -7 14 -10q37 -25 64 -45.5t60 -54t54.5 -67t36 -80.5t14.5 -99q0 -159 -118.5 -261.5t-280.5 -102.5q-117 0 -228.5 59t-164.5 127l26 21q49 -64 153 -119t214 -55q146 0 256 94.5t110 236.5q0 58 -18 108t-52.5 89.5t-66.5 65.5t-78 57q-89 58 -117 86 q-61 60 -61 141q0 36 12.5 68.5t28 55t48.5 51t53.5 43t62.5 42.5q40 28 60 42.5t52.5 44t48.5 54.5t29 61.5t13 76.5q0 45 -19.5 90.5t-57 85.5t-99.5 65t-138 25q-90 0 -167.5 -28.5t-135 -77t-102.5 -116t-73.5 -144t-43.5 -162.5l-18 -97h-279z" />
<glyph unicode="&#xe0;" horiz-adv-x="1265" d="M25 328q0 55 15.5 106.5t51.5 101.5t90.5 87t138.5 59.5t189 22.5q169 0 401 -66l17 82q16 81 -1 139.5t-62 90t-103 45.5t-135 14q-105 0 -210.5 -23.5t-160.5 -50.5l-14 31q58 27 168 51t217 24q53 0 98.5 -6.5t89 -21t73.5 -39t52.5 -61t26 -86t-5.5 -113.5l-23 -119 q-241 76 -428 76q-97 0 -175.5 -21t-129.5 -55t-85 -79.5t-48.5 -92.5t-14.5 -96q0 -57 20.5 -110.5t62 -100.5t115 -76t169.5 -29q231 0 438 148l-22 -127h307l-6 -33h-342l16 90q-190 -110 -391 -110q-83 0 -151.5 21.5t-113.5 57t-76 81.5t-44.5 93.5t-13.5 94.5zM86 328 q0 59 22.5 112t69 100t132.5 75t200 28q177 0 424 -76l-66 -366q-205 -160 -444 -160q-90 0 -158.5 25.5t-106 68t-55.5 91t-18 102.5zM119 328q0 -49 16 -92t50 -80.5t95.5 -59.5t143.5 -22q216 0 414 145l57 326q-213 65 -385 65q-105 0 -184 -25.5t-122.5 -68t-64 -89.5 t-20.5 -99zM215 1022q62 30 180.5 56t231.5 26q56 0 107 -8.5t102 -27.5t89 -49.5t66.5 -74.5t35 -103.5t-4.5 -135.5l-111 -611h248l-6 -33h-281l117 650q12 60 6.5 108t-20 85.5t-42.5 65.5t-60.5 47t-74 31t-83.5 17.5t-88 5.5q-111 0 -226 -25t-172 -55zM498 1575l20 24 l414 -321l-21 -25zM535 1622l20 27l414 -322l-21 -27z" />
<glyph unicode="&#xe1;" horiz-adv-x="1265" d="M25 328q0 55 15.5 106.5t51.5 101.5t90.5 87t138.5 59.5t189 22.5q169 0 401 -66l17 82q16 81 -1 139.5t-62 90t-103 45.5t-135 14q-105 0 -210.5 -23.5t-160.5 -50.5l-14 31q58 27 168 51t217 24q53 0 98.5 -6.5t89 -21t73.5 -39t52.5 -61t26 -86t-5.5 -113.5l-23 -119 q-241 76 -428 76q-97 0 -175.5 -21t-129.5 -55t-85 -79.5t-48.5 -92.5t-14.5 -96q0 -57 20.5 -110.5t62 -100.5t115 -76t169.5 -29q231 0 438 148l-22 -127h307l-6 -33h-342l16 90q-190 -110 -391 -110q-83 0 -151.5 21.5t-113.5 57t-76 81.5t-44.5 93.5t-13.5 94.5zM86 328 q0 59 22.5 112t69 100t132.5 75t200 28q177 0 424 -76l-66 -366q-205 -160 -444 -160q-90 0 -158.5 25.5t-106 68t-55.5 91t-18 102.5zM119 328q0 -49 16 -92t50 -80.5t95.5 -59.5t143.5 -22q216 0 414 145l57 326q-213 65 -385 65q-105 0 -184 -25.5t-122.5 -68t-64 -89.5 t-20.5 -99zM215 1022q62 30 180.5 56t231.5 26q56 0 107 -8.5t102 -27.5t89 -49.5t66.5 -74.5t35 -103.5t-4.5 -135.5l-111 -611h248l-6 -33h-281l117 650q12 60 6.5 108t-20 85.5t-42.5 65.5t-60.5 47t-74 31t-83.5 17.5t-88 5.5q-111 0 -226 -25t-172 -55zM446 1335 l525 322l16 -29l-522 -321zM479 1282l522 322l19 -29l-524 -322z" />
<glyph unicode="&#xe2;" horiz-adv-x="1265" d="M25 328q0 55 15.5 106.5t51.5 101.5t90.5 87t138.5 59.5t189 22.5q169 0 401 -66l17 82q16 81 -1 139.5t-62 90t-103 45.5t-135 14q-105 0 -210.5 -23.5t-160.5 -50.5l-14 31q58 27 168 51t217 24q53 0 98.5 -6.5t89 -21t73.5 -39t52.5 -61t26 -86t-5.5 -113.5l-23 -119 q-241 76 -428 76q-97 0 -175.5 -21t-129.5 -55t-85 -79.5t-48.5 -92.5t-14.5 -96q0 -57 20.5 -110.5t62 -100.5t115 -76t169.5 -29q231 0 438 148l-22 -127h307l-6 -33h-342l16 90q-190 -110 -391 -110q-83 0 -151.5 21.5t-113.5 57t-76 81.5t-44.5 93.5t-13.5 94.5zM86 328 q0 59 22.5 112t69 100t132.5 75t200 28q177 0 424 -76l-66 -366q-205 -160 -444 -160q-90 0 -158.5 25.5t-106 68t-55.5 91t-18 102.5zM119 328q0 -49 16 -92t50 -80.5t95.5 -59.5t143.5 -22q216 0 414 145l57 326q-213 65 -385 65q-105 0 -184 -25.5t-122.5 -68t-64 -89.5 t-20.5 -99zM215 1022q62 30 180.5 56t231.5 26q56 0 107 -8.5t102 -27.5t89 -49.5t66.5 -74.5t35 -103.5t-4.5 -135.5l-111 -611h248l-6 -33h-281l117 650q12 60 6.5 108t-20 85.5t-42.5 65.5t-60.5 47t-74 31t-83.5 17.5t-88 5.5q-111 0 -226 -25t-172 -55zM373 1352 l383 245l299 -247l-23 -27l-278 236l-365 -234zM406 1300l344 222l266 -219l-23 -27l-245 207l-326 -209z" />
<glyph unicode="&#xe3;" horiz-adv-x="1265" d="M25 328q0 55 15.5 106.5t51.5 101.5t90.5 87t138.5 59.5t189 22.5q169 0 401 -66l17 82q16 81 -1 139.5t-62 90t-103 45.5t-135 14q-105 0 -210.5 -23.5t-160.5 -50.5l-14 31q58 27 168 51t217 24q53 0 98.5 -6.5t89 -21t73.5 -39t52.5 -61t26 -86t-5.5 -113.5l-23 -119 q-241 76 -428 76q-97 0 -175.5 -21t-129.5 -55t-85 -79.5t-48.5 -92.5t-14.5 -96q0 -57 20.5 -110.5t62 -100.5t115 -76t169.5 -29q231 0 438 148l-22 -127h307l-6 -33h-342l16 90q-190 -110 -391 -110q-83 0 -151.5 21.5t-113.5 57t-76 81.5t-44.5 93.5t-13.5 94.5zM86 328 q0 59 22.5 112t69 100t132.5 75t200 28q177 0 424 -76l-66 -366q-205 -160 -444 -160q-90 0 -158.5 25.5t-106 68t-55.5 91t-18 102.5zM119 328q0 -49 16 -92t50 -80.5t95.5 -59.5t143.5 -22q216 0 414 145l57 326q-213 65 -385 65q-105 0 -184 -25.5t-122.5 -68t-64 -89.5 t-20.5 -99zM215 1022q62 30 180.5 56t231.5 26q56 0 107 -8.5t102 -27.5t89 -49.5t66.5 -74.5t35 -103.5t-4.5 -135.5l-111 -611h248l-6 -33h-281l117 650q12 60 6.5 108t-20 85.5t-42.5 65.5t-60.5 47t-74 31t-83.5 17.5t-88 5.5q-111 0 -226 -25t-172 -55zM340 1309 q8 46 26.5 89.5t47.5 82t72.5 61.5t95.5 23q93 0 184 -117q63 -80 113 -80q59 0 95.5 49.5t49.5 128.5l33 -6q-15 -90 -58.5 -147.5t-119.5 -57.5q-38 0 -69.5 22t-68.5 70q-40 53 -77.5 79t-81.5 26q-87 0 -140.5 -67.5t-68.5 -161.5zM401 1296q15 89 60 148t121 59 q38 0 68 -21.5t67 -70.5q80 -104 162 -104q87 0 139 66.5t67 160.5l33 -4q-18 -101 -79 -178.5t-160 -77.5t-187 117q-32 43 -57 61t-53 18q-60 0 -97.5 -50t-50.5 -128z" />
<glyph unicode="&#xe4;" horiz-adv-x="1265" d="M25 328q0 55 15.5 106.5t51.5 101.5t90.5 87t138.5 59.5t189 22.5q169 0 401 -66l17 82q16 81 -1 139.5t-62 90t-103 45.5t-135 14q-105 0 -210.5 -23.5t-160.5 -50.5l-14 31q58 27 168 51t217 24q53 0 98.5 -6.5t89 -21t73.5 -39t52.5 -61t26 -86t-5.5 -113.5l-23 -119 q-241 76 -428 76q-97 0 -175.5 -21t-129.5 -55t-85 -79.5t-48.5 -92.5t-14.5 -96q0 -57 20.5 -110.5t62 -100.5t115 -76t169.5 -29q231 0 438 148l-22 -127h307l-6 -33h-342l16 90q-190 -110 -391 -110q-83 0 -151.5 21.5t-113.5 57t-76 81.5t-44.5 93.5t-13.5 94.5zM86 328 q0 59 22.5 112t69 100t132.5 75t200 28q177 0 424 -76l-66 -366q-205 -160 -444 -160q-90 0 -158.5 25.5t-106 68t-55.5 91t-18 102.5zM119 328q0 -49 16 -92t50 -80.5t95.5 -59.5t143.5 -22q216 0 414 145l57 326q-213 65 -385 65q-105 0 -184 -25.5t-122.5 -68t-64 -89.5 t-20.5 -99zM215 1022q62 30 180.5 56t231.5 26q56 0 107 -8.5t102 -27.5t89 -49.5t66.5 -74.5t35 -103.5t-4.5 -135.5l-111 -611h248l-6 -33h-281l117 650q12 60 6.5 108t-20 85.5t-42.5 65.5t-60.5 47t-74 31t-83.5 17.5t-88 5.5q-111 0 -226 -25t-172 -55zM424 1389 q0 38 28 66t66 28t66 -28t28 -66t-28 -66.5t-66 -28.5t-66 28.5t-28 66.5zM455 1389q0 -26 18.5 -45t44.5 -19t45 19t19 45t-19 44.5t-45 18.5t-44.5 -18.5t-18.5 -44.5zM483 1389q0 14 10 24t25 10q14 0 24.5 -9.5t10.5 -24.5q0 -14 -10 -24.5t-25 -10.5q-14 0 -24.5 10 t-10.5 25zM834 1389q0 38 28 66t66 28t66 -28t28 -66t-28 -66.5t-66 -28.5t-66 28.5t-28 66.5zM864 1389q0 -26 19 -45t45 -19t44.5 19t18.5 45t-18.5 44.5t-44.5 18.5t-45 -18.5t-19 -44.5zM893 1389q0 14 10 24t25 10q14 0 24.5 -9.5t10.5 -24.5q0 -14 -10 -24.5 t-25 -10.5q-14 0 -24.5 10t-10.5 25z" />
<glyph unicode="&#xe5;" horiz-adv-x="1265" d="M25 328q0 55 15.5 106.5t51.5 101.5t90.5 87t138.5 59.5t189 22.5q169 0 401 -66l17 82q16 81 -1 139.5t-62 90t-103 45.5t-135 14q-105 0 -210.5 -23.5t-160.5 -50.5l-14 31q58 27 168 51t217 24q53 0 98.5 -6.5t89 -21t73.5 -39t52.5 -61t26 -86t-5.5 -113.5l-23 -119 q-241 76 -428 76q-97 0 -175.5 -21t-129.5 -55t-85 -79.5t-48.5 -92.5t-14.5 -96q0 -57 20.5 -110.5t62 -100.5t115 -76t169.5 -29q231 0 438 148l-22 -127h307l-6 -33h-342l16 90q-190 -110 -391 -110q-83 0 -151.5 21.5t-113.5 57t-76 81.5t-44.5 93.5t-13.5 94.5zM86 328 q0 59 22.5 112t69 100t132.5 75t200 28q177 0 424 -76l-66 -366q-205 -160 -444 -160q-90 0 -158.5 25.5t-106 68t-55.5 91t-18 102.5zM119 328q0 -49 16 -92t50 -80.5t95.5 -59.5t143.5 -22q216 0 414 145l57 326q-213 65 -385 65q-105 0 -184 -25.5t-122.5 -68t-64 -89.5 t-20.5 -99zM215 1022q62 30 180.5 56t231.5 26q56 0 107 -8.5t102 -27.5t89 -49.5t66.5 -74.5t35 -103.5t-4.5 -135.5l-111 -611h248l-6 -33h-281l117 650q12 60 6.5 108t-20 85.5t-42.5 65.5t-60.5 47t-74 31t-83.5 17.5t-88 5.5q-111 0 -226 -25t-172 -55zM510 1458 q0 94 65 159.5t160 65.5t160.5 -65t65.5 -160t-65.5 -160t-160.5 -65t-160 65t-65 160zM543 1458q0 -78 57 -135t135 -57t135.5 57t57.5 135t-57.5 135.5t-135.5 57.5t-135 -57.5t-57 -135.5zM571 1458q0 69 47.5 116.5t116.5 47.5t116.5 -47.5t47.5 -116.5t-47.5 -116.5 t-116.5 -47.5t-116.5 47.5t-47.5 116.5zM604 1458q0 -54 38.5 -92.5t92.5 -38.5q53 0 92 38.5t39 92.5q0 52 -39 91.5t-92 39.5q-54 0 -92.5 -39t-38.5 -92z" />
<glyph unicode="&#xe6;" horiz-adv-x="2000" d="M25 328q0 55 15.5 106.5t51.5 101.5t90.5 87t138.5 59.5t189 22.5q172 0 403 -68l15 84q15 81 -2.5 139.5t-62 90t-102.5 45.5t-134 14q-105 0 -210.5 -23.5t-160.5 -50.5l-14 31q58 27 168 51t217 24q64 0 117 -9t101.5 -31.5t76 -60t41.5 -93.5t-2 -133l-21 -119 q-244 76 -430 76q-97 0 -175.5 -21t-129.5 -55t-85 -79.5t-48.5 -92.5t-14.5 -96q0 -57 20.5 -110.5t62 -100.5t115 -76t169.5 -29q303 0 563 254q62 -117 178.5 -185.5t268.5 -68.5q214 0 395 138l20 -25q-188 -145 -415 -145q-151 0 -269 62.5t-186 170.5 q-256 -233 -555 -233q-83 0 -151.5 21.5t-113.5 57t-76 81.5t-44.5 93.5t-13.5 94.5zM86 328q0 59 22.5 112t69 100t132.5 75t200 28q182 0 426 -78q-4 -20 -4 -65q0 -111 41 -207q-132 -131 -266 -191.5t-283 -60.5q-90 0 -158.5 25.5t-106 68t-55.5 91t-18 102.5zM119 328 q0 -49 16 -92t50 -80.5t95.5 -59.5t143.5 -22q139 0 263.5 54t248.5 173q-37 90 -37 199q0 29 2 43q-225 67 -391 67q-105 0 -184 -25.5t-122.5 -68t-64 -89.5t-20.5 -99zM215 1022q62 30 180.5 56t231.5 26q68 0 129.5 -13t117.5 -40.5t95.5 -77t52.5 -115.5 q88 111 218 175.5t278 64.5q169 0 268.5 -83t99.5 -216q0 -120 -84.5 -206t-218 -125.5t-299.5 -39.5q-140 0 -289 27q15 -165 135 -273t304 -108q191 0 358 125l18 -27q-172 -131 -376 -131q-212 0 -341.5 130t-131.5 325q171 -35 323 -35q156 0 283 37.5t206.5 115.5 t79.5 185q0 119 -89 192.5t-246 73.5q-166 0 -308 -86.5t-217 -228.5q7 71 -10 127.5t-51 92t-84 59t-104.5 33t-116.5 9.5q-111 0 -226 -25t-172 -55zM961 524q7 141 83.5 259t202.5 185.5t271 67.5t226 -65t81 -172q0 -98 -73 -169t-194 -106t-274 -35q-155 0 -323 35z M995 551q163 -29 289 -29q219 0 363.5 75.5t144.5 201.5q0 90 -72.5 147.5t-201.5 57.5q-199 0 -350 -131.5t-173 -321.5z" />
<glyph unicode="&#xe7;" horiz-adv-x="1230" d="M76 500q0 163 83 301t222.5 217.5t300.5 79.5q103 0 199 -38t153 -106l23 121h35l-39 -217q-36 93 -142.5 150t-228.5 57q-112 0 -217.5 -45t-183.5 -121t-125 -181t-47 -218q0 -173 103 -305t271 -170l-28 -158l-33 6l22 127q-168 47 -268 184t-100 316zM137 500 q0 145 74.5 269t200 195.5t270.5 71.5q141 0 248 -71t110 -181l-34 -196h-35l35 203q-7 90 -104 151.5t-220 61.5q-134 0 -252 -68t-189 -185t-71 -251q0 -180 122.5 -303t311.5 -123q212 0 400 139l18 -27q-196 -145 -418 -145q-206 0 -336.5 132t-130.5 327zM207 -555 l12 29q14 -6 40 -15t102 -24t147 -15q116 0 185 62t69 158q0 87 -73.5 152t-203.5 85l27 141q44 -6 92 -6q101 0 214.5 36.5t221.5 115.5l21 -25q-112 -83 -232 -121t-225 -38q-25 0 -65 4l-15 -80q131 -29 201 -98.5t70 -165.5q0 -112 -77.5 -182t-209.5 -70q-75 0 -150 14 t-113 28zM231 -500l13 31q13 -5 36.5 -13.5t93 -22t134.5 -13.5q91 0 141.5 44t50.5 114q0 64 -61.5 114t-175.5 64l4 32q131 -18 198.5 -74.5t67.5 -135.5q0 -87 -59 -139t-166 -52q-69 0 -138.5 12.5t-103.5 25.5zM1034 588l86 487h35l-86 -487h-35z" />
<glyph unicode="&#xe8;" horiz-adv-x="1177" d="M76 500q0 164 84 302t226 217t308 79q169 0 269 -83t100 -216q0 -120 -84.5 -206t-218 -125.5t-299.5 -39.5q-141 0 -289 27q15 -165 134.5 -273t303.5 -108q192 0 359 125l18 -27q-172 -131 -377 -131q-212 0 -341.5 130t-131.5 325q172 -35 324 -35q156 0 283 37.5 t206.5 115.5t79.5 185q0 119 -89.5 192.5t-246.5 73.5q-116 0 -224 -45t-187 -120.5t-126.5 -180.5t-47.5 -219q0 -100 36.5 -189.5t101 -155.5t159 -104.5t204.5 -38.5q215 0 396 138l20 -25q-188 -145 -416 -145q-158 0 -281 70t-188 187.5t-65 262.5zM137 524 q7 141 83.5 259t202.5 185.5t271 67.5t226 -65t81 -172q0 -98 -73 -169t-193.5 -106t-273.5 -35q-156 0 -324 35zM172 551q163 -29 289 -29q219 0 363.5 75.5t144.5 201.5q0 90 -73 147.5t-202 57.5q-199 0 -349.5 -131.5t-172.5 -321.5zM520 1575l21 24l413 -321l-20 -25z M557 1622l21 27l413 -322l-20 -27z" />
<glyph unicode="&#xe9;" horiz-adv-x="1177" d="M76 500q0 164 84 302t226 217t308 79q169 0 269 -83t100 -216q0 -120 -84.5 -206t-218 -125.5t-299.5 -39.5q-141 0 -289 27q15 -165 134.5 -273t303.5 -108q192 0 359 125l18 -27q-172 -131 -377 -131q-212 0 -341.5 130t-131.5 325q172 -35 324 -35q156 0 283 37.5 t206.5 115.5t79.5 185q0 119 -89.5 192.5t-246.5 73.5q-116 0 -224 -45t-187 -120.5t-126.5 -180.5t-47.5 -219q0 -100 36.5 -189.5t101 -155.5t159 -104.5t204.5 -38.5q215 0 396 138l20 -25q-188 -145 -416 -145q-158 0 -281 70t-188 187.5t-65 262.5zM137 524 q7 141 83.5 259t202.5 185.5t271 67.5t226 -65t81 -172q0 -98 -73 -169t-193.5 -106t-273.5 -35q-156 0 -324 35zM172 551q163 -29 289 -29q219 0 363.5 75.5t144.5 201.5q0 90 -73 147.5t-202 57.5q-199 0 -349.5 -131.5t-172.5 -321.5zM469 1335l524 322l17 -29l-523 -321 zM502 1282l522 322l18 -29l-524 -322z" />
<glyph unicode="&#xea;" horiz-adv-x="1177" d="M76 500q0 164 84 302t226 217t308 79q169 0 269 -83t100 -216q0 -120 -84.5 -206t-218 -125.5t-299.5 -39.5q-141 0 -289 27q15 -165 134.5 -273t303.5 -108q192 0 359 125l18 -27q-172 -131 -377 -131q-212 0 -341.5 130t-131.5 325q172 -35 324 -35q156 0 283 37.5 t206.5 115.5t79.5 185q0 119 -89.5 192.5t-246.5 73.5q-116 0 -224 -45t-187 -120.5t-126.5 -180.5t-47.5 -219q0 -100 36.5 -189.5t101 -155.5t159 -104.5t204.5 -38.5q215 0 396 138l20 -25q-188 -145 -416 -145q-158 0 -281 70t-188 187.5t-65 262.5zM137 524 q7 141 83.5 259t202.5 185.5t271 67.5t226 -65t81 -172q0 -98 -73 -169t-193.5 -106t-273.5 -35q-156 0 -324 35zM172 551q163 -29 289 -29q219 0 363.5 75.5t144.5 201.5q0 90 -73 147.5t-202 57.5q-199 0 -349.5 -131.5t-172.5 -321.5zM395 1352l383 245l299 -247l-22 -27 l-279 236l-364 -234zM428 1300l344 222l266 -219l-22 -27l-246 207l-326 -209z" />
<glyph unicode="&#xeb;" horiz-adv-x="1177" d="M76 500q0 164 84 302t226 217t308 79q169 0 269 -83t100 -216q0 -120 -84.5 -206t-218 -125.5t-299.5 -39.5q-141 0 -289 27q15 -165 134.5 -273t303.5 -108q192 0 359 125l18 -27q-172 -131 -377 -131q-212 0 -341.5 130t-131.5 325q172 -35 324 -35q156 0 283 37.5 t206.5 115.5t79.5 185q0 119 -89.5 192.5t-246.5 73.5q-116 0 -224 -45t-187 -120.5t-126.5 -180.5t-47.5 -219q0 -100 36.5 -189.5t101 -155.5t159 -104.5t204.5 -38.5q215 0 396 138l20 -25q-188 -145 -416 -145q-158 0 -281 70t-188 187.5t-65 262.5zM137 524 q7 141 83.5 259t202.5 185.5t271 67.5t226 -65t81 -172q0 -98 -73 -169t-193.5 -106t-273.5 -35q-156 0 -324 35zM172 551q163 -29 289 -29q219 0 363.5 75.5t144.5 201.5q0 90 -73 147.5t-202 57.5q-199 0 -349.5 -131.5t-172.5 -321.5zM446 1389q0 38 28.5 66t66.5 28 t66 -28t28 -66t-28 -66.5t-66 -28.5t-66.5 28.5t-28.5 66.5zM477 1389q0 -26 19 -45t45 -19t44.5 19t18.5 45t-18.5 44.5t-44.5 18.5t-45 -18.5t-19 -44.5zM506 1389q0 14 10 24t25 10q14 0 24 -9.5t10 -24.5q0 -14 -9.5 -24.5t-24.5 -10.5q-14 0 -24.5 10t-10.5 25z M856 1389q0 38 28 66t66 28t66 -28t28 -66t-28 -66.5t-66 -28.5t-66 28.5t-28 66.5zM887 1389q0 -26 18.5 -45t44.5 -19t45 19t19 45t-19 44.5t-45 18.5t-44.5 -18.5t-18.5 -44.5zM915 1389q0 14 10 24t25 10q14 0 24.5 -9.5t10.5 -24.5q0 -14 -10 -24.5t-25 -10.5 q-14 0 -24.5 10t-10.5 25z" />
<glyph unicode="&#xec;" horiz-adv-x="692" d="M-45 0l6 33h588l-6 -33h-588zM-33 61l6 33h244l160 887h-250l6 33h283l-170 -953h-279zM139 1042l6 33h342l-174 -981h248l-6 -33h-281l175 981h-310zM209 1575l20 24l414 -321l-20 -25zM246 1622l20 27l414 -322l-21 -27z" />
<glyph unicode="&#xed;" horiz-adv-x="692" d="M-45 0l6 33h588l-6 -33h-588zM-33 61l6 33h244l160 887h-250l6 33h283l-170 -953h-279zM139 1042l6 33h342l-174 -981h248l-6 -33h-281l175 981h-310zM158 1335l524 322l16 -29l-522 -321zM190 1282l523 322l18 -29l-524 -322z" />
<glyph unicode="&#xee;" horiz-adv-x="692" d="M-45 0l6 33h588l-6 -33h-588zM-33 61l6 33h244l160 887h-250l6 33h283l-170 -953h-279zM84 1352l383 245l299 -247l-23 -27l-278 236l-365 -234zM117 1300l344 222l266 -219l-22 -27l-246 207l-326 -209zM139 1042l6 33h342l-174 -981h248l-6 -33h-281l175 981h-310z" />
<glyph unicode="&#xef;" horiz-adv-x="692" d="M-45 0l6 33h588l-6 -33h-588zM-33 61l6 33h244l160 887h-250l6 33h283l-170 -953h-279zM135 1389q0 38 28 66t66 28t66.5 -28t28.5 -66t-28.5 -66.5t-66.5 -28.5t-66 28.5t-28 66.5zM139 1042l6 33h342l-174 -981h248l-6 -33h-281l175 981h-310zM166 1389q0 -26 18.5 -45 t44.5 -19t45 19t19 45t-19 44.5t-45 18.5t-44.5 -18.5t-18.5 -44.5zM195 1389q0 14 9.5 24t24.5 10q14 0 24.5 -9.5t10.5 -24.5q0 -14 -10 -24.5t-25 -10.5q-14 0 -24 10t-10 25zM545 1389q0 38 28 66t66 28t66 -28t28 -66t-28 -66.5t-66 -28.5t-66 28.5t-28 66.5zM575 1389 q0 -26 19 -45t45 -19t44.5 19t18.5 45t-18.5 44.5t-44.5 18.5t-45 -18.5t-19 -44.5zM604 1389q0 14 10 24t25 10q14 0 24.5 -9.5t10.5 -24.5q0 -14 -10 -24.5t-25 -10.5q-14 0 -24.5 10t-10.5 25z" />
<glyph unicode="&#xf0;" horiz-adv-x="1312" d="M74 489q0 158 81.5 292.5t218 212t292.5 77.5q115 0 224.5 -52.5t178.5 -152.5q-30 258 -168 447q-66 85 -147 145l-232 -213l-20 25l250 229q103 -70 174 -166q186 -248 186 -624v-17q-26 113 -99.5 194t-162.5 116.5t-184 35.5q-109 0 -212 -44t-179.5 -118 t-122.5 -175.5t-46 -211.5q0 -130 62 -239.5t170.5 -173.5t239.5 -64q80 0 157 22.5t151.5 75t130.5 130.5t90 199t34 270q0 183 -49.5 349t-141.5 292q-74 99 -176 170l176 161l21 -24l-148 -135q87 -65 152 -152q96 -130 147.5 -302t51.5 -359q0 -117 -20.5 -218 t-55.5 -174t-83.5 -132t-102 -96.5t-112.5 -62.5t-114 -35.5t-108 -10.5q-142 0 -258 67.5t-181 184t-65 257.5zM135 489q0 141 73 261.5t195 190t263 69.5q67 0 131.5 -18t123 -58.5t100.5 -98t62.5 -143.5t10.5 -188q-20 -104 -62.5 -186t-94.5 -133t-115.5 -84.5 t-123 -46.5t-120.5 -13q-190 0 -316.5 129t-126.5 319zM168 489q0 -174 118.5 -294.5t291.5 -120.5q57 0 113 12.5t115 43.5t107.5 78.5t88 124t59.5 173.5q9 96 -10 176t-57 133.5t-92 91t-113.5 54t-122.5 16.5q-130 0 -245 -66.5t-184 -179.5t-69 -242zM197 1657 q302 53 544 -82l166 151l23 -24l-182 -168q-231 144 -545 90zM207 1595q297 53 520 -79l-246 -226l-22 25l211 194q-201 98 -457 54z" />
<glyph unicode="&#xf1;" horiz-adv-x="1464" d="M-45 0l6 33h588l-6 -33h-588zM-33 61l6 33h244l160 887h-250l6 33h283l-170 -953h-279zM139 1042l6 33h342l-28 -153q208 176 415 176q59 0 113.5 -17t104 -53.5t81 -93.5t44 -137t-6.5 -185l-92 -518h248l-6 -33h-281l99 557q18 97 7 171t-39 126.5t-72.5 85.5 t-94.5 48.5t-105 15.5q-119 0 -240.5 -64.5t-223.5 -173.5l39 215h-310zM274 61l127 713q104 122 227 192t246 70q65 0 119.5 -22t99 -71t59 -127.5t-2.5 -192.5l-102 -590h307l-6 -33h-340l108 629q16 102 3.5 173.5t-51.5 116t-88 65t-106 20.5q-113 0 -229.5 -66.5 t-214.5 -179.5l-117 -664h248l-6 -33h-281zM514 1309q8 46 26.5 89.5t47.5 82t72.5 61.5t95.5 23q93 0 184 -117q63 -80 113 -80q59 0 95.5 49.5t49.5 128.5l33 -6q-15 -90 -58.5 -147.5t-119.5 -57.5q-38 0 -69.5 22t-68.5 70q-40 53 -77.5 79t-81.5 26q-87 0 -140.5 -67.5 t-68.5 -161.5zM575 1296q15 89 60 148t121 59q38 0 68 -21.5t67 -70.5q80 -104 162 -104q87 0 139.5 66.5t67.5 160.5l32 -4q-18 -101 -79 -178.5t-160 -77.5t-187 117q-32 43 -57 61t-53 18q-60 0 -97.5 -50t-50.5 -128z" />
<glyph unicode="&#xf2;" horiz-adv-x="1316" d="M76 502q0 162 83 299.5t222.5 217t300.5 79.5q145 0 263.5 -69.5t185.5 -189.5t67 -264q0 -121 -49 -231.5t-131.5 -190t-194 -126.5t-231.5 -47q-145 0 -263.5 69.5t-185.5 189t-67 263.5zM109 502q0 -133 63.5 -245.5t175 -178.5t244.5 -66q150 0 282.5 76t211.5 206.5 t79 280.5q0 133 -63.5 245.5t-175 178.5t-244.5 66q-150 0 -282.5 -76t-211.5 -206.5t-79 -280.5zM137 502q0 144 74.5 267.5t200 195t270.5 71.5q194 0 324.5 -133.5t130.5 -327.5q0 -144 -74.5 -267.5t-200 -195t-270.5 -71.5q-194 0 -324.5 133.5t-130.5 327.5zM170 502 q0 -179 122 -303.5t300 -124.5q134 0 252 68t189 184t71 249q0 179 -122 304t-300 125q-134 0 -252 -68t-189 -184.5t-71 -249.5zM561 1575l21 24l413 -321l-20 -25zM598 1622l20 27l414 -322l-20 -27z" />
<glyph unicode="&#xf3;" horiz-adv-x="1316" d="M76 502q0 162 83 299.5t222.5 217t300.5 79.5q145 0 263.5 -69.5t185.5 -189.5t67 -264q0 -121 -49 -231.5t-131.5 -190t-194 -126.5t-231.5 -47q-145 0 -263.5 69.5t-185.5 189t-67 263.5zM109 502q0 -133 63.5 -245.5t175 -178.5t244.5 -66q150 0 282.5 76t211.5 206.5 t79 280.5q0 133 -63.5 245.5t-175 178.5t-244.5 66q-150 0 -282.5 -76t-211.5 -206.5t-79 -280.5zM137 502q0 144 74.5 267.5t200 195t270.5 71.5q194 0 324.5 -133.5t130.5 -327.5q0 -144 -74.5 -267.5t-200 -195t-270.5 -71.5q-194 0 -324.5 133.5t-130.5 327.5zM170 502 q0 -179 122 -303.5t300 -124.5q134 0 252 68t189 184t71 249q0 179 -122 304t-300 125q-134 0 -252 -68t-189 -184.5t-71 -249.5zM510 1335l524 322l17 -29l-523 -321zM543 1282l522 322l18 -29l-524 -322z" />
<glyph unicode="&#xf4;" horiz-adv-x="1316" d="M76 502q0 162 83 299.5t222.5 217t300.5 79.5q145 0 263.5 -69.5t185.5 -189.5t67 -264q0 -121 -49 -231.5t-131.5 -190t-194 -126.5t-231.5 -47q-145 0 -263.5 69.5t-185.5 189t-67 263.5zM109 502q0 -133 63.5 -245.5t175 -178.5t244.5 -66q150 0 282.5 76t211.5 206.5 t79 280.5q0 133 -63.5 245.5t-175 178.5t-244.5 66q-150 0 -282.5 -76t-211.5 -206.5t-79 -280.5zM137 502q0 144 74.5 267.5t200 195t270.5 71.5q194 0 324.5 -133.5t130.5 -327.5q0 -144 -74.5 -267.5t-200 -195t-270.5 -71.5q-194 0 -324.5 133.5t-130.5 327.5zM170 502 q0 -179 122 -303.5t300 -124.5q134 0 252 68t189 184t71 249q0 179 -122 304t-300 125q-134 0 -252 -68t-189 -184.5t-71 -249.5zM436 1352l383 245l299 -247l-22 -27l-279 236l-364 -234zM469 1300l344 222l266 -219l-22 -27l-246 207l-326 -209z" />
<glyph unicode="&#xf5;" horiz-adv-x="1316" d="M76 502q0 162 83 299.5t222.5 217t300.5 79.5q145 0 263.5 -69.5t185.5 -189.5t67 -264q0 -121 -49 -231.5t-131.5 -190t-194 -126.5t-231.5 -47q-145 0 -263.5 69.5t-185.5 189t-67 263.5zM109 502q0 -133 63.5 -245.5t175 -178.5t244.5 -66q150 0 282.5 76t211.5 206.5 t79 280.5q0 133 -63.5 245.5t-175 178.5t-244.5 66q-150 0 -282.5 -76t-211.5 -206.5t-79 -280.5zM137 502q0 144 74.5 267.5t200 195t270.5 71.5q194 0 324.5 -133.5t130.5 -327.5q0 -144 -74.5 -267.5t-200 -195t-270.5 -71.5q-194 0 -324.5 133.5t-130.5 327.5zM170 502 q0 -179 122 -303.5t300 -124.5q134 0 252 68t189 184t71 249q0 179 -122 304t-300 125q-134 0 -252 -68t-189 -184.5t-71 -249.5zM403 1309q8 46 26.5 89.5t47.5 82t72.5 61.5t95.5 23q93 0 184 -117q63 -80 113 -80q59 0 95.5 49.5t49.5 128.5l33 -6q-15 -90 -58.5 -147.5 t-119.5 -57.5q-38 0 -69 22t-68 70q-79 105 -160 105q-87 0 -140.5 -67.5t-68.5 -161.5zM465 1296q15 89 59.5 148t120.5 59q38 0 68 -21.5t67 -70.5q80 -104 162 -104q87 0 139.5 66.5t67.5 160.5l33 -4q-8 -46 -26 -89t-46.5 -81.5t-72 -62t-95.5 -23.5q-98 0 -186 117 q-32 43 -57.5 61t-53.5 18q-59 0 -96.5 -50t-50.5 -128z" />
<glyph unicode="&#xf6;" horiz-adv-x="1316" d="M76 502q0 162 83 299.5t222.5 217t300.5 79.5q145 0 263.5 -69.5t185.5 -189.5t67 -264q0 -121 -49 -231.5t-131.5 -190t-194 -126.5t-231.5 -47q-145 0 -263.5 69.5t-185.5 189t-67 263.5zM109 502q0 -133 63.5 -245.5t175 -178.5t244.5 -66q150 0 282.5 76t211.5 206.5 t79 280.5q0 133 -63.5 245.5t-175 178.5t-244.5 66q-150 0 -282.5 -76t-211.5 -206.5t-79 -280.5zM137 502q0 144 74.5 267.5t200 195t270.5 71.5q194 0 324.5 -133.5t130.5 -327.5q0 -144 -74.5 -267.5t-200 -195t-270.5 -71.5q-194 0 -324.5 133.5t-130.5 327.5zM170 502 q0 -179 122 -303.5t300 -124.5q134 0 252 68t189 184t71 249q0 179 -122 304t-300 125q-134 0 -252 -68t-189 -184.5t-71 -249.5zM487 1389q0 38 28.5 66t66.5 28t66 -28t28 -66t-28 -66.5t-66 -28.5t-66.5 28.5t-28.5 66.5zM518 1389q0 -26 19 -45t45 -19t44.5 19t18.5 45 t-18.5 44.5t-44.5 18.5t-45 -18.5t-19 -44.5zM547 1389q0 14 10 24t25 10q14 0 24 -9.5t10 -24.5q0 -14 -9.5 -24.5t-24.5 -10.5q-14 0 -24.5 10t-10.5 25zM897 1389q0 38 28 66t66 28t66 -28t28 -66t-28 -66.5t-66 -28.5t-66 28.5t-28 66.5zM928 1389q0 -26 18.5 -45 t44.5 -19t45 19t19 45t-19 44.5t-45 18.5t-44.5 -18.5t-18.5 -44.5zM956 1389q0 14 10 24t25 10q14 0 24.5 -9.5t10.5 -24.5q0 -14 -10 -24.5t-25 -10.5q-14 0 -24.5 10t-10.5 25z" />
<glyph unicode="&#xf7;" horiz-adv-x="1228" d="M176 702l6 33h887l-6 -33h-887zM188 764l7 33h886l-6 -33h-887zM467 373q0 38 28 66t66 28t66 -28t28 -66t-28 -66t-66 -28t-66 28t-28 66zM498 373q0 -26 18.5 -45t44.5 -19t45 19t19 45t-19 44.5t-45 18.5t-44.5 -18.5t-18.5 -44.5zM526 373q0 14 10 24.5t25 10.5 q14 0 24.5 -10t10.5 -25q0 -14 -10 -24.5t-25 -10.5q-14 0 -24.5 10t-10.5 25zM600 1126q0 38 28 66.5t66 28.5t66 -28.5t28 -66.5t-28 -66t-66 -28t-66 28t-28 66zM631 1126q0 -26 18.5 -44.5t44.5 -18.5t45 18.5t19 44.5t-19 45t-45 19t-44.5 -19t-18.5 -45zM659 1126 q0 14 10 24.5t25 10.5q14 0 24.5 -10t10.5 -25q0 -14 -10 -24t-25 -10q-14 0 -24.5 9.5t-10.5 24.5z" />
<glyph unicode="&#xf8;" horiz-adv-x="1318" d="M78 502q0 162 83 299.5t222.5 217t300.5 79.5t297 -92l59 69h43l-100 -114q-129 104 -299 104q-150 0 -282.5 -76t-211.5 -206.5t-79 -280.5q0 -109 42.5 -205t118.5 -164l-116 -133h-43l112 131q-147 150 -147 371zM139 502q0 144 74.5 267.5t200 195t270.5 71.5 q156 0 283 -96l-678 -786q-71 64 -110.5 154t-39.5 194zM172 502q0 -176 117 -299l629 729q-109 72 -234 72q-134 0 -252 -68t-189 -184.5t-71 -249.5zM193 0l100 117q130 -105 301 -105q150 0 282.5 76t211.5 206.5t79 280.5q0 107 -42.5 203t-118.5 164l116 133h41 l-110 -129q70 -71 108.5 -167t38.5 -204q0 -121 -49 -231.5t-131.5 -190t-194 -126.5t-231.5 -47q-168 0 -297 90l-61 -70h-43zM309 137l680 785q70 -64 110 -154.5t40 -192.5q0 -144 -74.5 -267.5t-200 -195t-270.5 -71.5q-162 0 -285 96zM360 143q101 -69 234 -69 q134 0 252 68t189 184t71 249q0 173 -117 297z" />
<glyph unicode="&#xf9;" horiz-adv-x="1417" d="M51 981l6 33h281l-98 -557q-18 -121 -1.5 -206.5t65.5 -138.5t109.5 -77.5t129.5 -24.5q118 0 239.5 64t223.5 172l-37 -213h307l-6 -33h-340l26 154q-96 -84 -202.5 -130.5t-210.5 -46.5q-59 0 -113.5 17t-104 53.5t-81 93.5t-44 137t6.5 185l92 518h-248zM63 1042l7 33 h340l-109 -629q-16 -102 -3.5 -173t51.5 -116t88 -65t106 -20q113 0 230 65.5t212 179.5l119 664h-250l6 33h283l-127 -715q-103 -121 -227 -190.5t-246 -69.5q-65 0 -119.5 22t-99 71.5t-59 128t2.5 192.5l103 589h-308zM594 1575l20 24l414 -321l-20 -25zM631 1622l20 27 l414 -322l-21 -27zM866 1042l6 33h342l-174 -981h248l-6 -33h-281l175 981h-310z" />
<glyph unicode="&#xfa;" horiz-adv-x="1417" d="M51 981l6 33h281l-98 -557q-18 -121 -1.5 -206.5t65.5 -138.5t109.5 -77.5t129.5 -24.5q118 0 239.5 64t223.5 172l-37 -213h307l-6 -33h-340l26 154q-96 -84 -202.5 -130.5t-210.5 -46.5q-59 0 -113.5 17t-104 53.5t-81 93.5t-44 137t6.5 185l92 518h-248zM63 1042l7 33 h340l-109 -629q-16 -102 -3.5 -173t51.5 -116t88 -65t106 -20q113 0 230 65.5t212 179.5l119 664h-250l6 33h283l-127 -715q-103 -121 -227 -190.5t-246 -69.5q-65 0 -119.5 22t-99 71.5t-59 128t2.5 192.5l103 589h-308zM543 1335l524 322l16 -29l-522 -321zM575 1282 l523 322l18 -29l-524 -322zM866 1042l6 33h342l-174 -981h248l-6 -33h-281l175 981h-310z" />
<glyph unicode="&#xfb;" horiz-adv-x="1417" d="M51 981l6 33h281l-98 -557q-18 -121 -1.5 -206.5t65.5 -138.5t109.5 -77.5t129.5 -24.5q118 0 239.5 64t223.5 172l-37 -213h307l-6 -33h-340l26 154q-96 -84 -202.5 -130.5t-210.5 -46.5q-59 0 -113.5 17t-104 53.5t-81 93.5t-44 137t6.5 185l92 518h-248zM63 1042l7 33 h340l-109 -629q-16 -102 -3.5 -173t51.5 -116t88 -65t106 -20q113 0 230 65.5t212 179.5l119 664h-250l6 33h283l-127 -715q-103 -121 -227 -190.5t-246 -69.5q-65 0 -119.5 22t-99 71.5t-59 128t2.5 192.5l103 589h-308zM469 1352l383 245l299 -247l-23 -27l-278 236 l-365 -234zM502 1300l344 222l266 -219l-22 -27l-246 207l-326 -209zM866 1042l6 33h342l-174 -981h248l-6 -33h-281l175 981h-310z" />
<glyph unicode="&#xfc;" horiz-adv-x="1417" d="M51 981l6 33h281l-98 -557q-18 -121 -1.5 -206.5t65.5 -138.5t109.5 -77.5t129.5 -24.5q118 0 239.5 64t223.5 172l-37 -213h307l-6 -33h-340l26 154q-96 -84 -202.5 -130.5t-210.5 -46.5q-59 0 -113.5 17t-104 53.5t-81 93.5t-44 137t6.5 185l92 518h-248zM63 1042l7 33 h340l-109 -629q-16 -102 -3.5 -173t51.5 -116t88 -65t106 -20q113 0 230 65.5t212 179.5l119 664h-250l6 33h283l-127 -715q-103 -121 -227 -190.5t-246 -69.5q-65 0 -119.5 22t-99 71.5t-59 128t2.5 192.5l103 589h-308zM520 1389q0 38 28 66t66 28t66.5 -28t28.5 -66 t-28.5 -66.5t-66.5 -28.5t-66 28.5t-28 66.5zM551 1389q0 -26 18.5 -45t44.5 -19t45 19t19 45t-19 44.5t-45 18.5t-44.5 -18.5t-18.5 -44.5zM580 1389q0 14 9.5 24t24.5 10q14 0 24.5 -9.5t10.5 -24.5q0 -14 -10 -24.5t-25 -10.5q-14 0 -24 10t-10 25zM866 1042l6 33h342 l-174 -981h248l-6 -33h-281l175 981h-310zM930 1389q0 38 28 66t66 28t66 -28t28 -66t-28 -66.5t-66 -28.5t-66 28.5t-28 66.5zM961 1389q0 -26 18.5 -45t44.5 -19t44.5 19t18.5 45t-18.5 44.5t-44.5 18.5t-44.5 -18.5t-18.5 -44.5zM989 1389q0 14 10 24t25 10 q14 0 24.5 -9.5t10.5 -24.5q0 -14 -10 -24.5t-25 -10.5q-14 0 -24.5 10t-10.5 25z" />
<glyph unicode="&#xfd;" horiz-adv-x="1388" d="M-350 -401l31 12q23 -53 59 -91.5t78 -58.5t83 -29.5t83 -9.5q141 0 272 103.5t268 327.5l709 1161h231l-6 -33h-207l-698 -1145q-140 -229 -279.5 -337.5t-289.5 -108.5q-44 0 -89 10.5t-92 33t-87.5 65t-65.5 100.5zM-295 -377l31 12q24 -55 67.5 -90.5t87.5 -48 t93 -12.5q124 0 241.5 94.5t245.5 306.5l55 92l-258 1004h-227l6 33h246l268 -1043l-61 -102q-133 -220 -257 -319t-259 -99q-87 0 -162.5 39.5t-116.5 132.5zM53 1042l6 33h570l-6 -33h-570zM324 1014h292l-6 -33h-245l229 -893l545 893h-250l6 33h303l-614 -1010z M553 1335l524 322l17 -29l-523 -321zM586 1282l522 322l18 -29l-524 -322zM901 1042l6 33h570l-7 -33h-569z" />
<glyph unicode="&#xfe;" horiz-adv-x="1439" d="M-248 -578l6 33h588l-6 -33h-588zM-236 -516l7 33h243l351 1986h-250l6 33h282l-360 -2052h-279zM72 -516l166 940q27 -177 160.5 -294.5t316.5 -117.5q150 0 282.5 76t211.5 206.5t79 280.5q0 133 -63.5 245.5t-175 178.5t-244.5 66q-160 0 -298.5 -86.5t-211.5 -226.5 l141 813h-309l6 32h342l-123 -702q87 94 205.5 148.5t247.5 54.5q145 0 263.5 -69.5t185.5 -189.5t67 -264q0 -121 -49 -231.5t-131.5 -190t-194 -126.5t-231.5 -47q-159 0 -284.5 82t-186.5 219l-133 -764h247l-6 -33h-280zM260 502q0 144 74.5 267.5t200 195t270.5 71.5 q194 0 324.5 -133.5t130.5 -327.5q0 -144 -74.5 -267.5t-200 -195t-270.5 -71.5q-194 0 -324.5 133.5t-130.5 327.5zM293 502q0 -179 122 -303.5t300 -124.5q134 0 252 68t189 184t71 249q0 179 -122 304t-300 125q-134 0 -252 -68t-189 -184.5t-71 -249.5z" />
<glyph unicode="&#xff;" horiz-adv-x="1388" d="M-350 -401l31 12q23 -53 59 -91.5t78 -58.5t83 -29.5t83 -9.5q141 0 272 103.5t268 327.5l709 1161h231l-6 -33h-207l-698 -1145q-140 -229 -279.5 -337.5t-289.5 -108.5q-44 0 -89 10.5t-92 33t-87.5 65t-65.5 100.5zM-295 -377l31 12q24 -55 67.5 -90.5t87.5 -48 t93 -12.5q124 0 241.5 94.5t245.5 306.5l55 92l-258 1004h-227l6 33h246l268 -1043l-61 -102q-133 -220 -257 -319t-259 -99q-87 0 -162.5 39.5t-116.5 132.5zM53 1042l6 33h570l-6 -33h-570zM324 1014h292l-6 -33h-245l229 -893l545 893h-250l6 33h303l-614 -1010z M530 1389q0 38 28.5 66t66.5 28t66 -28t28 -66t-28 -66.5t-66 -28.5t-66.5 28.5t-28.5 66.5zM561 1389q0 -26 19 -45t45 -19t44.5 19t18.5 45t-18.5 44.5t-44.5 18.5t-45 -18.5t-19 -44.5zM590 1389q0 14 10 24t25 10q14 0 24 -9.5t10 -24.5q0 -14 -9.5 -24.5t-24.5 -10.5 q-14 0 -24.5 10t-10.5 25zM901 1042l6 33h570l-7 -33h-569zM940 1389q0 38 28 66t66 28t66 -28t28 -66t-28 -66.5t-66 -28.5t-66 28.5t-28 66.5zM971 1389q0 -26 18.5 -45t44.5 -19t45 19t19 45t-19 44.5t-45 18.5t-44.5 -18.5t-18.5 -44.5zM999 1389q0 14 10 24t25 10 q14 0 24.5 -9.5t10.5 -24.5q0 -14 -10 -24.5t-25 -10.5q-14 0 -24.5 10t-10.5 25z" />
<glyph unicode="&#x152;" horiz-adv-x="2342" d="M121 690q0 206 76.5 377.5t210 287t315.5 179t393 63.5h1274l-61 -360h-35l57 328h-1235q-203 0 -380 -62t-305.5 -173.5t-202.5 -277t-74 -362.5q0 -131 53.5 -251t145 -209.5t222 -143t277.5 -53.5h1247l58 325h34l-65 -358h-1274q-155 0 -292.5 55.5t-233 149.5 t-150.5 220.5t-55 264.5zM182 690q0 193 71 352.5t195.5 267.5t296 167t371.5 59h254l-258 -1475h-260q-143 0 -268.5 50.5t-213 136t-138 201t-50.5 241.5zM215 690q0 -118 48.5 -227.5t132 -190.5t203 -129.5t253.5 -48.5h231l248 1409h-215q-257 0 -461 -98t-322 -284 t-118 -431zM1141 61l131 740h723l-6 -33h-691l-118 -674h868l45 264h35l-53 -297h-934zM1276 829l125 707h917l-53 -299h-35l49 266h-852l-112 -641h692l-6 -33h-725z" />
<glyph unicode="&#x153;" horiz-adv-x="2203" d="M74 492q0 121 49 231.5t131.5 190t194 126.5t231.5 47q168 0 298 -91.5t185 -241.5q76 151 225.5 242t329.5 91q169 0 269 -83t100 -216q0 -91 -48.5 -163t-132 -116.5t-191 -67.5t-230.5 -23q-146 0 -289 26q15 -165 134.5 -273t303.5 -108q192 0 359 125l18 -26 q-172 -131 -377 -131q-212 0 -341.5 129.5t-131.5 324.5q167 -34 324 -34q156 0 283 37t206.5 115t79.5 185q0 119 -89.5 193t-246.5 74q-194 0 -350.5 -115t-210.5 -293q-30 176 -163 292t-314 116q-150 0 -282.5 -76t-212 -206.5t-79.5 -280.5q0 -203 140.5 -346.5 t343.5 -143.5q186 0 339.5 115t209.5 291q29 -177 163 -291.5t332 -114.5q216 0 396 137l20 -24q-189 -146 -416 -146q-183 0 -315.5 91t-188.5 241q-76 -149 -222.5 -240.5t-317.5 -91.5q-145 0 -263.5 69.5t-185.5 189.5t-67 264zM135 492q0 144 74.5 267.5t200 195 t270.5 71.5q194 0 324.5 -133.5t130.5 -327.5q0 -144 -74.5 -267.5t-200 -195t-270.5 -71.5q-194 0 -324.5 133.5t-130.5 327.5zM168 492q0 -179 122 -304t300 -125q134 0 252 68t189 184.5t71 249.5q0 179 -122 303.5t-300 124.5q-134 0 -252 -68t-189 -184t-71 -249z M1161 514q7 141 83.5 259t202.5 185.5t271 67.5t226 -65.5t81 -172.5q0 -98 -73 -169t-193.5 -105.5t-273.5 -34.5q-156 0 -324 35zM1196 541q163 -29 289 -29q219 0 363.5 75t144.5 201q0 90 -73 147.5t-202 57.5q-199 0 -349.5 -131t-172.5 -321z" />
<glyph unicode="&#x178;" horiz-adv-x="1646" d="M115 1503l6 33h258l420 -920l-99 -555h-280l6 33h246l92 518l-408 891h-241zM127 1565l6 32h588l-6 -32h-588zM408 0l6 33h592l-7 -33h-591zM408 1536h301l-7 -33h-241l362 -796l645 796h-237l6 33h301l-721 -891zM729 61l98 553l744 922h258l-6 -33h-234l-731 -905 l-90 -504h250l-6 -33h-283zM733 1860q0 38 28 66t66 28t66.5 -28t28.5 -66t-28.5 -66.5t-66.5 -28.5t-66 28.5t-28 66.5zM764 1860q0 -26 18.5 -45t44.5 -19t45 19t19 45t-19 44.5t-45 18.5t-44.5 -18.5t-18.5 -44.5zM793 1860q0 14 9.5 24t24.5 10q14 0 24.5 -9.5 t10.5 -24.5q0 -14 -10 -24.5t-25 -10.5q-14 0 -24 10t-10 25zM1143 1860q0 38 28 66t66 28t66 -28t28 -66t-28 -66.5t-66 -28.5t-66 28.5t-28 66.5zM1174 1860q0 -26 18.5 -45t44.5 -19t44.5 19t18.5 45t-18.5 44.5t-44.5 18.5t-44.5 -18.5t-18.5 -44.5zM1202 1860 q0 14 10 24t25 10q14 0 24.5 -9.5t10.5 -24.5q0 -14 -10 -24.5t-25 -10.5q-14 0 -24.5 10t-10.5 25zM1243 1565l6 32h592l-6 -32h-592z" />
<glyph unicode="&#x2c6;" horiz-adv-x="669" d="M-242 1352l383 245l299 -247l-22 -27l-279 236l-364 -234zM-209 1300l344 222l266 -219l-22 -27l-246 207l-326 -209z" />
<glyph unicode="&#x2dc;" horiz-adv-x="632" d="M168 1309q8 46 26.5 89.5t47.5 82t72.5 61.5t95.5 23q93 0 184 -117q63 -80 113 -80q59 0 95.5 49.5t49.5 128.5l33 -6q-15 -90 -58.5 -147.5t-119.5 -57.5q-38 0 -69.5 22t-68.5 70q-40 53 -77.5 79t-81.5 26q-87 0 -140.5 -67.5t-68.5 -161.5zM229 1296q15 89 60 148 t121 59q38 0 68 -21.5t67 -70.5q80 -104 162 -104q87 0 139 66.5t67 160.5l33 -4q-18 -101 -79 -178.5t-160 -77.5t-187 117q-32 43 -57 61t-53 18q-60 0 -97.5 -50t-50.5 -128z" />
<glyph unicode="&#x2000;" horiz-adv-x="1064" />
<glyph unicode="&#x2001;" horiz-adv-x="2128" />
<glyph unicode="&#x2002;" horiz-adv-x="1064" />
<glyph unicode="&#x2003;" horiz-adv-x="2128" />
<glyph unicode="&#x2004;" horiz-adv-x="709" />
<glyph unicode="&#x2005;" horiz-adv-x="532" />
<glyph unicode="&#x2006;" horiz-adv-x="354" />
<glyph unicode="&#x2007;" horiz-adv-x="354" />
<glyph unicode="&#x2008;" horiz-adv-x="266" />
<glyph unicode="&#x2009;" horiz-adv-x="425" />
<glyph unicode="&#x200a;" horiz-adv-x="118" />
<glyph unicode="&#x2010;" horiz-adv-x="821" d="M147 582l7 32h493l-6 -32h-494zM160 643l6 33h493l-6 -33h-493z" />
<glyph unicode="&#x2011;" horiz-adv-x="821" d="M147 582l7 32h493l-6 -32h-494zM160 643l6 33h493l-6 -33h-493z" />
<glyph unicode="&#x2012;" horiz-adv-x="821" d="M147 582l7 32h493l-6 -32h-494zM160 643l6 33h493l-6 -33h-493z" />
<glyph unicode="&#x2013;" horiz-adv-x="1239" d="M147 582l7 32h911l-6 -32h-912zM160 643l6 33h911l-6 -33h-911z" />
<glyph unicode="&#x2014;" horiz-adv-x="1564" d="M147 582l7 32h1237l-7 -32h-1237zM160 643l6 33h1237l-6 -33h-1237z" />
<glyph unicode="&#x2018;" horiz-adv-x="524" d="M240 1276q0 55 29 113.5t70.5 104t83 82.5t70.5 57l29 20l17 -25q-11 -7 -29.5 -19.5t-65 -52t-82 -79t-65 -95.5t-29.5 -106q0 -34 19.5 -55t48.5 -21q26 0 44.5 19t18.5 45t-18.5 44.5t-44.5 18.5v-29q14 0 24.5 -9.5t10.5 -24.5q0 -14 -10 -24.5t-25 -10.5 q-16 0 -27.5 13t-11.5 34q0 45 26.5 96t64.5 91t76 73t64 52l27 18l16 -25q-17 -12 -45 -32.5t-88 -79.5t-90 -113q33 -5 56.5 -30.5t23.5 -61.5q0 -38 -27 -65.5t-65 -27.5q-39 0 -67.5 29.5t-28.5 75.5z" />
<glyph unicode="&#x2019;" horiz-adv-x="520" d="M219 1233q17 12 45 32.5t88 79.5t90 113q-33 5 -56.5 30.5t-23.5 61.5q0 38 27.5 65t65.5 27q40 0 68 -29t28 -75q0 -55 -29 -113.5t-70.5 -104t-83.5 -82.5t-71 -57l-29 -20l-16 25q11 7 29 19.5t64.5 52t82.5 79t65 95.5t29 106q0 34 -19 55t-48 21q-26 0 -45 -19 t-19 -45t19 -44.5t45 -18.5v29q-14 0 -24.5 9.5t-10.5 24.5q0 14 10 24.5t25 10.5q16 0 27.5 -13t11.5 -34q0 -45 -26.5 -96t-64.5 -91t-76 -73t-65 -52l-26 -18z" />
<glyph unicode="&#x201a;" horiz-adv-x="657" d="M0 -246q17 12 45 32.5t88 80t90 113.5q-33 5 -56.5 30.5t-23.5 61.5q0 38 27.5 65t65.5 27q39 0 67.5 -29.5t28.5 -75.5q0 -55 -29 -113.5t-70.5 -103.5t-83.5 -82t-71 -57l-29 -20l-16 24q11 7 29 19.5t64.5 52t82.5 79t65 95.5t29 106q0 34 -19 55t-48 21 q-26 0 -45 -18.5t-19 -44.5t19 -45t45 -19v29q-14 0 -24.5 10t-10.5 25q0 14 10 24t25 10q16 0 27 -13t11 -34q0 -45 -26.5 -96t-64.5 -90.5t-76 -73t-65 -51.5l-26 -18z" />
<glyph unicode="&#x201c;" horiz-adv-x="849" d="M240 1276q0 55 29 113.5t70.5 104t83 82.5t70.5 57l29 20l17 -25q-11 -7 -29.5 -19.5t-65 -52t-82 -79t-65 -95.5t-29.5 -106q0 -34 19.5 -55t48.5 -21q26 0 44.5 19t18.5 45t-18.5 44.5t-44.5 18.5v-29q14 0 24.5 -9.5t10.5 -24.5q0 -14 -10 -24.5t-25 -10.5 q-16 0 -27.5 13t-11.5 34q0 45 26.5 96t64.5 91t76 73t64 52l27 18l16 -25q-17 -12 -45 -32.5t-88 -79.5t-90 -113q33 -5 56.5 -30.5t23.5 -61.5q0 -38 -27 -65.5t-65 -27.5q-39 0 -67.5 29.5t-28.5 75.5zM565 1276q0 55 29 113.5t70.5 104t83.5 82.5t71 57l29 20l16 -25 q-11 -7 -29 -19.5t-64.5 -52t-82.5 -79t-65 -95.5t-29 -106q0 -34 19.5 -55t48.5 -21q26 0 44.5 19t18.5 45t-18.5 44.5t-44.5 18.5v-29q14 0 24 -9.5t10 -24.5q0 -14 -9.5 -24.5t-24.5 -10.5q-16 0 -27.5 13t-11.5 34q0 45 26.5 96t64.5 91t76 73t64 52l27 18l16 -25 q-17 -12 -45 -32.5t-88 -79.5t-90 -113q33 -5 56.5 -30.5t23.5 -61.5q0 -38 -27 -65.5t-65 -27.5q-40 0 -68.5 29.5t-28.5 75.5z" />
<glyph unicode="&#x201d;" horiz-adv-x="845" d="M219 1233q17 12 45 32.5t88 79.5t90 113q-33 5 -56.5 30.5t-23.5 61.5q0 38 27.5 65t65.5 27q40 0 68 -29t28 -75q0 -55 -29 -113.5t-70.5 -104t-83.5 -82.5t-71 -57l-29 -20l-16 25q11 7 29 19.5t64.5 52t82.5 79t65 95.5t29 106q0 34 -19 55t-48 21q-26 0 -45 -19 t-19 -45t19 -44.5t45 -18.5v29q-14 0 -24.5 9.5t-10.5 24.5q0 14 10 24.5t25 10.5q16 0 27.5 -13t11.5 -34q0 -45 -26.5 -96t-64.5 -91t-76 -73t-65 -52l-26 -18zM545 1233q17 12 45 32.5t88 79.5t90 113q-33 5 -56.5 30.5t-23.5 61.5q0 38 27 65t65 27q40 0 68.5 -29 t28.5 -75q0 -55 -29 -113.5t-70.5 -104t-83.5 -82.5t-71 -57l-29 -20l-16 25q11 7 29 19.5t64.5 52t82.5 79t65 95.5t29 106q0 34 -19.5 55t-48.5 21q-26 0 -44.5 -19t-18.5 -45t18.5 -44.5t44.5 -18.5v29q-14 0 -24.5 9.5t-10.5 24.5q0 14 10 24.5t25 10.5q16 0 27.5 -13 t11.5 -34q0 -45 -26.5 -96t-64.5 -91t-76 -73t-64 -52l-27 -18z" />
<glyph unicode="&#x201e;" horiz-adv-x="980" d="M0 -246q17 12 45 32.5t88 80t90 113.5q-33 5 -56.5 30.5t-23.5 61.5q0 38 27.5 65t65.5 27q39 0 67.5 -29.5t28.5 -75.5q0 -55 -29 -113.5t-70.5 -103.5t-83.5 -82t-71 -57l-29 -20l-16 24q11 7 29 19.5t64.5 52t82.5 79t65 95.5t29 106q0 34 -19 55t-48 21 q-26 0 -45 -18.5t-19 -44.5t19 -45t45 -19v29q-14 0 -24.5 10t-10.5 25q0 14 10 24t25 10q16 0 27 -13t11 -34q0 -45 -26.5 -96t-64.5 -90.5t-76 -73t-65 -51.5l-26 -18zM326 -246q17 12 45 32.5t88 80t90 113.5q-33 5 -56.5 30.5t-23.5 61.5q0 38 27 65t65 27 q39 0 67.5 -29.5t28.5 -75.5q0 -55 -29 -113.5t-70.5 -103.5t-83 -82t-70.5 -57l-29 -20l-17 24q11 7 29.5 19.5t65 52t82 79t65 95.5t29.5 106q0 34 -19.5 55t-48.5 21q-26 0 -44.5 -18.5t-18.5 -44.5t18.5 -45t44.5 -19v29q-14 0 -24.5 10t-10.5 25q0 14 10 24t25 10 q16 0 27.5 -13t11.5 -34q0 -45 -26.5 -96t-64.5 -90.5t-76 -73t-65 -51.5l-26 -18z" />
<glyph unicode="&#x2022;" horiz-adv-x="954" d="M186 635q0 120 82.5 202.5t202.5 82.5t202.5 -82.5t82.5 -202.5t-82.5 -202.5t-202.5 -82.5t-202.5 82.5t-82.5 202.5zM219 635q0 -103 74.5 -177.5t177.5 -74.5t177.5 74.5t74.5 177.5t-74.5 177.5t-177.5 74.5t-177.5 -74.5t-74.5 -177.5zM248 635q0 94 64.5 158.5 t158.5 64.5t158.5 -64.5t64.5 -158.5t-64.5 -158.5t-158.5 -64.5t-158.5 64.5t-64.5 158.5z" />
<glyph unicode="&#x2026;" horiz-adv-x="1171" d="M57 72q0 38 28.5 66t66.5 28t66 -28t28 -66t-28 -66.5t-66 -28.5t-66.5 28.5t-28.5 66.5zM88 72q0 -26 19 -45t45 -19t44.5 19t18.5 45t-18.5 44.5t-44.5 18.5t-45 -18.5t-19 -44.5zM117 72q0 14 10 24t25 10q14 0 24 -9.5t10 -24.5q0 -14 -9.5 -24.5t-24.5 -10.5 q-14 0 -24.5 10t-10.5 25zM385 72q0 38 28 66t66 28t66 -28t28 -66t-28 -66.5t-66 -28.5t-66 28.5t-28 66.5zM416 72q0 -26 18.5 -45t44.5 -19t45 19t19 45t-19 44.5t-45 18.5t-44.5 -18.5t-18.5 -44.5zM444 72q0 14 10 24t25 10q14 0 24.5 -9.5t10.5 -24.5q0 -14 -10 -24.5 t-25 -10.5q-14 0 -24.5 10t-10.5 25zM713 72q0 38 28 66t66 28t66 -28t28 -66t-28 -66.5t-66 -28.5t-66 28.5t-28 66.5zM743 72q0 -26 19 -45t45 -19t44.5 19t18.5 45t-18.5 44.5t-44.5 18.5t-45 -18.5t-19 -44.5zM772 72q0 14 10 24t25 10q14 0 24.5 -9.5t10.5 -24.5 q0 -14 -10 -24.5t-25 -10.5q-14 0 -24.5 10t-10.5 25z" />
<glyph unicode="&#x202f;" horiz-adv-x="425" />
<glyph unicode="&#x2039;" horiz-adv-x="708" d="M115 600l24 21l316 -412l-25 -21zM121 664l461 411l20 -24l-461 -412zM170 627l451 401l22 -22l-428 -383l289 -377l-27 -21z" />
<glyph unicode="&#x203a;" horiz-adv-x="706" d="M55 252l428 383l-288 377l26 20l307 -401l-450 -402zM96 207l461 411l21 -24l-461 -412zM244 1049l24 20l316 -412l-25 -20z" />
<glyph unicode="&#x205f;" horiz-adv-x="532" />
<glyph unicode="&#x20ac;" horiz-adv-x="1900" d="M86 573l6 33h250q29 -171 129 -308.5t254.5 -216.5t335.5 -79q169 0 314.5 52.5t293.5 176.5l23 -24q-150 -128 -304 -183t-327 -55q-280 0 -486 169.5t-262 434.5h-227zM98 635l6 33h195q-2 25 -2 73q0 95 18 183h-168l7 32h204q-28 -109 -28 -215q0 -53 6 -106h-238z M160 985l6 33h176q93 267 330 438.5t526 171.5q174 0 322.5 -68.5t222.5 -189.5l41 227h35l-62 -340q-29 101 -113 179t-200.5 118.5t-245.5 40.5q-281 0 -513 -173t-316 -437h-209zM358 741q0 106 31 215h811l-6 -32h-780q-23 -97 -23 -183q0 -23 4 -73h670l-6 -33h-692 q-9 53 -9 106zM371 606h682l-6 -33h-637q55 -225 233 -367.5t418 -142.5q162 0 295.5 48.5t273.5 167.5l21 -25q-142 -122 -282.5 -172.5t-307.5 -50.5q-264 0 -454.5 161.5t-235.5 413.5zM397 985q83 253 306 417.5t495 164.5q143 0 265 -47.5t198.5 -139t81.5 -209.5 l-45 -256h-35l45 263q-7 104 -79.5 186t-186 126t-244.5 44q-247 0 -455 -145t-299 -371h768l-6 -33h-809zM1726 915l46 256l75 426h35l-123 -682h-33z" />
<glyph unicode="&#x2122;" horiz-adv-x="1634" d="M246 1503l6 33h248l-97 -537h-34l90 504h-213zM258 1565l6 32h520l-6 -32h-520zM432 999l96 537h244l-6 -33h-209l-90 -504h-35zM829 999l109 609l33 -6l-107 -603h-35zM893 999l96 545l176 -469l-30 -12l-134 354l-73 -418h-35zM999 1604l31 12l162 -436l328 448l26 -20 l-362 -498zM1192 1071l340 469l-94 -541h-35l72 404l-256 -352zM1466 999l107 598l33 -6l-105 -592h-35z" />
<glyph unicode="&#x25fc;" horiz-adv-x="1075" d="M0 0v1075h1075v-1075h-1075z" />
</font>
</defs>
</svg>
